<svg width="80" height="80" viewBox="0 0 80 80" fill="none" xmlns="http://www.w3.org/2000/svg">
<rect width="80" height="80" fill="#383838"/>
<g opacity="0.15" filter="url(#filter0_b_75_1639)">
<rect width="80" height="80" fill="#EB8E39"/>
</g>
<path fill-rule="evenodd" clip-rule="evenodd" d="M50.4527 27.2757C51.3564 27.7853 52.1396 28.5362 52.696 29.4998C52.7051 29.5157 52.7142 29.5315 52.7231 29.5473L54.3562 29.1098L55.1327 32.0075L53.5006 32.4448C53.5096 33.5339 53.2215 34.6091 52.6692 35.5478L53.864 36.7426L51.7427 38.8639L50.5472 37.6684C50.5314 37.6777 50.5157 37.6869 50.4998 37.696C49.5363 38.2523 48.4825 38.511 47.4451 38.5005L47.0078 40.1325L44.11 39.3561L44.5473 37.7242C43.6435 37.2145 42.8601 36.4636 42.3037 35.4998C42.2946 35.4841 42.2855 35.4683 42.2766 35.4525L40.6438 35.89L39.8673 32.9922L41.499 32.555C41.49 31.4658 41.7782 30.3904 42.3306 29.4516L41.1362 28.2572L43.2575 26.1359L44.4528 27.3312C44.4684 27.3219 44.4841 27.3128 44.4998 27.3037C45.4635 26.7473 46.5174 26.4887 47.5549 26.4992L47.9922 24.8672L50.89 25.6436L50.4527 27.2757ZM45.3245 30.4328C44.6248 31.1685 44.3441 32.2176 44.583 33.2045L44.6205 33.3444C44.6864 33.5686 44.7798 33.7886 44.9018 33.9998C45.3126 34.7114 45.9709 35.191 46.7052 35.3927L46.7416 35.4024C47.4783 35.5949 48.2883 35.5087 48.9998 35.0979C49.2164 34.9729 49.4114 34.825 49.5837 34.659L49.6616 34.581C50.3744 33.8414 50.6597 32.779 50.4135 31.7819L50.383 31.6684C50.3169 31.4397 50.2223 31.2153 50.0979 30.9998C49.2695 29.565 47.4347 29.0733 45.9998 29.9018C45.7892 30.0234 45.5989 30.1667 45.4301 30.3272L45.3245 30.4328Z" fill="#AA9032"/>
<path fill-rule="evenodd" clip-rule="evenodd" d="M37 34V37.15C39.9387 37.7465 42.2534 40.0613 42.85 43H46V46H42.85C42.6556 46.9575 42.2788 47.8488 41.7574 48.6361L43.9853 50.864L41.864 52.9853L39.6361 50.7574C38.8489 51.2788 37.9576 51.6556 37 51.8499V55H34V51.8499C33.0424 51.6556 32.1511 51.2788 31.3639 50.7574L29.1361 52.9853L27.0147 50.8639L29.2426 48.6361C28.7212 47.8488 28.3444 46.9575 28.15 46H25V43H28.15C28.3444 42.0424 28.7212 41.151 29.2427 40.3638L27.0149 38.136L29.1362 36.0147L31.364 38.2425C32.1512 37.7211 33.0425 37.3443 34 37.15V34H37ZM35.5 40C33.0147 40 31 42.0147 31 44.5C31 46.9852 33.0147 49 35.5 49C37.9853 49 40 46.9852 40 44.5C40 42.0147 37.9853 40 35.5 40Z" fill="#AA9032"/>
<defs>
<filter id="filter0_b_75_1639" x="-56" y="-56" width="192" height="192" filterUnits="userSpaceOnUse" color-interpolation-filters="sRGB">
<feFlood flood-opacity="0" result="BackgroundImageFix"/>
<feGaussianBlur in="BackgroundImage" stdDeviation="28"/>
<feComposite in2="SourceAlpha" operator="in" result="effect1_backgroundBlur_75_1639"/>
<feBlend mode="normal" in="SourceGraphic" in2="effect1_backgroundBlur_75_1639" result="shape"/>
</filter>
</defs>
</svg>
