<svg width="16" height="16" viewBox="0 0 16 16" fill="none" xmlns="http://www.w3.org/2000/svg">
<path d="M9.62522 6.3735C10.0157 6.76403 10.6489 6.76403 11.0394 6.3735C11.43 5.98298 11.43 5.34981 11.0394 4.95929C10.6489 4.56876 10.0157 4.56876 9.62522 4.95929C9.23469 5.34981 9.23469 5.98298 9.62522 6.3735Z" fill="white"/>
<path fill-rule="evenodd" clip-rule="evenodd" d="M11.5371 10.1685C13.7892 8.25287 14.5785 6.26431 14.7679 4.68557C14.867 3.87014 14.8009 3.18176 14.7114 2.69629C14.6642 2.45112 14.6172 2.25325 14.5748 2.11656C14.5614 2.07659 14.5511 2.0427 14.5423 2.01329L14.523 1.95158C14.5089 1.92813 14.5041 1.914 14.4994 1.89996C14.4983 1.89881 14.4973 1.89708 14.4966 1.8955C14.4652 1.80961 14.4073 1.72724 14.3426 1.66281C14.2922 1.61259 14.1815 1.53351 14.115 1.51064C14.1127 1.51067 14.1103 1.5107 14.108 1.5084L14.0821 1.49657L14.0562 1.48478L14.0547 1.48428C14.0124 1.47018 13.9563 1.4515 13.8912 1.43293C13.8193 1.40902 13.7328 1.38502 13.633 1.36103L13.5338 1.33827L13.4363 1.31741L13.3066 1.29151C12.8211 1.202 12.1328 1.13586 11.3173 1.23498C9.73868 1.42427 7.7418 2.21364 5.82982 4.46121L4.80714 4.25658C3.9634 4.09169 3.10544 4.47824 2.67788 5.22851L1.27167 7.68848C1.15845 7.8864 1.15373 8.12682 1.2622 8.32955C1.37004 8.53107 1.56621 8.66268 1.79527 8.67807L1.79486 8.68307L4.61397 8.90002L7.09344 11.3795L7.31039 14.1986C7.32915 14.4247 7.4613 14.6323 7.65919 14.736C7.86195 14.8444 8.10237 14.8397 8.30027 14.7265L8.30982 14.7266L10.7751 13.317C11.5248 12.8881 11.9113 12.0302 11.7462 11.1862L11.7409 11.1874L11.5371 10.1685ZM10.388 9.38592L10.3839 9.3808C12.609 7.59899 13.2876 5.8169 13.4432 4.52054C13.5234 3.86536 13.4715 3.31374 13.4008 2.93191C13.3833 2.82838 13.3627 2.73807 13.3432 2.66222C13.2659 2.64332 13.1739 2.62252 13.071 2.60206C12.6892 2.53137 12.1375 2.47946 11.4775 2.55482C10.1812 2.71042 8.38975 3.38915 6.61266 5.60957L6.60754 5.60548C6.453 5.79684 6.20605 5.88636 5.96298 5.8417L5.96215 5.8453L4.54802 5.56255C4.37536 5.52805 4.20255 5.56367 4.06134 5.65379C3.97307 5.7103 3.89688 5.78787 3.84086 5.88302L2.95364 7.43499L4.9628 7.5895C5.1182 7.60351 5.26928 7.66972 5.3823 7.78273L8.21073 10.6112C8.27196 10.6724 8.31937 10.7447 8.35226 10.8227C8.38005 10.8888 8.39752 10.9593 8.40396 11.0307L8.5591 13.047L10.1153 12.1574C10.364 12.0119 10.4959 11.7308 10.4411 11.4491L10.4357 11.4503L10.153 10.0361C10.101 9.79578 10.1951 9.54152 10.388 9.38592Z" fill="white"/>
<path d="M1.62439 12.9553C1.76577 12.2951 2.25962 11.3114 3.49501 9.76992L4.53553 10.604C3.4381 11.973 3.06654 12.7455 2.95384 13.134C3.34206 13.0211 4.11483 12.6497 5.48387 11.5523L6.31792 12.5928C4.77639 13.8282 3.79272 14.3221 3.13228 14.4632C2.78998 14.5367 2.49685 14.5232 2.25309 14.4304C2.1323 14.3846 2.0343 14.3228 1.95763 14.2568C1.9334 14.2359 1.91185 14.2151 1.89283 14.195L1.87396 14.1766L1.8407 14.1413L1.83103 14.1302C1.79929 14.0934 1.76845 14.0515 1.74014 14.0047C1.70932 13.9541 1.68121 13.8975 1.65739 13.8347C1.56463 13.591 1.55116 13.2979 1.62439 12.9553Z" fill="white"/>
</svg>
