<svg width="80" height="80" viewBox="0 0 80 80" fill="none" xmlns="http://www.w3.org/2000/svg">
<g opacity="0.3" filter="url(#filter0_b_75_1654)">
<rect width="80" height="80" fill="#32AA54"/>
</g>
<rect width="80" height="80" fill="#383838" fill-opacity="0.5"/>
<path fill-rule="evenodd" clip-rule="evenodd" d="M44.5 29.5C44.5 28.6716 45.1716 28 46 28H53.5C54.3284 28 55 28.6716 55 29.5V37C55 37.8284 54.3284 38.5 53.5 38.5H46C45.1716 38.5 44.5 37.8284 44.5 37V35.677L38.5 38.677V41.323L44.5 44.323V43C44.5 42.1716 45.1716 41.5 46 41.5H53.5C54.3284 41.5 55 42.1716 55 43V50.5C55 51.3284 54.3284 52 53.5 52H46C45.1716 52 44.5 51.3284 44.5 50.5V47.6771L38.5 44.6771V47.5C38.5 48.3284 37.8284 49 37 49H26.5C25.6716 49 25 48.3284 25 47.5V32.5C25 31.6716 25.6716 31 26.5 31H37C37.8284 31 38.5 31.6716 38.5 32.5V35.3229L44.5 32.3229V29.5ZM47.5 31V35.5H52V31H47.5ZM28 34V46H35.5V34H28ZM47.5 49V44.5H52V49H47.5Z" fill="#32AA54"/>
<defs>
<filter id="filter0_b_75_1654" x="-56" y="-56" width="192" height="192" filterUnits="userSpaceOnUse" color-interpolation-filters="sRGB">
<feFlood flood-opacity="0" result="BackgroundImageFix"/>
<feGaussianBlur in="BackgroundImage" stdDeviation="28"/>
<feComposite in2="SourceAlpha" operator="in" result="effect1_backgroundBlur_75_1654"/>
<feBlend mode="normal" in="SourceGraphic" in2="effect1_backgroundBlur_75_1654" result="shape"/>
</filter>
</defs>
</svg>
