<svg width="1210" height="430" viewBox="0 0 1210 430" fill="none" xmlns="http://www.w3.org/2000/svg">
<g opacity="0.7">
<path opacity="0.01" fill-rule="evenodd" clip-rule="evenodd" d="M719.285 526.807C844.51 551.83 970.506 658.455 1082.69 591.522C1195.4 524.276 1195.16 368.968 1187.62 247.383C1181.56 149.765 1095.47 88.6622 1046.27 4.67911C980.267 -108.007 985.488 -278.16 855.164 -320.167C717.259 -364.617 535.357 -303.52 442.442 -189.952C356.683 -85.1304 447.313 52.2407 445.222 180.898C443.643 278.048 371.746 385.607 431.854 461.472C492.212 537.653 618.914 506.751 719.285 526.807Z" stroke="#138734" stroke-width="2"/>
<path opacity="0.0168067" fill-rule="evenodd" clip-rule="evenodd" d="M736.34 521.101C862.134 544.039 990.219 648.475 1101.25 579.775C1212.8 510.756 1209.67 355.628 1199.86 234.305C1191.98 136.896 1104.68 77.2764 1053.88 -5.80373C985.724 -117.278 987.783 -287.324 856.569 -327.144C717.723 -369.279 536.807 -305.264 445.929 -190.3C362.049 -84.1891 455.311 51.5382 455.612 180.084C455.84 277.149 385.885 385.767 447.454 460.559C509.281 535.663 635.512 502.716 736.34 521.101Z" stroke="#138735" stroke-width="2"/>
<path opacity="0.0252101" fill-rule="evenodd" clip-rule="evenodd" d="M753.27 515.404C879.595 536.25 1009.73 638.465 1119.58 568.02C1229.93 497.247 1223.92 342.346 1211.84 221.322C1202.14 124.153 1113.66 66.0343 1061.27 -16.1176C990.981 -126.347 989.877 -296.234 857.813 -333.854C718.068 -373.662 538.192 -306.749 449.379 -190.423C367.404 -83.055 463.269 50.9872 465.963 179.382C467.997 276.334 400.006 385.977 463.018 459.673C526.293 533.677 652.016 498.695 753.27 515.404Z" stroke="#138835" stroke-width="2"/>
<path opacity="0.0336134" fill-rule="evenodd" clip-rule="evenodd" d="M770.068 509.718C896.886 528.467 1029.03 628.428 1137.66 556.26C1246.79 483.755 1237.88 329.129 1223.54 208.44C1212.03 111.541 1122.39 54.9407 1068.43 -26.2579C996.033 -135.208 991.767 -304.884 858.894 -340.293C718.292 -377.762 539.512 -307.971 452.79 -190.319C372.746 -81.7269 471.185 50.5893 476.27 178.794C480.11 275.603 414.102 386.238 478.538 458.816C543.243 531.697 668.419 494.69 770.068 509.718Z" stroke="#138935" stroke-width="2"/>
<path opacity="0.0420168" fill-rule="evenodd" clip-rule="evenodd" d="M786.745 504.046C914.017 520.691 1048.13 618.37 1155.5 544.5C1263.38 470.285 1251.59 315.981 1234.99 195.664C1221.66 99.0638 1130.9 43.9993 1075.38 -36.2213C1000.9 -143.859 993.468 -313.273 859.826 -346.46C718.41 -381.578 540.781 -308.931 456.176 -189.988C378.086 -80.2049 479.069 50.345 486.545 178.321C492.189 274.957 428.186 386.55 494.026 457.988C560.141 529.725 684.732 490.704 786.745 504.046Z" stroke="#148A35" stroke-width="2"/>
<path opacity="0.0504202" fill-rule="evenodd" clip-rule="evenodd" d="M803.292 498.388C930.979 512.925 1067.02 608.291 1173.11 532.742C1279.69 456.841 1265.02 302.904 1246.17 182.997C1231.03 86.7249 1139.17 33.2131 1082.12 -46.005C1005.56 -152.298 994.976 -321.398 860.606 -352.353C718.419 -385.109 541.995 -309.628 459.533 -189.431C383.422 -78.49 486.918 50.2539 496.781 177.962C504.229 274.396 442.249 386.913 509.473 457.189C576.978 527.759 700.947 486.737 803.292 498.388Z" stroke="#148A36" stroke-width="2"/>
<path opacity="0.0588235" fill-rule="evenodd" clip-rule="evenodd" d="M819.712 492.751C947.776 505.175 1085.71 598.199 1190.48 520.994C1295.73 443.429 1278.19 289.908 1257.09 170.446C1240.14 74.5318 1147.21 22.5889 1088.64 -55.6026C1010.04 -160.518 996.3 -329.252 861.242 -357.966C718.327 -388.35 543.162 -310.059 462.868 -188.644C388.758 -76.579 494.736 50.3196 506.984 177.721C516.233 273.923 456.296 387.331 524.883 456.423C593.757 525.804 717.065 482.793 819.712 492.751Z" stroke="#148B36" stroke-width="2"/>
<path opacity="0.0672269" fill-rule="evenodd" clip-rule="evenodd" d="M836.005 487.133C964.406 497.44 1104.18 588.094 1207.6 509.256C1311.5 430.05 1291.08 276.992 1267.74 158.012C1249 62.4842 1155.03 12.1261 1094.95 -65.0151C1014.34 -168.521 997.442 -336.838 861.738 -363.302C718.139 -391.306 544.285 -310.226 466.185 -187.631C394.099 -74.4765 502.526 50.5382 517.155 177.594C528.202 273.535 470.325 387.798 540.256 455.686C610.478 523.858 733.088 478.871 836.005 487.133Z" stroke="#148C36" stroke-width="2"/>
<path opacity="0.0756303" fill-rule="evenodd" clip-rule="evenodd" d="M852.174 481.538C980.874 489.725 1122.45 577.981 1224.49 497.534C1327 416.713 1303.72 264.163 1278.15 145.701C1257.61 50.5899 1162.62 1.83185 1101.06 -74.2354C1018.45 -176.3 998.411 -344.15 862.101 -368.355C717.863 -393.969 545.374 -310.128 469.49 -186.389C399.45 -72.179 510.294 50.9137 527.3 177.585C540.141 273.236 484.343 388.32 555.594 454.983C627.143 521.924 749.018 474.976 852.174 481.538Z" stroke="#148D37" stroke-width="2"/>
<path opacity="0.0840336" fill-rule="evenodd" clip-rule="evenodd" d="M868.215 475.964C997.173 482.029 1140.51 567.86 1241.14 485.829C1342.23 403.417 1316.09 251.422 1288.29 133.514C1265.97 38.8478 1169.99 -8.29521 1106.96 -83.2654C1022.39 -183.858 999.207 -351.188 862.334 -373.129C717.5 -396.345 546.428 -309.766 472.784 -184.922C404.811 -69.6917 518.037 51.4415 537.415 177.69C552.046 273.022 498.344 388.891 570.895 454.309C643.749 520 764.851 471.103 868.215 475.964Z" stroke="#148D37" stroke-width="2"/>
<path opacity="0.092437" fill-rule="evenodd" clip-rule="evenodd" d="M884.133 470.416C1013.31 474.357 1158.37 557.738 1257.55 474.147C1357.19 390.168 1328.2 238.775 1298.18 121.458C1274.08 27.265 1177.15 -18.2487 1112.67 -92.099C1026.15 -191.189 999.841 -357.949 862.446 -377.617C717.06 -398.429 547.457 -309.14 476.075 -183.228C410.191 -67.0122 525.765 52.1246 547.508 177.912C563.926 272.895 512.335 389.515 586.164 453.667C660.301 518.087 780.593 467.258 884.133 470.416Z" stroke="#148E37" stroke-width="2"/>
<path opacity="0.10084" fill-rule="evenodd" clip-rule="evenodd" d="M899.922 464.899C1029.28 466.714 1176.01 547.619 1273.72 462.495C1371.88 376.975 1340.05 226.23 1307.82 109.538C1281.95 15.8481 1184.08 -28.0225 1118.18 -100.73C1029.75 -198.288 1000.31 -364.426 862.435 -381.816C716.541 -400.218 548.459 -308.245 479.361 -181.304C415.585 -64.1381 533.472 52.966 557.574 178.254C575.773 272.86 526.309 390.195 601.393 453.062C676.791 516.191 796.237 463.444 899.922 464.899Z" stroke="#148F37" stroke-width="2"/>
<path opacity="0.109244" fill-rule="evenodd" clip-rule="evenodd" d="M915.589 459.411C1045.09 459.1 1193.44 537.504 1289.65 450.872C1386.3 363.837 1351.64 213.786 1317.21 97.7551C1289.58 4.59601 1190.82 -37.618 1123.5 -109.161C1033.18 -205.156 1000.63 -370.623 862.315 -385.73C715.957 -401.715 549.447 -307.087 482.654 -179.155C421.006 -61.0748 541.17 53.961 567.623 178.711C587.598 272.911 540.277 390.925 616.593 452.488C693.228 514.308 811.791 459.66 915.589 459.411Z" stroke="#149038" stroke-width="2"/>
<path opacity="0.117647" fill-rule="evenodd" clip-rule="evenodd" d="M931.131 453.954C1060.73 451.517 1210.67 527.396 1305.34 439.284C1400.46 350.76 1362.97 201.448 1326.36 86.1144C1296.96 -6.48524 1197.34 -47.0298 1128.64 -117.387C1036.45 -211.79 1000.79 -376.535 862.085 -389.353C715.308 -402.917 550.421 -305.662 485.954 -176.779C426.451 -57.8206 548.856 55.1117 577.653 179.286C599.397 273.051 554.233 391.708 631.758 451.948C709.607 512.44 827.252 455.907 931.131 453.954Z" stroke="#159038" stroke-width="2"/>
<path opacity="0.12605" fill-rule="evenodd" clip-rule="evenodd" d="M946.549 448.531C1076.21 443.97 1227.69 517.301 1320.8 427.733C1414.34 337.749 1374.05 189.222 1335.26 74.6198C1304.12 -17.3923 1203.65 -56.2551 1133.58 -125.404C1039.57 -218.187 1000.81 -382.159 861.751 -392.686C714.6 -403.824 551.387 -303.973 489.265 -174.177C431.926 -54.3766 556.534 56.4179 587.666 179.979C611.173 273.28 568.18 392.544 646.89 451.444C725.929 510.589 842.62 452.188 946.549 448.531Z" stroke="#159138" stroke-width="2"/>
<path opacity="0.134454" fill-rule="evenodd" clip-rule="evenodd" d="M961.845 443.145C1091.53 436.459 1244.5 507.221 1336.02 416.226C1427.97 324.808 1384.87 177.11 1343.92 63.2752C1311.04 -28.1212 1209.77 -65.2904 1138.35 -133.211C1042.54 -224.345 1000.7 -387.495 861.323 -395.726C713.843 -404.436 552.352 -302.018 492.594 -171.349C437.438 -50.7432 564.211 57.8798 597.667 180.789C622.93 273.599 582.121 393.434 661.993 450.974C742.198 508.754 857.898 448.504 961.845 443.145Z" stroke="#159239" stroke-width="2"/>
<path opacity="0.142857" fill-rule="evenodd" clip-rule="evenodd" d="M977.017 437.797C1106.69 428.989 1261.09 497.159 1351 404.765C1441.32 311.94 1395.44 165.118 1352.34 52.0843C1317.73 -38.6686 1215.68 -74.133 1142.95 -140.804C1045.35 -230.261 1000.44 -392.539 860.8 -398.473C713.035 -404.751 553.317 -299.798 495.94 -168.296C442.983 -46.9214 571.883 59.497 607.654 181.718C634.666 274.008 596.052 394.377 677.061 450.54C758.408 506.938 873.083 444.856 977.017 437.797Z" stroke="#159339" stroke-width="2"/>
<path opacity="0.151261" fill-rule="evenodd" clip-rule="evenodd" d="M992.067 432.49C1121.68 421.564 1277.48 487.121 1365.74 393.355C1454.42 299.153 1405.77 153.251 1360.52 41.053C1324.2 -49.0288 1221.4 -82.7774 1147.37 -148.179C1048.03 -235.932 1000.06 -397.289 860.191 -400.923C712.187 -404.768 554.289 -297.311 499.312 -165.016C448.57 -42.9099 579.557 61.2714 617.632 182.766C646.384 274.508 609.979 395.374 692.1 450.144C774.564 505.142 888.178 441.248 992.067 432.49Z" stroke="#159339" stroke-width="2"/>
<path opacity="0.159664" fill-rule="evenodd" clip-rule="evenodd" d="M1006.99 427.222C1136.51 414.18 1293.67 477.105 1380.25 381.996C1467.25 286.445 1415.84 141.507 1368.47 30.179C1330.44 -59.2042 1226.93 -91.2268 1151.62 -155.338C1050.56 -241.361 999.551 -401.747 859.499 -403.081C711.301 -404.492 555.272 -294.564 502.712 -161.517C454.199 -38.7155 587.234 63.1971 627.602 183.929C658.085 275.095 623.898 396.422 707.107 449.781C790.663 503.363 903.183 437.676 1006.99 427.222Z" stroke="#159439" stroke-width="2"/>
<path opacity="0.168067" fill-rule="evenodd" clip-rule="evenodd" d="M1021.8 422C1151.18 406.846 1309.64 467.119 1394.53 370.697C1479.82 273.826 1425.67 129.895 1376.19 19.4719C1336.46 -69.1855 1232.27 -99.4723 1155.7 -162.274C1052.96 -246.541 998.927 -405.907 858.734 -404.94C710.386 -403.916 556.274 -291.551 506.146 -157.791C459.879 -34.333 594.92 65.2796 637.569 185.212C669.773 275.774 637.816 397.524 722.087 449.457C806.709 501.606 918.1 434.146 1021.8 422Z" stroke="#15953A" stroke-width="2"/>
<path opacity="0.176471" fill-rule="evenodd" clip-rule="evenodd" d="M1036.49 416.825C1165.7 399.564 1325.41 457.166 1408.57 359.46C1492.13 261.298 1435.26 118.42 1383.68 8.93432C1342.27 -78.9703 1237.43 -107.512 1159.63 -168.986C1055.24 -251.47 998.19 -409.768 857.899 -406.5C709.447 -403.042 557.298 -288.274 509.617 -153.843C465.609 -29.7649 602.616 67.5176 647.532 186.614C681.448 276.544 651.731 398.681 737.038 449.171C822.701 499.872 932.928 430.66 1036.49 416.825Z" stroke="#15963A" stroke-width="2"/>
<path opacity="0.184874" fill-rule="evenodd" clip-rule="evenodd" d="M1051.06 411.696C1180.05 392.333 1340.96 447.248 1422.38 348.287C1504.18 248.865 1444.6 107.083 1390.94 -1.43226C1347.86 -88.5573 1242.41 -115.345 1163.4 -175.472C1057.38 -256.148 997.341 -413.331 856.995 -407.763C708.485 -401.871 558.345 -284.735 513.127 -149.674C471.391 -25.014 610.322 69.9087 657.492 188.132C693.11 277.404 665.641 399.891 751.958 448.923C838.635 498.16 947.666 427.216 1051.06 411.696Z" stroke="#15963A" stroke-width="2"/>
<path opacity="0.193277" fill-rule="evenodd" clip-rule="evenodd" d="M1065.51 406.617C1194.25 385.158 1356.32 437.369 1435.96 337.183C1515.97 236.531 1453.71 95.8875 1397.99 -11.6234C1353.25 -97.9423 1247.21 -122.969 1167.01 -181.73C1059.41 -260.574 996.394 -416.592 856.034 -408.726C707.51 -400.403 559.426 -280.935 516.684 -145.284C477.234 -20.0802 618.046 72.4538 667.455 189.769C704.764 278.354 679.551 401.153 766.853 448.713C854.518 496.47 962.319 423.817 1065.51 406.617Z" stroke="#16973B" stroke-width="2"/>
<path opacity="0.201681" fill-rule="evenodd" clip-rule="evenodd" d="M1079.84 401.592C1208.29 378.043 1371.46 427.534 1449.31 326.154C1527.51 224.302 1462.58 84.8407 1404.81 -21.6334C1358.43 -107.12 1251.84 -130.377 1170.48 -187.755C1061.32 -264.743 995.348 -419.549 855.019 -409.388C706.527 -398.635 560.543 -276.871 520.29 -140.673C483.137 -14.9629 625.789 75.1542 677.421 191.525C716.41 279.398 693.461 402.471 781.72 448.543C870.347 494.807 976.886 420.466 1079.84 401.592Z" stroke="#16983B" stroke-width="2"/>
<path opacity="0.210084" fill-rule="evenodd" clip-rule="evenodd" d="M1094.06 396.62C1222.17 370.989 1386.4 417.745 1462.42 315.202C1538.8 212.181 1471.22 73.9438 1411.42 -31.4611C1363.41 -116.089 1256.3 -137.57 1173.8 -193.547C1063.12 -268.655 994.213 -422.203 853.956 -409.749C705.541 -396.57 561.702 -272.548 523.95 -135.842C489.106 -9.66535 633.553 78.0074 687.394 193.398C728.05 280.531 707.373 403.842 796.562 448.413C886.124 493.17 991.367 417.164 1094.06 396.62Z" stroke="#16993B" stroke-width="2"/>
<path opacity="0.218487" fill-rule="evenodd" clip-rule="evenodd" d="M1108.16 391.699C1235.9 363.994 1401.14 408.001 1475.31 304.326C1549.84 200.168 1479.63 63.1967 1417.82 -41.1069C1368.19 -124.851 1260.59 -144.548 1176.99 -199.107C1064.81 -272.313 992.992 -424.556 852.851 -409.813C704.558 -394.212 562.907 -267.968 527.668 -130.799C495.143 -4.1924 641.341 81.0093 697.375 195.385C739.686 281.752 721.287 405.263 811.379 448.318C901.848 491.554 1005.76 413.906 1108.16 391.699Z" stroke="#16993B" stroke-width="2"/>
<path opacity="0.226891" fill-rule="evenodd" clip-rule="evenodd" d="M1122.14 386.838C1249.47 357.067 1415.66 398.311 1487.97 293.535C1560.62 188.272 1487.8 52.6089 1424 -50.5616C1372.78 -133.396 1264.72 -151.304 1180.03 -204.428C1066.4 -275.71 991.688 -426.601 851.705 -409.573C703.58 -391.556 564.161 -263.129 531.446 -125.536C501.25 1.46019 649.155 84.1648 707.363 197.491C751.316 283.065 735.201 406.738 826.169 448.265C917.518 489.967 1020.07 410.701 1122.14 386.838Z" stroke="#169A3C" stroke-width="2"/>
<path opacity="0.235294" fill-rule="evenodd" clip-rule="evenodd" d="M1136.01 382.035C1262.9 350.207 1429.99 388.675 1500.41 282.831C1571.16 176.494 1495.76 42.1807 1429.98 -59.8253C1377.18 -141.724 1268.69 -157.838 1182.95 -209.512C1067.9 -278.847 990.313 -428.34 850.531 -409.034C702.618 -388.604 565.474 -258.034 535.292 -120.06C507.434 7.2881 657.001 87.4706 717.367 199.713C762.949 284.468 749.121 408.265 840.938 448.252C933.138 488.406 1034.31 407.546 1136.01 382.035Z" stroke="#169B3C" stroke-width="2"/>
<path opacity="0.243697" fill-rule="evenodd" clip-rule="evenodd" d="M1149.76 377.295C1276.16 343.42 1444.12 379.101 1512.62 272.221C1581.45 164.843 1503.49 31.9198 1435.76 -68.8905C1381.38 -149.83 1272.51 -164.144 1185.73 -214.351C1069.3 -281.718 988.867 -429.768 849.329 -408.189C701.673 -385.354 566.845 -252.681 539.206 -114.367C513.695 13.2941 664.878 90.9299 727.382 202.054C774.579 285.964 763.044 409.848 855.681 448.282C948.705 486.877 1048.45 404.447 1149.76 377.295Z" stroke="#169C3C" stroke-width="2"/>
<path opacity="0.252101" fill-rule="evenodd" clip-rule="evenodd" d="M1163.41 372.617C1289.28 336.705 1458.04 369.587 1524.61 261.703C1591.5 153.317 1511 21.8249 1441.34 -77.7592C1385.41 -157.714 1276.18 -170.224 1188.4 -218.95C1070.61 -284.329 987.359 -430.89 848.107 -407.044C700.754 -381.811 568.283 -247.074 543.195 -108.464C520.038 19.4714 672.791 94.537 737.415 204.509C786.214 287.549 776.974 411.482 870.403 448.351C964.223 485.375 1062.52 401.401 1163.41 372.617Z" stroke="#169C3D" stroke-width="2"/>
<path opacity="0.260504" fill-rule="evenodd" clip-rule="evenodd" d="M1176.94 368.003C1302.25 330.065 1471.76 360.14 1536.38 251.285C1601.31 141.924 1518.29 11.902 1446.72 -86.4254C1389.26 -165.371 1279.71 -176.074 1190.94 -223.303C1071.84 -286.674 985.795 -431.702 846.87 -405.597C699.864 -377.973 569.791 -241.214 547.261 -102.349C526.467 25.8217 680.743 98.2941 747.468 207.08C797.852 289.225 790.911 413.169 885.104 448.463C979.69 483.904 1076.5 398.412 1176.94 368.003Z" stroke="#169D3D" stroke-width="2"/>
<path opacity="0.268908" fill-rule="evenodd" clip-rule="evenodd" d="M1190.37 363.455C1315.08 323.502 1485.28 350.76 1547.94 240.967C1610.88 130.664 1525.37 2.1529 1451.92 -94.8879C1392.94 -172.801 1283.09 -181.693 1193.38 -227.411C1073 -288.754 984.179 -432.205 845.625 -403.849C699.012 -373.842 571.376 -235.103 551.412 -96.0252C532.985 32.3416 688.738 102.199 757.542 209.766C809.497 290.991 804.857 414.908 899.784 448.615C995.109 482.463 1090.41 395.478 1190.37 363.455Z" stroke="#169E3D" stroke-width="2"/>
<path opacity="0.277311" fill-rule="evenodd" clip-rule="evenodd" d="M1203.68 358.974C1327.75 317.019 1498.61 341.451 1559.27 230.755C1620.21 119.543 1532.24 -7.41839 1456.92 -103.143C1396.44 -179.999 1286.34 -187.077 1195.7 -231.271C1074.08 -290.568 982.516 -432.398 844.375 -401.799C698.198 -369.419 573.039 -228.741 555.646 -89.4937C539.593 39.03 696.775 106.251 767.638 212.566C821.147 292.846 818.809 416.699 914.443 448.809C1010.48 481.053 1104.24 392.602 1203.68 358.974Z" stroke="#179F3D" stroke-width="2"/>
<path opacity="0.285714" fill-rule="evenodd" clip-rule="evenodd" d="M1216.89 354.564C1340.28 310.62 1511.73 332.219 1570.38 220.652C1629.31 108.566 1538.91 -16.8075 1461.74 -111.187C1399.78 -186.963 1289.45 -192.225 1197.92 -234.88C1075.09 -292.114 980.814 -432.28 843.127 -399.447C697.432 -364.704 574.786 -222.13 559.971 -82.7553C546.296 45.8863 704.86 110.45 777.76 215.481C832.807 294.791 832.772 418.542 929.083 449.046C1025.8 479.677 1117.99 389.787 1216.89 354.564Z" stroke="#179F3E" stroke-width="2"/>
<path opacity="0.294118" fill-rule="evenodd" clip-rule="evenodd" d="M1229.99 350.223C1352.67 304.303 1524.66 323.062 1581.29 210.659C1638.17 97.7327 1545.36 -26.0142 1466.37 -119.02C1402.95 -193.692 1292.44 -197.137 1200.03 -238.241C1076.04 -293.393 979.077 -431.852 841.887 -396.796C696.718 -359.7 576.623 -215.275 564.389 -75.8142C553.097 52.9061 712.994 114.793 787.909 218.508C844.478 296.825 846.746 420.436 943.704 449.324C1041.07 478.332 1131.67 387.03 1229.99 350.223Z" stroke="#17A03E" stroke-width="2"/>
<path opacity="0.302521" fill-rule="evenodd" clip-rule="evenodd" d="M1242.99 345.958C1364.91 298.075 1537.4 313.989 1591.98 200.784C1646.81 87.0511 1551.62 -35.0317 1470.83 -126.635C1405.97 -200.181 1295.3 -201.808 1202.05 -241.348C1076.93 -294.402 977.311 -431.111 840.66 -393.842C696.061 -354.405 578.555 -208.172 568.906 -68.6685C560 60.0912 721.181 119.283 798.088 221.65C856.162 298.949 860.732 422.383 958.308 449.646C1056.29 477.023 1145.27 384.337 1242.99 345.958Z" stroke="#17A13E" stroke-width="2"/>
<path opacity="0.310924" fill-rule="evenodd" clip-rule="evenodd" d="M1255.88 341.763C1377.01 291.933 1549.94 304.997 1602.46 191.024C1655.22 76.5202 1557.68 -43.8612 1475.12 -134.034C1408.84 -206.432 1298.04 -206.24 1203.98 -244.204C1077.77 -295.144 975.522 -430.063 839.452 -390.592C695.466 -348.826 580.584 -200.829 573.523 -61.3251C567.006 67.4348 729.422 123.913 808.298 224.902C867.859 301.159 874.73 424.378 972.894 450.008C1071.47 475.745 1158.79 381.704 1255.88 341.763Z" stroke="#17A23F" stroke-width="2"/>
<path opacity="0.319328" fill-rule="evenodd" clip-rule="evenodd" d="M1268.68 337.648C1388.98 285.886 1562.29 296.096 1612.73 181.389C1663.41 66.1491 1563.54 -52.4943 1479.24 -141.209C1411.55 -212.437 1300.67 -210.426 1205.83 -246.803C1078.56 -295.612 973.719 -428.699 838.27 -387.04C694.942 -342.957 582.719 -193.241 578.248 -53.7797C574.122 74.9413 737.724 128.689 818.545 228.268C879.574 303.461 888.743 426.427 987.466 450.417C1086.6 474.506 1172.25 379.137 1268.68 337.648Z" stroke="#17A23F" stroke-width="2"/>
<path opacity="0.327731" fill-rule="evenodd" clip-rule="evenodd" d="M1281.36 333.612C1400.8 279.933 1574.45 287.286 1622.8 171.881C1671.37 55.9395 1569.22 -60.9298 1483.19 -148.16C1414.12 -218.196 1303.19 -214.367 1207.59 -249.145C1079.31 -295.809 971.901 -427.024 837.115 -383.187C694.489 -336.801 584.959 -185.413 583.08 -46.0361C581.345 82.6066 746.083 133.607 828.824 231.746C891.303 305.852 902.769 428.528 1002.02 450.87C1101.69 473.304 1185.63 376.637 1281.36 333.612Z" stroke="#17A33F" stroke-width="2"/>
<path opacity="0.336134" fill-rule="evenodd" clip-rule="evenodd" d="M1293.95 329.651C1412.49 274.072 1586.42 278.565 1632.66 162.498C1679.11 45.8899 1574.7 -69.1696 1486.98 -154.888C1416.55 -223.711 1305.6 -218.065 1209.27 -251.234C1080.02 -295.739 970.076 -425.041 835.994 -379.042C694.112 -330.366 587.309 -177.351 588.022 -38.1016C588.68 90.4238 754.504 138.661 839.14 235.331C903.049 308.327 916.808 430.676 1016.56 451.362C1116.72 472.135 1198.94 374.199 1293.95 329.651Z" stroke="#17A43F" stroke-width="2"/>
<path opacity="0.344538" fill-rule="evenodd" clip-rule="evenodd" d="M1306.44 325.774C1424.05 268.311 1598.2 269.944 1642.32 153.249C1686.64 36.0105 1580 -77.2042 1490.61 -161.385C1418.85 -228.973 1307.91 -221.512 1210.88 -253.062C1080.69 -295.394 968.255 -422.745 834.918 -374.596C693.824 -323.646 589.78 -169.051 593.085 -29.9712C596.135 98.3976 762.994 143.858 849.499 239.028C914.82 310.892 930.867 432.876 1031.08 451.902C1131.72 471.006 1212.18 371.831 1306.44 325.774Z" stroke="#17A540" stroke-width="2"/>
<path opacity="0.352941" fill-rule="evenodd" clip-rule="evenodd" d="M1318.84 321.979C1435.47 262.651 1609.8 261.422 1651.78 144.135C1693.96 26.302 1585.12 -85.0335 1494.1 -167.652C1421.01 -233.985 1310.12 -224.71 1212.42 -254.631C1081.34 -294.778 966.439 -420.139 833.887 -369.855C693.625 -316.646 592.371 -160.518 598.267 -21.6502C603.709 106.523 771.552 149.192 859.9 242.834C926.613 313.544 944.943 435.127 1045.6 452.485C1146.67 469.915 1225.35 369.532 1318.84 321.979Z" stroke="#18A540" stroke-width="2"/>
<path opacity="0.361345" fill-rule="evenodd" clip-rule="evenodd" d="M1331.13 318.268C1446.76 257.092 1621.21 253.002 1661.05 135.159C1701.07 16.7672 1590.07 -92.6551 1497.43 -173.685C1423.05 -238.743 1312.23 -227.658 1213.9 -255.941C1081.96 -293.89 964.633 -417.222 832.907 -364.819C693.519 -309.368 595.087 -151.754 603.572 -13.1404C611.404 114.798 780.18 154.663 870.344 246.748C938.428 316.283 959.036 437.427 1060.1 453.112C1161.58 468.863 1238.46 367.302 1331.13 318.268Z" stroke="#18A640" stroke-width="2"/>
<path opacity="0.369748" fill-rule="evenodd" clip-rule="evenodd" d="M1343.34 314.641C1457.92 251.636 1632.44 244.686 1670.12 126.323C1707.97 7.40785 1594.84 -100.068 1500.61 -179.485C1424.96 -243.248 1314.26 -230.356 1215.32 -256.993C1082.57 -292.733 962.847 -413.998 831.987 -359.492C693.516 -301.815 597.935 -142.763 609.007 -4.44646C619.226 123.218 788.884 160.267 880.836 250.768C950.271 319.105 973.15 439.773 1074.59 453.782C1176.45 467.849 1251.5 365.141 1343.34 314.641Z" stroke="#18A741" stroke-width="2"/>
<path opacity="0.378151" fill-rule="evenodd" clip-rule="evenodd" d="M1355.45 311.102C1468.96 246.287 1643.49 236.48 1679 117.632C1714.66 -1.76935 1599.44 -107.266 1503.66 -185.046C1426.76 -247.494 1316.21 -232.8 1216.69 -257.781C1083.16 -291.301 961.084 -410.463 831.13 -353.87C693.617 -293.985 600.916 -133.545 614.571 4.43359C627.175 131.786 797.663 166.007 891.376 254.895C962.139 322.015 987.283 442.171 1089.06 454.498C1191.27 466.877 1264.47 363.053 1355.45 311.102Z" stroke="#18A841" stroke-width="2"/>
<path opacity="0.386555" fill-rule="evenodd" clip-rule="evenodd" d="M1367.47 307.651C1479.86 241.046 1654.36 228.385 1687.68 109.089C1721.16 -10.7629 1603.88 -114.248 1506.57 -190.367C1428.44 -251.482 1318.07 -234.989 1218.01 -258.308C1083.74 -289.598 959.348 -406.621 830.34 -347.958C693.827 -285.883 604.036 -124.102 620.27 13.4952C635.254 140.496 806.52 171.879 901.965 259.128C974.036 325.01 1001.44 444.617 1103.53 455.259C1206.05 465.946 1277.38 361.037 1367.47 307.651Z" stroke="#18A841" stroke-width="2"/>
<path opacity="0.394958" fill-rule="evenodd" clip-rule="evenodd" d="M1379.4 304.289C1490.65 235.914 1665.06 220.402 1696.18 100.694C1727.46 -19.5717 1608.16 -121.014 1509.35 -195.449C1430.02 -255.212 1319.87 -236.925 1219.28 -258.575C1084.33 -287.625 957.649 -402.472 829.625 -341.758C694.154 -277.512 607.299 -114.441 626.107 22.7344C643.467 149.345 815.46 177.881 912.607 263.463C985.964 328.088 1015.61 447.109 1117.99 456.062C1220.8 465.054 1290.23 359.093 1379.4 304.289Z" stroke="#18A941" stroke-width="2"/>
<path opacity="0.403361" fill-rule="evenodd" clip-rule="evenodd" d="M1391.24 301.018C1501.31 230.894 1675.58 212.536 1704.5 92.4524C1733.56 -28.19 1612.27 -127.558 1512 -200.287C1431.49 -258.679 1321.59 -238.605 1220.52 -258.579C1084.91 -285.38 955.99 -398.017 828.99 -335.27C694.603 -268.872 610.71 -104.56 632.087 32.1511C651.817 158.334 824.483 184.013 923.304 267.903C997.925 331.25 1029.81 449.649 1132.44 456.912C1235.5 464.205 1303.02 357.224 1391.24 301.018Z" stroke="#18AA42" stroke-width="2"/>
<path opacity="0.411765" fill-rule="evenodd" clip-rule="evenodd" d="M1403 297.84C1511.86 225.988 1685.92 204.789 1712.64 84.3673C1739.48 -36.6155 1616.24 -133.88 1514.53 -204.879C1432.87 -261.884 1323.25 -240.028 1221.72 -258.32C1085.5 -282.863 954.379 -393.256 828.441 -328.495C695.178 -259.966 614.273 -94.4626 638.212 41.7422C660.307 167.458 833.594 190.272 934.058 272.446C1009.92 334.495 1044.04 452.236 1146.89 457.806C1250.17 463.399 1315.75 355.431 1403 297.84Z" stroke="#18AB42" stroke-width="2"/>
<path opacity="0.420168" fill-rule="evenodd" clip-rule="evenodd" d="M1414.67 294.756C1522.28 221.199 1696.1 197.166 1720.59 76.4417C1745.2 -44.8445 1620.05 -139.975 1516.94 -209.224C1434.15 -264.823 1324.84 -241.192 1222.89 -257.796C1086.1 -280.076 952.817 -388.191 827.98 -321.435C695.881 -250.796 617.99 -84.1516 644.483 51.5058C668.936 176.716 842.791 196.66 944.868 277.09C1021.95 337.824 1058.28 454.871 1161.32 458.746C1264.79 462.637 1328.42 353.714 1414.67 294.756Z" stroke="#18AB42" stroke-width="2"/>
<path opacity="0.428571" fill-rule="evenodd" clip-rule="evenodd" d="M1426.26 291.765C1532.59 216.524 1706.1 189.665 1728.37 68.6757C1750.75 -52.8771 1623.72 -145.845 1519.23 -213.322C1435.34 -267.499 1326.38 -242.1 1224.04 -257.012C1086.72 -277.02 951.313 -382.824 827.615 -314.094C696.721 -241.366 621.867 -73.632 650.906 61.4366C677.709 186.103 852.08 203.17 955.738 281.833C1034.01 341.232 1072.56 457.551 1175.75 459.729C1279.38 461.916 1341.04 352.073 1426.26 291.765Z" stroke="#19AC43" stroke-width="2"/>
<path opacity="0.436975" fill-rule="evenodd" clip-rule="evenodd" d="M1437.77 288.874C1542.79 211.972 1715.94 182.295 1735.98 61.0766C1756.11 -60.7057 1627.25 -151.483 1521.42 -217.168C1436.45 -269.906 1327.87 -242.746 1225.17 -255.961C1087.36 -273.691 949.873 -377.152 827.351 -306.469C697.703 -231.675 625.907 -62.902 657.485 71.5366C686.63 195.622 861.463 209.806 966.671 286.678C1046.11 344.725 1086.86 460.278 1190.18 460.76C1293.93 461.243 1353.6 350.512 1437.77 288.874Z" stroke="#19AD43" stroke-width="2"/>
<path opacity="0.445378" fill-rule="evenodd" clip-rule="evenodd" d="M1449.2 286.076C1552.87 207.538 1725.62 175.051 1743.42 53.6415C1761.3 -68.3333 1630.64 -156.891 1523.5 -220.765C1437.48 -272.048 1329.32 -243.136 1226.28 -254.65C1088.03 -270.098 948.504 -371.184 827.196 -298.569C698.832 -221.731 630.118 -51.9705 664.223 81.7972C695.702 205.263 870.944 216.561 977.669 291.618C1058.26 348.295 1101.19 463.049 1204.6 461.833C1308.45 460.613 1366.11 349.027 1449.2 286.076Z" stroke="#19AE43" stroke-width="2"/>
<path opacity="0.453782" fill-rule="evenodd" clip-rule="evenodd" d="M1460.55 283.38C1562.85 203.228 1735.13 167.942 1750.69 46.3778C1766.31 -75.7523 1633.9 -162.065 1525.48 -224.106C1438.43 -273.919 1330.72 -243.265 1227.39 -253.073C1088.73 -266.233 947.209 -364.914 827.151 -290.39C700.111 -211.531 634.499 -40.8353 671.122 92.2208C704.924 215.03 880.522 223.438 988.733 296.658C1070.44 351.947 1115.54 465.865 1219.02 462.953C1322.93 460.029 1378.56 347.624 1460.55 283.38Z" stroke="#19AE43" stroke-width="2"/>
<path opacity="0.462185" fill-rule="evenodd" clip-rule="evenodd" d="M1471.83 280.781C1572.72 199.041 1744.49 160.966 1757.79 39.2841C1771.16 -82.964 1637.03 -167.005 1527.37 -227.196C1439.32 -275.522 1332.09 -243.134 1228.48 -251.235C1089.47 -262.104 945.994 -358.349 827.224 -281.939C701.545 -201.083 639.056 -29.5037 678.185 102.8C714.301 224.915 890.201 230.43 999.864 301.791C1082.67 355.675 1129.93 468.724 1233.44 464.117C1337.38 459.49 1390.96 346.298 1471.83 280.781Z" stroke="#19AF44" stroke-width="2"/>
<path opacity="0.470588" fill-rule="evenodd" clip-rule="evenodd" d="M1483.03 278.285C1582.48 194.982 1753.69 154.129 1764.74 32.3669C1775.84 -89.962 1640.03 -171.705 1529.16 -230.027C1440.14 -276.853 1333.42 -242.742 1229.58 -249.132C1090.25 -257.706 944.863 -351.487 827.417 -273.213C703.138 -190.386 643.79 -17.9743 685.414 113.537C723.832 234.92 899.981 237.541 1011.06 307.02C1094.94 359.484 1144.34 471.629 1247.85 465.327C1351.8 458.999 1403.31 345.056 1483.03 278.285Z" stroke="#19B044" stroke-width="2"/>
<path opacity="0.478992" fill-rule="evenodd" clip-rule="evenodd" d="M1494.16 275.891C1592.14 191.048 1762.73 147.431 1771.52 25.6256C1780.36 -96.7469 1642.92 -176.167 1530.87 -232.603C1440.9 -277.915 1334.73 -242.089 1230.69 -246.768C1091.08 -253.045 943.827 -344.332 827.739 -264.218C704.9 -179.444 648.711 -6.25395 692.816 124.425C733.526 245.04 909.869 244.766 1022.34 312.342C1107.26 363.369 1158.79 474.576 1262.27 466.581C1366.18 458.554 1415.62 343.894 1494.16 275.891Z" stroke="#19B144" stroke-width="2"/>
<path opacity="0.487395" fill-rule="evenodd" clip-rule="evenodd" d="M1505.21 273.601C1601.7 187.246 1771.62 140.877 1778.15 19.0656C1784.72 -103.313 1645.69 -180.387 1532.49 -234.919C1441.61 -278.702 1336.02 -241.174 1231.8 -244.139C1091.96 -248.117 942.886 -336.882 828.194 -254.954C706.83 -168.259 653.817 5.65738 700.391 135.464C743.379 255.274 919.863 252.104 1033.68 317.757C1119.63 367.333 1173.27 477.567 1276.68 467.883C1380.53 458.158 1427.88 342.817 1505.21 273.601Z" stroke="#19B145" stroke-width="2"/>
<path opacity="0.495798" fill-rule="evenodd" clip-rule="evenodd" d="M1516.2 271.412C1611.16 183.571 1780.36 134.465 1784.63 12.6843C1788.92 -109.664 1648.34 -184.367 1534.04 -236.979C1442.27 -279.22 1337.29 -240.001 1232.93 -241.251C1092.9 -242.929 942.048 -329.146 828.785 -245.427C708.934 -156.838 659.113 17.7516 708.142 146.646C753.395 265.614 929.966 259.551 1045.1 323.261C1132.04 371.369 1187.77 480.598 1291.1 469.226C1394.85 457.807 1440.09 341.82 1516.2 271.412Z" stroke="#19B245" stroke-width="2"/>
<path opacity="0.504202" fill-rule="evenodd" clip-rule="evenodd" d="M1527.13 269.329C1620.53 180.028 1788.95 128.2 1790.96 6.48685C1792.98 -115.793 1650.9 -188.104 1535.52 -238.779C1442.88 -279.465 1338.54 -238.567 1234.07 -238.102C1093.9 -237.479 941.319 -321.121 829.52 -235.638C711.218 -145.181 664.606 30.0283 716.074 157.972C763.578 276.062 940.183 267.106 1056.6 328.854C1144.5 375.48 1202.32 483.669 1305.51 470.614C1409.14 457.505 1452.26 340.906 1527.13 269.329Z" stroke="#1AB345" stroke-width="2"/>
<path opacity="0.512605" fill-rule="evenodd" clip-rule="evenodd" d="M1537.98 267.352C1629.8 176.619 1797.4 122.085 1797.15 0.47666C1796.89 -121.697 1653.34 -191.594 1536.93 -240.317C1443.46 -279.436 1339.79 -236.871 1235.24 -234.692C1094.97 -231.767 940.702 -312.81 830.402 -225.588C713.685 -133.291 670.294 42.4849 724.186 169.438C773.927 286.615 950.512 274.769 1068.17 334.535C1157.02 379.665 1216.9 486.783 1319.93 472.049C1423.4 457.252 1464.39 340.078 1537.98 267.352Z" stroke="#1AB445" stroke-width="2"/>
<path opacity="0.521008" fill-rule="evenodd" clip-rule="evenodd" d="M1548.78 265.485C1638.98 173.348 1805.71 116.123 1803.19 -5.3432C1800.66 -127.375 1655.69 -194.835 1538.27 -241.591C1444 -279.131 1341.04 -234.913 1236.45 -231.019C1096.1 -225.795 940.205 -304.213 831.436 -215.278C716.34 -121.17 676.185 55.119 732.484 181.044C784.447 297.271 960.958 282.539 1079.83 340.306C1169.59 383.925 1231.51 489.939 1334.36 473.529C1437.64 457.051 1476.48 339.336 1548.78 265.485Z" stroke="#1AB446" stroke-width="2"/>
<path opacity="0.529412" fill-rule="evenodd" clip-rule="evenodd" d="M1559.51 263.725C1648.08 170.211 1813.87 110.313 1809.09 -10.9737C1804.29 -132.825 1657.95 -197.828 1539.56 -242.604C1444.51 -278.554 1342.29 -232.695 1237.68 -227.088C1097.32 -219.566 939.831 -295.335 832.627 -204.715C719.187 -108.824 682.279 67.9243 740.968 192.782C795.137 308.024 971.521 290.411 1091.56 346.16C1182.21 388.257 1246.15 493.133 1348.78 475.054C1451.84 456.898 1488.52 338.679 1559.51 263.725Z" stroke="#1AB546" stroke-width="2"/>
<path opacity="0.537815" fill-rule="evenodd" clip-rule="evenodd" d="M1570.19 262.071C1657.09 167.209 1821.91 104.657 1814.87 -16.4133C1807.79 -138.048 1660.12 -200.575 1540.8 -243.356C1445 -277.704 1343.55 -230.219 1238.96 -222.901C1098.62 -213.082 939.59 -286.18 833.983 -193.903C722.234 -96.2582 688.584 80.8961 749.646 204.648C806.004 318.87 982.206 298.382 1103.39 352.096C1194.89 392.657 1260.84 496.365 1363.22 476.621C1466.02 456.794 1500.54 338.107 1570.19 262.071Z" stroke="#1AB646" stroke-width="2"/>
<path opacity="0.546219" fill-rule="evenodd" clip-rule="evenodd" d="M1580.81 260.529C1666.01 164.347 1829.8 99.1603 1820.5 -21.6577C1811.16 -143.038 1662.2 -203.069 1541.98 -243.843C1445.47 -276.579 1344.81 -227.482 1240.27 -218.456C1100 -206.344 939.483 -276.748 835.506 -182.841C725.48 -83.4724 695.1 94.0336 758.515 216.643C817.046 329.81 993.012 306.452 1115.29 358.116C1207.63 397.128 1275.56 499.636 1377.66 478.233C1480.18 456.74 1512.51 337.621 1580.81 260.529Z" stroke="#1AB747" stroke-width="2"/>
<path opacity="0.554622" fill-rule="evenodd" clip-rule="evenodd" d="M1591.37 259.097C1674.86 161.626 1837.57 93.8236 1826.01 -26.7048C1814.41 -147.794 1664.2 -205.311 1543.13 -244.065C1445.92 -275.18 1346.1 -224.486 1241.64 -213.753C1101.48 -199.351 939.515 -267.04 837.199 -171.533C728.932 -70.47 701.83 107.334 767.579 228.763C828.265 340.84 1003.94 314.619 1127.29 364.217C1220.43 401.669 1290.32 502.945 1392.1 479.89C1494.31 456.739 1524.45 337.224 1591.37 259.097Z" stroke="#1AB747" stroke-width="2"/>
<path opacity="0.563025" fill-rule="evenodd" clip-rule="evenodd" d="M1601.88 257.777C1683.62 159.045 1845.21 88.6479 1831.4 -31.554C1817.53 -152.316 1666.13 -207.301 1544.23 -244.023C1446.36 -273.506 1347.4 -221.231 1243.06 -208.795C1103.05 -192.109 939.69 -257.061 839.067 -159.983C732.591 -57.257 708.775 120.79 776.839 241.002C839.66 351.956 1015 322.88 1139.37 370.397C1233.28 406.277 1305.12 506.29 1406.55 481.591C1508.42 456.787 1536.36 336.913 1601.88 257.777Z" stroke="#1AB847" stroke-width="2"/>
<path opacity="0.571429" fill-rule="evenodd" clip-rule="evenodd" d="M1612.34 256.568C1692.31 156.606 1852.72 83.6355 1836.66 -36.2034C1820.53 -156.6 1667.99 -209.038 1545.31 -243.717C1446.81 -271.56 1348.74 -217.719 1244.54 -203.584C1104.72 -184.618 940.02 -246.814 841.12 -148.193C736.467 -43.8361 715.945 134.4 786.302 253.358C851.24 363.155 1026.18 331.234 1151.54 376.654C1246.2 410.952 1319.95 509.672 1421.02 483.335C1522.5 456.887 1548.24 336.69 1612.34 256.568Z" stroke="#1AB947" stroke-width="2"/>
<path opacity="0.579832" fill-rule="evenodd" clip-rule="evenodd" d="M1622.74 255.471C1700.92 154.31 1860.11 78.7885 1841.81 -40.6509C1823.42 -160.646 1669.78 -210.52 1546.35 -243.145C1447.25 -269.339 1350.1 -213.949 1246.08 -198.119C1106.5 -176.879 940.503 -236.301 843.357 -136.168C740.559 -30.2108 723.337 148.16 795.966 265.828C863.001 374.435 1037.49 339.677 1163.8 382.988C1259.17 415.692 1334.83 513.09 1435.49 485.123C1536.56 457.039 1560.08 336.556 1622.74 255.471Z" stroke="#1BBA48" stroke-width="2"/>
<path opacity="0.588235" fill-rule="evenodd" clip-rule="evenodd" d="M1633.11 254.49C1709.47 152.159 1867.38 74.11 1846.84 -44.8935C1826.21 -164.451 1671.51 -211.745 1547.37 -242.307C1447.7 -266.844 1351.5 -209.922 1247.69 -192.402C1108.39 -168.894 941.148 -225.523 845.785 -123.909C744.874 -16.3841 730.956 162.067 805.835 278.41C874.948 385.792 1048.94 348.209 1176.15 389.397C1272.22 420.498 1349.75 516.543 1449.97 486.955C1550.61 457.244 1571.9 336.511 1633.11 254.49Z" stroke="#1BBA48" stroke-width="2"/>
<path opacity="0.596639" fill-rule="evenodd" clip-rule="evenodd" d="M1643.43 253.623C1717.95 150.155 1874.54 69.6014 1851.77 -48.93C1828.89 -168.013 1673.18 -212.714 1548.37 -241.203C1448.16 -264.076 1352.95 -205.638 1249.37 -186.434C1110.39 -160.666 941.96 -214.485 848.408 -111.42C749.414 -2.35981 738.807 176.118 815.913 291.099C887.081 397.225 1060.51 356.827 1188.6 395.88C1285.32 425.369 1364.71 520.032 1464.46 488.832C1564.63 457.502 1583.7 336.556 1643.43 253.623Z" stroke="#1BBB48" stroke-width="2"/>
<path opacity="0.605042" fill-rule="evenodd" clip-rule="evenodd" d="M1653.7 252.868C1726.36 148.294 1881.58 65.2606 1856.58 -52.7625C1831.47 -171.335 1674.8 -213.428 1549.36 -239.836C1448.64 -261.038 1354.43 -201.103 1251.13 -180.22C1112.52 -152.199 942.942 -203.191 851.23 -98.7074C754.184 11.8543 746.889 190.304 826.199 303.888C899.401 408.725 1072.23 365.526 1201.15 402.431C1298.5 430.299 1379.71 523.551 1478.96 490.749C1578.63 457.81 1595.46 336.688 1653.7 252.868Z" stroke="#1BBC49" stroke-width="2"/>
<path opacity="0.613445" fill-rule="evenodd" clip-rule="evenodd" d="M1663.93 252.23C1734.7 146.581 1888.51 61.093 1861.3 -56.3859C1833.96 -174.412 1676.37 -213.885 1550.34 -238.203C1449.14 -257.727 1355.97 -196.314 1252.97 -173.758C1114.76 -143.493 944.098 -191.643 854.255 -85.7719C759.186 26.2578 755.206 204.625 836.695 316.778C911.909 420.295 1084.07 374.307 1213.79 409.053C1311.74 435.291 1394.75 527.104 1493.48 492.709C1592.62 458.171 1607.21 336.91 1663.93 252.23Z" stroke="#1BBD49" stroke-width="2"/>
<path opacity="0.621849" fill-rule="evenodd" clip-rule="evenodd" d="M1674.13 251.706C1742.99 145.015 1895.33 57.0985 1865.91 -59.8004C1836.36 -177.244 1677.9 -214.085 1551.31 -236.305C1449.67 -254.146 1357.56 -191.273 1254.89 -167.051C1117.14 -134.551 945.436 -179.845 857.489 -72.6187C764.425 40.8449 763.761 219.075 847.405 329.763C924.608 431.927 1096.06 383.165 1226.53 415.743C1325.05 440.342 1409.84 530.688 1508.01 494.711C1606.59 458.585 1618.93 337.222 1674.13 251.706Z" stroke="#1BBD49" stroke-width="2"/>
<path opacity="0.630252" fill-rule="evenodd" clip-rule="evenodd" d="M1684.29 251.3C1751.22 143.599 1902.06 53.2817 1870.44 -63.0016C1838.67 -179.826 1679.4 -214.024 1552.29 -234.141C1450.23 -250.293 1359.22 -185.978 1256.91 -160.098C1119.65 -125.374 946.961 -167.797 860.936 -59.2481C769.907 55.6148 772.559 233.654 858.333 342.843C937.501 443.624 1108.19 392.102 1239.37 422.5C1338.43 445.454 1424.97 534.305 1522.55 496.758C1620.54 459.053 1630.64 337.626 1684.29 251.3Z" stroke="#1BBE49" stroke-width="2"/>
<path opacity="0.638655" fill-rule="evenodd" clip-rule="evenodd" d="M1694.41 251.011C1759.4 142.334 1908.67 49.6419 1874.86 -65.9905C1840.9 -182.161 1680.86 -213.705 1553.27 -231.712C1450.82 -246.17 1360.93 -180.434 1259.03 -152.904C1122.29 -115.965 948.673 -155.504 864.597 -45.6664C775.63 70.5609 781.598 248.354 869.474 356.012C950.583 455.378 1120.45 401.112 1252.31 429.322C1351.88 450.624 1440.15 537.953 1537.11 498.846C1634.48 459.576 1642.32 338.12 1694.41 251.011Z" stroke="#1BBF4A" stroke-width="2"/>
<path opacity="0.647059" fill-rule="evenodd" clip-rule="evenodd" d="M1704.51 250.838C1767.52 141.216 1915.2 46.1785 1879.21 -68.7676C1843.05 -184.249 1682.29 -213.129 1554.26 -229.021C1451.46 -241.78 1362.72 -174.643 1261.24 -145.471C1125.08 -106.329 950.584 -142.973 868.482 -31.8789C781.605 85.6773 790.886 263.171 880.839 369.264C963.864 467.186 1132.86 410.192 1265.36 436.205C1365.4 455.848 1455.37 541.629 1551.69 500.974C1648.4 460.15 1654 338.702 1704.51 250.838Z" stroke="#1BC04A" stroke-width="2"/>
<path opacity="0.655462" fill-rule="evenodd" clip-rule="evenodd" d="M1714.57 250.783C1775.6 140.252 1921.63 42.8972 1883.47 -71.3277C1845.13 -186.084 1683.7 -212.293 1555.27 -226.064C1452.15 -237.121 1364.58 -168.603 1263.56 -137.798C1128.02 -96.4645 952.693 -130.202 872.591 -17.886C787.829 100.963 800.421 278.104 892.422 382.599C977.339 479.047 1145.42 419.343 1278.51 443.151C1379 461.129 1470.64 545.336 1566.28 503.146C1662.31 460.779 1665.65 339.378 1714.57 250.783Z" stroke="#1CC04A" stroke-width="2"/>
<path opacity="0.663866" fill-rule="evenodd" clip-rule="evenodd" d="M1724.6 250.846C1783.63 139.438 1927.97 39.796 1887.65 -73.6728C1847.14 -187.67 1685.09 -211.198 1556.3 -222.845C1452.89 -232.197 1366.52 -162.318 1265.99 -129.89C1131.1 -86.3775 955.006 -117.198 876.927 -3.6942C794.307 116.412 810.206 293.145 904.229 396.011C991.01 490.955 1158.12 428.559 1291.76 450.155C1392.67 466.463 1485.95 549.07 1580.89 505.357C1676.21 461.462 1677.29 340.144 1724.6 250.846Z" stroke="#1CC14B" stroke-width="2"/>
<path opacity="0.672269" fill-rule="evenodd" clip-rule="evenodd" d="M1734.61 251.028C1791.61 138.777 1934.21 36.8786 1891.75 -75.7996C1849.09 -189.002 1686.47 -209.843 1557.35 -219.362C1453.68 -227.005 1368.54 -155.788 1268.53 -121.746C1134.34 -76.0682 957.525 -103.963 881.494 10.6945C801.041 132.021 820.242 308.292 916.257 409.498C1004.88 502.91 1170.96 437.841 1305.12 457.218C1406.42 471.85 1501.31 552.832 1595.51 507.61C1690.1 462.2 1688.92 341.001 1734.61 251.028Z" stroke="#1CC24B" stroke-width="2"/>
<path opacity="0.680672" fill-rule="evenodd" clip-rule="evenodd" d="M1744.6 251.328C1799.55 138.268 1940.38 34.144 1895.79 -77.7093C1850.98 -190.083 1687.84 -208.23 1558.43 -215.619C1454.54 -221.551 1370.65 -149.017 1271.2 -113.371C1137.74 -65.542 960.26 -90.5016 886.3 25.2739C808.037 147.784 830.534 323.54 928.512 423.055C1018.94 514.905 1183.96 447.183 1318.58 464.336C1420.24 477.288 1516.72 556.62 1610.15 509.903C1703.98 462.991 1700.55 341.949 1744.6 251.328Z" stroke="#1CC34B" stroke-width="2"/>
<path opacity="0.689076" fill-rule="evenodd" clip-rule="evenodd" d="M1754.56 251.747C1807.46 137.913 1946.47 31.5941 1899.75 -79.4001C1852.82 -190.911 1689.21 -206.359 1559.56 -211.614C1455.46 -215.834 1372.86 -142.005 1273.98 -104.766C1141.31 -54.8004 963.215 -76.8176 891.348 40.041C815.3 163.697 841.087 338.884 940.998 436.678C1033.21 526.939 1197.1 456.585 1332.16 471.508C1434.14 482.776 1532.18 560.434 1624.82 512.236C1717.85 463.836 1712.16 342.988 1754.56 251.747Z" stroke="#1CC34B" stroke-width="2"/>
<path opacity="0.697479" fill-rule="evenodd" clip-rule="evenodd" d="M1764.51 252.283C1815.33 137.71 1952.47 29.2291 1903.66 -80.8724C1854.61 -191.486 1690.57 -204.23 1560.72 -207.351C1456.46 -209.857 1375.16 -134.755 1276.89 -95.9351C1145.04 -43.8476 966.388 -62.9158 896.636 54.9904C822.826 179.755 851.895 354.32 953.709 450.362C1047.68 539.008 1210.4 466.042 1345.84 478.73C1448.12 488.312 1547.68 564.272 1639.5 514.607C1731.71 464.735 1723.77 344.117 1764.51 252.283Z" stroke="#1CC44C" stroke-width="2"/>
<path opacity="0.705882" fill-rule="evenodd" clip-rule="evenodd" d="M1774.43 252.941C1823.17 137.663 1958.4 27.0539 1907.5 -82.1213C1856.36 -191.805 1691.94 -201.841 1561.92 -202.826C1457.53 -203.617 1377.56 -127.265 1279.94 -86.8762C1148.94 -32.683 969.789 -48.7963 902.173 70.1214C830.624 195.956 862.965 369.846 966.651 464.108C1062.35 551.11 1223.84 475.555 1359.64 486.005C1462.18 493.896 1563.24 568.136 1654.21 517.02C1745.56 465.69 1735.37 345.34 1774.43 252.941Z" stroke="#1CC54C" stroke-width="2"/>
<path opacity="0.714286" fill-rule="evenodd" clip-rule="evenodd" d="M1784.35 253.718C1830.97 137.77 1964.27 25.0662 1911.29 -83.1493C1858.06 -191.869 1693.32 -199.194 1563.17 -198.043C1458.68 -197.119 1380.07 -119.541 1283.11 -77.5949C1153.02 -21.3124 973.418 -34.4658 907.959 85.4272C838.693 212.294 874.296 385.456 979.822 477.908C1077.22 563.24 1237.44 485.12 1373.54 493.329C1476.31 499.527 1578.84 572.023 1668.94 519.471C1759.41 466.7 1746.97 346.653 1784.35 253.718Z" stroke="#1CC64C" stroke-width="2"/>
<path opacity="0.722689" fill-rule="evenodd" clip-rule="evenodd" d="M1794.25 254.613C1838.76 138.032 1970.06 23.267 1915.02 -83.956C1859.73 -191.678 1694.72 -196.29 1564.49 -193.004C1459.92 -190.365 1382.69 -111.585 1286.43 -68.094C1157.28 -9.7394 977.284 -19.929 914.002 100.903C847.039 228.763 885.895 401.144 993.229 491.759C1092.3 575.395 1251.2 494.733 1387.56 500.697C1490.53 505.201 1594.49 575.932 1683.69 521.96C1773.26 467.764 1758.57 348.057 1794.25 254.613Z" stroke="#1CC64D" stroke-width="2"/>
<path opacity="0.731092" fill-rule="evenodd" clip-rule="evenodd" d="M1804.14 255.628C1846.51 138.448 1975.79 21.6577 1918.71 -84.54C1861.37 -191.232 1696.14 -193.13 1565.85 -187.709C1461.25 -183.356 1385.42 -103.397 1289.9 -58.3754C1161.72 2.03363 981.387 -5.18906 920.301 116.545C855.662 245.36 897.758 416.907 1006.87 505.657C1107.57 587.572 1265.1 504.392 1401.69 508.111C1504.84 510.919 1610.2 579.862 1698.46 524.487C1787.09 468.882 1770.17 349.552 1804.14 255.628Z" stroke="#1DC74D" stroke-width="2"/>
<path opacity="0.739496" fill-rule="evenodd" clip-rule="evenodd" d="M1814.02 256.763C1854.25 139.02 1981.46 20.2391 1922.36 -84.901C1862.98 -190.531 1697.58 -189.713 1567.29 -182.159C1462.68 -176.094 1388.28 -94.9808 1293.51 -48.4416C1166.35 14.0034 985.733 9.74983 926.862 132.349C864.567 262.079 909.89 432.741 1020.74 519.598C1123.06 599.767 1279.17 514.095 1415.94 515.567C1519.22 516.678 1625.95 583.813 1713.26 527.052C1800.93 470.054 1781.77 351.138 1814.02 256.763Z" stroke="#1DC84D" stroke-width="2"/>
<path opacity="0.747899" fill-rule="evenodd" clip-rule="evenodd" d="M1823.9 258.017C1861.97 139.747 1987.08 19.0123 1925.97 -85.0383C1864.58 -189.573 1699.05 -186.041 1568.79 -176.356C1464.21 -168.581 1391.26 -86.3375 1297.28 -38.2952C1171.18 26.1668 990.327 24.8836 933.689 148.31C873.756 278.916 922.293 448.64 1034.85 533.579C1138.74 611.977 1293.39 523.839 1430.31 523.063C1533.69 522.478 1641.76 587.784 1728.08 529.654C1814.77 471.281 1793.38 352.814 1823.9 258.017Z" stroke="#1DC94D" stroke-width="2"/>
<path opacity="0.756303" fill-rule="evenodd" clip-rule="evenodd" d="M1833.77 259.391C1869.67 140.63 1992.64 17.9778 1929.54 -84.9514C1866.15 -188.36 1700.55 -182.114 1570.37 -170.302C1465.85 -160.818 1394.36 -77.4698 1301.2 -27.9389C1176.19 38.5203 995.169 40.208 940.781 164.424C883.229 295.866 934.965 464.601 1049.2 547.596C1154.63 624.198 1307.77 533.621 1444.78 530.599C1548.24 528.317 1657.62 591.775 1742.93 532.293C1828.6 472.563 1804.99 354.582 1833.77 259.391Z" stroke="#1DC94E" stroke-width="2"/>
<path opacity="0.764706" fill-rule="evenodd" clip-rule="evenodd" d="M1843.64 260.885C1877.36 141.669 1998.15 17.1371 1933.08 -84.6395C1867.72 -186.89 1702.1 -177.932 1572.03 -163.996C1467.59 -152.807 1397.6 -68.3793 1305.28 -17.3749C1181.41 51.0614 1000.27 55.7194 948.145 180.688C892.991 312.926 947.91 480.62 1063.78 561.645C1170.73 636.43 1322.31 543.441 1459.38 538.172C1562.88 534.194 1673.53 595.784 1757.81 534.969C1842.43 473.9 1816.61 356.44 1843.64 260.885Z" stroke="#1DCA4E" stroke-width="2"/>
<path opacity="0.773109" fill-rule="evenodd" clip-rule="evenodd" d="M1853.51 262.498C1885.05 142.864 2003.61 16.49 1936.6 -84.1029C1869.28 -185.164 1703.69 -173.497 1573.77 -157.441C1469.46 -144.55 1400.97 -59.0691 1309.53 -6.60677C1186.83 63.7858 1005.62 71.4126 955.782 197.095C903.043 330.089 961.128 496.691 1078.6 575.721C1187.03 648.666 1337.01 553.293 1474.09 545.78C1577.61 540.107 1689.49 599.811 1772.71 537.681C1856.27 475.292 1828.24 358.389 1853.51 262.498Z" stroke="#1DCB4E" stroke-width="2"/>
<path opacity="0.781513" fill-rule="evenodd" clip-rule="evenodd" d="M1863.39 264.229C1892.72 144.212 2009.03 16.035 1940.09 -83.3436C1870.84 -183.185 1705.33 -168.812 1575.6 -150.641C1471.44 -136.052 1404.49 -49.5438 1313.94 4.36051C1192.45 76.6878 1011.24 87.2812 963.696 213.64C913.389 347.348 974.623 512.808 1093.67 589.82C1203.54 660.901 1351.87 563.175 1488.93 553.419C1592.42 546.053 1705.51 603.852 1787.64 540.426C1870.11 476.736 1839.88 360.426 1863.39 264.229Z" stroke="#1DCC4F" stroke-width="2"/>
<path opacity="0.789916" fill-rule="evenodd" clip-rule="evenodd" d="M1873.27 266.08C1900.39 145.717 2014.41 15.7758 1943.57 -82.3583C1872.4 -180.949 1707.01 -163.875 1577.52 -143.595C1473.54 -127.312 1408.15 -39.8027 1318.53 15.5271C1198.29 89.7671 1017.12 103.324 971.888 230.32C924.028 364.702 988.391 528.969 1108.97 603.939C1220.26 673.136 1366.89 573.085 1503.88 561.09C1607.32 552.033 1721.58 607.909 1802.59 543.208C1883.95 478.235 1851.53 362.554 1873.27 266.08Z" stroke="#1DCC4F" stroke-width="2"/>
<path opacity="0.798319" fill-rule="evenodd" clip-rule="evenodd" d="M1883.16 268.05C1908.06 147.379 2019.76 15.7125 1947.03 -81.1471C1873.96 -178.458 1708.76 -158.688 1579.54 -136.304C1475.78 -118.333 1411.96 -29.8488 1323.3 26.8897C1204.33 103.02 1023.27 119.536 980.363 247.13C934.963 382.146 1002.44 545.17 1124.51 618.076C1237.18 685.366 1382.07 583.021 1518.95 568.791C1622.31 558.046 1737.7 611.983 1817.58 546.024C1897.79 479.79 1863.19 364.771 1883.16 268.05Z" stroke="#1DCD4F" stroke-width="2"/>
<path opacity="0.806723" fill-rule="evenodd" clip-rule="evenodd" d="M1893.05 270.137C1915.74 149.194 2025.08 15.8427 1950.48 -79.7129C1875.54 -175.713 1710.58 -153.254 1581.66 -128.774C1478.15 -109.119 1415.92 -19.6876 1328.24 38.4424C1210.6 116.439 1029.69 135.91 989.124 264.064C946.199 399.672 1016.76 561.403 1140.29 632.222C1254.31 697.586 1397.41 592.978 1534.14 576.517C1637.39 564.087 1753.88 616.068 1832.6 548.872C1911.64 481.396 1874.87 367.077 1893.05 270.137Z" stroke="#1DCE4F" stroke-width="2"/>
<path opacity="0.815126" fill-rule="evenodd" clip-rule="evenodd" d="M1902.96 272.345C1923.41 151.166 2030.36 16.1714 1953.93 -78.0512C1877.14 -172.712 1712.45 -147.569 1583.88 -121C1480.66 -99.6687 1420.04 -9.31698 1333.37 50.1866C1217.08 130.027 1036.38 152.445 998.169 281.12C957.732 417.28 1031.36 577.669 1156.31 646.379C1271.64 709.797 1412.92 602.958 1549.45 584.27C1652.55 570.159 1770.11 620.169 1847.64 551.757C1925.5 483.06 1886.57 369.473 1902.96 272.345Z" stroke="#1ECF50" stroke-width="2"/>
<path opacity="0.823529" fill-rule="evenodd" clip-rule="evenodd" d="M1912.89 274.669C1931.1 153.292 2035.62 16.6939 1957.37 -76.167C1878.76 -169.46 1714.4 -141.642 1586.22 -112.992C1483.31 -89.9893 1424.32 1.25517 1338.69 62.1144C1223.78 143.774 1043.36 169.133 1007.51 298.29C969.569 434.959 1046.25 593.957 1172.58 660.538C1289.18 721.991 1428.58 612.953 1564.89 592.045C1667.81 576.257 1786.4 624.28 1862.72 554.673C1939.36 484.775 1898.29 371.956 1912.89 274.669Z" stroke="#1ECF50" stroke-width="2"/>
<path opacity="0.831933" fill-rule="evenodd" clip-rule="evenodd" d="M1922.83 277.109C1938.79 155.571 2040.86 17.412 1960.82 -74.0587C1880.41 -165.955 1716.43 -135.47 1588.68 -104.748C1486.1 -80.0817 1428.77 12.0277 1344.2 74.2239C1230.72 157.677 1050.61 185.97 1017.13 315.569C981.709 452.706 1061.41 610.265 1189.09 674.696C1306.93 734.165 1444.42 622.962 1580.45 599.839C1683.16 582.379 1802.74 628.401 1877.83 557.619C1953.23 486.542 1910.03 374.526 1922.83 277.109Z" stroke="#1ED050" stroke-width="2"/>
<path opacity="0.840336" fill-rule="evenodd" clip-rule="evenodd" d="M1932.78 279.669C1946.5 158.007 2046.09 18.3281 1964.28 -71.7247C1882.08 -162.197 1718.54 -129.054 1591.25 -96.2689C1489.05 -69.9466 1433.38 22.9998 1349.9 86.514C1237.88 171.736 1058.15 202.954 1027.06 332.955C994.154 470.519 1076.85 626.59 1205.83 688.852C1324.88 746.318 1460.42 632.985 1596.13 607.655C1698.6 588.528 1819.13 632.534 1892.97 560.6C1967.11 488.365 1921.79 377.185 1932.78 279.669Z" stroke="#1ED151" stroke-width="2"/>
<path opacity="0.84874" fill-rule="evenodd" clip-rule="evenodd" d="M1942.76 282.346C1954.23 160.596 2051.3 19.4404 1967.74 -69.167C1883.8 -158.187 1720.74 -122.396 1593.95 -87.5587C1492.16 -59.5882 1438.17 34.1667 1355.8 98.9797C1245.27 185.944 1065.98 220.078 1037.28 350.442C1006.91 488.39 1092.58 642.927 1222.83 703C1343.04 758.447 1476.58 643.016 1611.93 615.487C1714.14 594.699 1835.59 636.676 1908.14 563.611C1981.01 490.241 1933.57 379.932 1942.76 282.346Z" stroke="#1ED251" stroke-width="2"/>
<path opacity="0.857143" fill-rule="evenodd" clip-rule="evenodd" d="M1952.76 285.135C1961.98 163.335 2056.5 20.746 1971.22 -66.3892C1885.55 -153.93 1723.02 -115.502 1596.78 -78.6228C1495.42 -49.0127 1443.14 45.5224 1361.9 111.614C1252.9 200.295 1074.09 237.334 1047.8 368.022C1019.97 506.311 1108.59 659.267 1240.06 717.133C1361.41 770.543 1492.91 653.051 1627.86 623.33C1729.76 600.888 1852.09 640.823 1923.35 566.65C1994.91 492.167 1945.38 382.762 1952.76 285.135Z" stroke="#1ED251" stroke-width="2"/>
<path opacity="0.865546" fill-rule="evenodd" clip-rule="evenodd" d="M1962.79 288.044C1969.74 166.231 2061.69 22.2518 1974.73 -63.3845C1887.36 -149.419 1725.4 -108.367 1599.74 -69.4563C1498.85 -38.2156 1448.29 57.0707 1368.21 124.422C1260.77 214.791 1082.5 254.724 1058.62 385.696C1033.34 524.285 1124.88 675.612 1257.54 731.254C1379.98 782.611 1509.4 663.093 1643.91 631.191C1745.48 607.101 1868.66 644.982 1938.59 569.723C2008.82 494.15 1957.22 385.681 1962.79 288.044Z" stroke="#1ED351" stroke-width="2"/>
<path opacity="0.87395" fill-rule="evenodd" clip-rule="evenodd" d="M1972.84 291.067C1977.54 169.277 2066.88 23.952 1978.25 -60.1593C1889.2 -144.662 1727.88 -100.997 1602.84 -60.0674C1502.45 -27.2056 1453.61 68.8029 1374.73 137.392C1268.88 229.423 1091.2 272.238 1069.73 403.453C1047.02 542.301 1141.45 691.953 1275.25 745.354C1398.75 794.642 1526.06 673.135 1660.08 639.06C1761.29 613.33 1885.27 649.146 1953.87 572.824C2022.75 496.183 1969.09 388.685 1972.84 291.067Z" stroke="#1ED452" stroke-width="2"/>
<path opacity="0.882353" fill-rule="evenodd" clip-rule="evenodd" d="M1982.93 294.206C1985.35 172.477 2072.07 25.8498 1981.8 -56.7109C1891.11 -139.656 1730.47 -93.3917 1606.08 -50.4554C1506.22 -15.9825 1459.13 80.719 1381.45 150.526C1277.23 244.19 1100.21 289.874 1081.16 421.293C1061.01 560.356 1158.3 708.288 1293.21 759.431C1417.73 806.636 1542.88 683.176 1676.38 646.939C1777.19 619.577 1901.95 653.316 1969.18 575.955C2036.69 498.27 1980.98 391.775 1982.93 294.206Z" stroke="#1ED552" stroke-width="2"/>
<path opacity="0.890756" fill-rule="evenodd" clip-rule="evenodd" d="M1993.04 297.455C1993.21 175.825 2077.26 27.9395 1985.38 -53.0454C1893.07 -134.407 1733.16 -85.558 1609.47 -40.6282C1510.17 -4.55468 1464.84 92.8103 1388.4 163.813C1285.83 259.083 1109.51 307.621 1092.89 439.204C1075.31 578.44 1175.44 724.607 1311.41 773.477C1436.91 818.584 1559.87 693.21 1692.81 654.822C1793.19 625.835 1918.68 657.488 1984.53 579.11C2050.65 500.405 1992.91 394.945 1993.04 297.455Z" stroke="#1FD552" stroke-width="2"/>
<path opacity="0.89916" fill-rule="evenodd" clip-rule="evenodd" d="M2003.19 300.819C2001.09 179.324 2082.47 30.2268 1989 -49.1577C1895.1 -128.912 1735.97 -77.4921 1613.01 -30.5825C1514.3 7.08059 1470.74 105.079 1395.56 177.257C1294.68 274.103 1119.12 325.481 1104.93 457.187C1089.93 596.554 1192.86 740.911 1329.85 787.494C1456.3 830.489 1577.02 703.237 1709.36 662.71C1809.29 632.108 1935.47 661.665 1999.91 582.295C2064.62 502.593 2004.88 398.201 2003.19 300.819Z" stroke="#1FD653" stroke-width="2"/>
<path opacity="0.907563" fill-rule="evenodd" clip-rule="evenodd" d="M2013.38 304.298C2009.02 182.975 2087.68 32.7109 1992.66 -45.0491C1897.2 -123.171 1738.89 -69.1968 1616.71 -20.3216C1518.61 18.9196 1476.84 117.522 1402.94 190.852C1303.78 289.245 1129.02 343.447 1117.28 475.237C1104.86 614.692 1210.56 757.196 1348.54 801.476C1475.89 842.347 1594.34 713.257 1726.03 670.603C1825.48 638.395 1952.31 665.847 2015.33 585.509C2078.61 504.835 2016.87 401.542 2013.38 304.298Z" stroke="#1FD753" stroke-width="2"/>
<path opacity="0.915966" fill-rule="evenodd" clip-rule="evenodd" d="M2023.6 307.887C2016.98 186.774 2092.91 35.3878 1996.37 -40.7239C1899.37 -117.19 1741.93 -60.6776 1620.56 -9.8517C1523.11 30.9557 1483.14 130.133 1410.54 204.593C1313.13 304.502 1139.24 361.512 1129.94 493.345C1120.1 632.846 1228.55 773.453 1367.46 815.417C1495.68 854.15 1611.83 723.263 1742.84 678.495C1841.76 644.69 1969.21 670.028 2030.79 588.747C2092.62 507.125 2028.91 404.963 2023.6 307.887Z" stroke="#1FD853" stroke-width="2"/>
<path opacity="0.92437" fill-rule="evenodd" clip-rule="evenodd" d="M2033.86 311.587C2024.98 190.72 2098.16 38.259 2000.12 -36.1811C1901.62 -110.968 1745.1 -51.9346 1624.57 0.826465C1527.8 43.1876 1489.65 142.908 1418.38 218.476C1322.74 319.871 1149.77 379.671 1142.92 511.508C1135.67 651.012 1246.81 789.679 1386.62 829.315C1515.67 865.899 1629.48 733.253 1759.76 686.385C1858.14 650.994 1986.17 674.211 2046.28 592.01C2106.65 509.466 2040.98 408.466 2033.86 311.587Z" stroke="#1FD853" stroke-width="2"/>
<path opacity="0.932773" fill-rule="evenodd" clip-rule="evenodd" d="M2044.17 315.398C2033.03 194.813 2103.43 41.3237 2003.92 -31.4224C1903.95 -104.507 1748.4 -42.9709 1628.75 11.7093C1532.69 55.6112 1496.36 155.845 1426.44 232.498C1332.61 335.348 1160.61 397.921 1156.2 529.72C1151.54 669.185 1265.36 805.87 1406.02 843.166C1535.86 877.589 1647.29 743.225 1776.81 694.271C1874.62 657.305 2003.18 678.394 2061.82 595.299C2120.7 511.857 2053.09 412.05 2044.17 315.398Z" stroke="#1FD954" stroke-width="2"/>
<path opacity="0.941176" fill-rule="evenodd" clip-rule="evenodd" d="M2054.51 319.318C2041.12 199.053 2108.73 44.5815 2007.78 -26.4483C1906.37 -97.8087 1751.84 -33.7883 1633.11 22.7943C1537.78 68.2237 1503.29 168.941 1434.73 246.654C1342.74 350.928 1171.76 416.254 1169.8 547.976C1167.73 687.36 1284.19 822.021 1425.67 856.965C1556.24 889.218 1665.28 753.176 1793.99 702.151C1891.19 663.621 2020.25 682.575 2077.39 598.612C2134.76 514.298 2065.25 415.714 2054.51 319.318Z" stroke="#1FDA54" stroke-width="2"/>
<path opacity="0.94958" fill-rule="evenodd" clip-rule="evenodd" d="M2064.91 323.347C2049.27 203.438 2114.06 48.0317 2011.71 -21.2601C1908.88 -90.8746 1755.41 -24.3895 1637.64 34.0784C1543.08 81.0214 1510.43 182.19 1443.26 260.942C1353.14 366.608 1183.23 434.667 1183.72 566.272C1184.24 705.532 1303.3 838.128 1445.55 870.709C1576.83 900.782 1683.42 763.104 1811.3 710.023C1907.85 669.942 2037.38 686.755 2093 601.949C2148.86 516.788 2077.45 419.457 2064.91 323.347Z" stroke="#1FDB54" stroke-width="2"/>
<path opacity="0.957983" fill-rule="evenodd" clip-rule="evenodd" d="M2075.35 327.486C2057.47 207.97 2119.42 51.6756 2015.69 -15.8572C1911.49 -83.7043 1759.12 -14.7748 1642.34 45.5605C1548.58 94.0028 1517.78 195.593 1452.03 275.358C1363.79 382.384 1195.01 453.156 1197.95 584.603C1201.07 723.697 1322.7 854.187 1465.66 884.396C1597.62 912.279 1701.73 773.007 1828.72 717.887C1924.62 676.266 2054.56 690.933 2108.65 605.31C2162.97 519.329 2089.69 423.281 2075.35 327.486Z" stroke="#1FDB55" stroke-width="2"/>
<path opacity="0.966387" fill-rule="evenodd" clip-rule="evenodd" d="M2085.85 331.728C2065.72 212.641 2124.82 55.5073 2019.75 -10.246C1914.19 -76.3053 1762.99 -4.95229 1647.23 57.2321C1554.29 107.159 1525.36 209.14 1461.03 289.894C1374.72 398.247 1207.11 471.71 1212.51 602.96C1218.21 741.845 1342.37 870.19 1486.02 898.018C1618.6 923.703 1720.21 782.879 1846.28 725.737C1941.48 682.588 2071.8 695.105 2124.34 608.691C2177.11 521.916 2101.98 427.18 2085.85 331.728Z" stroke="#20DC55" stroke-width="2"/>
<path opacity="0.97479" fill-rule="evenodd" clip-rule="evenodd" d="M2096.4 336.078C2074.04 217.456 2130.26 59.5305 2023.88 -4.42303C1917 -68.6743 1767 5.0804 1652.31 69.0948C1560.22 120.491 1533.16 222.831 1470.28 304.55C1385.91 414.197 1219.54 490.329 1227.38 621.341C1235.67 759.975 1362.32 886.137 1506.6 911.574C1639.78 935.053 1738.85 792.721 1863.96 733.573C1958.43 688.91 2089.1 699.273 2140.08 612.095C2191.27 524.552 2114.32 431.156 2096.4 336.078Z" stroke="#20DD55" stroke-width="2"/>
<path opacity="0.983193" fill-rule="evenodd" clip-rule="evenodd" d="M2106.99 340.531C2082.41 222.412 2135.74 63.7417 2028.08 1.60731C1919.92 -60.8164 1771.17 15.3176 1657.57 81.1426C1566.36 133.993 1541.19 236.661 1479.78 319.319C1397.38 430.228 1232.28 509.004 1242.56 639.74C1253.44 778.08 1382.55 902.019 1527.42 925.059C1661.14 946.325 1757.65 802.527 1881.76 741.392C1975.48 695.229 2106.45 703.435 2155.85 615.518C2205.45 527.234 2126.7 435.208 2106.99 340.531Z" stroke="#20DE55" stroke-width="2"/>
<path opacity="0.991597" fill-rule="evenodd" clip-rule="evenodd" d="M2117.65 345.092C2090.85 227.51 2141.27 68.1441 2032.37 7.84769C1922.96 -52.7294 1775.5 25.7606 1663.03 93.3762C1572.73 147.664 1549.44 250.629 1489.52 334.202C1409.12 446.337 1245.35 527.736 1258.07 658.154C1271.54 796.159 1403.05 917.838 1548.48 938.473C1682.71 957.519 1776.62 812.3 1899.7 749.196C1992.64 701.547 2123.86 707.593 2171.67 618.965C2219.67 529.966 2139.14 439.338 2117.65 345.092Z" stroke="#20DE56" stroke-width="2"/>
<path fill-rule="evenodd" clip-rule="evenodd" d="M2128.37 349.754C2099.36 232.745 2146.85 72.7321 2036.74 14.2922C1926.11 -44.4199 1779.99 36.4023 1668.68 105.788C1579.32 161.496 1557.93 264.727 1499.51 349.189C1421.13 462.518 1258.74 546.513 1273.9 676.574C1289.95 814.201 1423.84 933.583 1569.77 951.807C1704.46 968.627 1795.75 822.031 1917.75 756.978C2009.88 707.857 2141.33 711.742 2187.52 622.429C2233.91 532.743 2151.62 443.54 2128.37 349.754Z" stroke="#20DF56" stroke-width="2"/>
</g>
</svg>
