<svg width="1600" height="585" viewBox="0 0 1600 585" fill="none" xmlns="http://www.w3.org/2000/svg">
<g opacity="0.7">
<path opacity="0.01" fill-rule="evenodd" clip-rule="evenodd" d="M742.799 774.76C869.536 783.555 1010.21 874.298 1109.32 792.339C1208.89 709.999 1183.57 553.874 1156.54 432.611C1134.84 335.252 1040.62 285.065 978.859 207.052C895.985 102.376 873.62 -69.3881 739.144 -94.5941C596.845 -121.266 428.484 -36.065 355.787 90.2642C288.69 206.865 399.675 333.142 418.405 462.775C432.548 560.662 379.474 678.203 450.62 746.627C522.064 815.338 641.215 767.71 742.799 774.76Z" stroke="#138734" stroke-width="2"/>
<path opacity="0.0168067" fill-rule="evenodd" clip-rule="evenodd" d="M758.589 766.793C885.548 773.418 1027.91 861.686 1125.61 778.102C1223.76 694.129 1195.64 538.563 1166.43 417.86C1142.98 320.95 1047.81 272.412 984.623 195.516C899.836 92.3401 874.39 -78.9033 739.396 -101.794C596.549 -126.016 429.625 -38.0099 359.149 89.4577C294.101 207.109 407.4 331.39 428.456 460.598C444.355 558.163 393.355 676.515 465.76 743.67C538.468 811.105 656.829 761.483 758.589 766.793Z" stroke="#138735" stroke-width="2"/>
<path opacity="0.0252101" fill-rule="evenodd" clip-rule="evenodd" d="M774.256 758.853C901.397 763.306 1045.41 849.073 1141.66 763.889C1238.36 678.309 1207.45 523.349 1176.07 403.243C1150.87 306.811 1054.79 259.937 990.194 184.182C903.521 82.5364 875.002 -88.1338 739.53 -108.702C596.177 -130.466 430.741 -39.6825 362.508 88.8846C299.53 207.55 415.107 329.797 438.483 458.541C456.134 555.756 407.223 674.882 480.865 740.747C554.814 806.886 672.349 755.284 774.256 758.853Z" stroke="#138835" stroke-width="2"/>
<path opacity="0.0336134" fill-rule="evenodd" clip-rule="evenodd" d="M789.799 750.94C917.083 753.22 1062.7 836.459 1157.48 749.702C1252.7 662.541 1219 508.234 1185.46 388.761C1158.52 292.837 1061.56 247.641 995.576 173.05C907.042 72.9663 875.459 -97.0787 739.55 -115.318C595.737 -134.618 431.839 -41.0843 365.869 88.543C304.98 208.187 422.8 328.362 448.489 456.603C467.886 553.438 421.079 673.302 495.936 737.856C571.104 802.68 687.776 749.114 789.799 750.94Z" stroke="#138935" stroke-width="2"/>
<path opacity="0.0420168" fill-rule="evenodd" clip-rule="evenodd" d="M805.221 743.058C932.611 743.163 1079.79 823.85 1173.07 735.545C1266.77 646.83 1230.3 493.223 1194.61 374.419C1165.95 279.033 1068.12 235.529 1000.77 162.125C910.408 63.6329 875.769 -105.735 739.466 -121.64C595.234 -138.47 432.926 -42.2147 369.239 88.4334C310.457 209.02 430.485 327.087 458.478 454.784C479.616 551.21 434.928 671.776 510.975 735C587.341 798.489 703.114 742.974 805.221 743.058Z" stroke="#148A35" stroke-width="2"/>
<path opacity="0.0504202" fill-rule="evenodd" clip-rule="evenodd" d="M820.521 735.208C947.977 733.139 1096.68 811.248 1188.42 721.423C1280.59 631.18 1241.35 478.321 1203.52 360.222C1173.14 265.403 1074.49 223.603 1005.79 151.408C913.619 54.5384 875.936 -114.101 739.28 -127.666C594.674 -142.021 434.003 -43.0739 372.619 88.5553C315.962 210.047 438.161 325.97 468.451 453.086C491.322 549.073 448.766 670.304 525.982 732.179C603.521 794.312 718.361 736.867 820.521 735.208Z" stroke="#148A36" stroke-width="2"/>
<path opacity="0.0588235" fill-rule="evenodd" clip-rule="evenodd" d="M835.699 727.394C963.183 723.151 1113.35 798.659 1203.54 707.341C1294.14 615.598 1252.15 463.532 1212.19 346.176C1180.1 251.951 1080.65 211.869 1010.63 140.905C916.679 45.6873 875.963 -122.172 738.995 -133.394C594.06 -145.269 435.077 -43.66 376.014 88.9101C321.499 211.271 445.832 325.013 478.408 451.51C503.007 547.028 462.596 668.887 540.957 729.394C619.645 790.154 733.516 730.795 835.699 727.394Z" stroke="#148B36" stroke-width="2"/>
<path opacity="0.0672269" fill-rule="evenodd" clip-rule="evenodd" d="M850.755 719.616C978.228 713.2 1129.82 786.084 1218.42 693.301C1307.43 600.086 1262.7 448.86 1220.62 332.281C1186.83 238.681 1086.62 200.328 1015.29 130.617C919.594 37.0796 875.857 -129.949 738.619 -138.824C593.399 -148.215 436.15 -43.9755 379.427 89.4952C327.072 212.687 453.5 324.215 488.353 450.053C514.672 545.074 476.418 667.524 555.9 726.645C635.714 786.012 748.582 724.758 850.755 719.616Z" stroke="#148C36" stroke-width="2"/>
<path opacity="0.0756303" fill-rule="evenodd" clip-rule="evenodd" d="M865.695 711.876C993.117 703.29 1146.09 773.527 1233.08 679.307C1320.47 584.649 1273.01 434.309 1228.82 318.542C1193.35 225.595 1092.4 188.984 1019.79 120.546C922.37 28.7182 875.627 -137.428 738.161 -143.954C592.698 -150.859 437.233 -44.02 382.867 90.3105C332.686 214.296 461.172 323.576 498.292 448.717C526.322 543.212 490.237 666.215 570.816 723.931C651.731 781.889 763.562 718.757 865.695 711.876Z" stroke="#148D37" stroke-width="2"/>
<path opacity="0.0840336" fill-rule="evenodd" clip-rule="evenodd" d="M880.512 704.176C1007.85 693.423 1162.15 760.992 1247.5 665.364C1333.24 569.291 1283.08 419.883 1236.8 304.964C1199.64 212.698 1097.98 177.839 1024.12 110.696C925.007 20.6058 875.27 -144.608 737.618 -148.782C591.959 -153.199 438.324 -43.7933 386.331 91.3562C338.341 216.098 468.844 323.096 508.22 447.502C537.952 541.442 504.048 664.961 585.699 721.255C667.691 777.785 778.45 712.796 880.512 704.176Z" stroke="#148D37" stroke-width="2"/>
<path opacity="0.092437" fill-rule="evenodd" clip-rule="evenodd" d="M895.211 696.519C1022.42 683.601 1178.01 748.482 1261.69 651.475C1345.76 554.016 1292.9 405.585 1244.54 291.55C1205.72 199.992 1103.39 166.897 1028.28 101.069C927.512 12.7435 874.798 -151.488 737.002 -153.309C591.19 -155.236 439.433 -43.2969 389.828 92.6304C344.043 218.09 476.525 322.774 518.143 446.407C549.57 539.763 517.856 663.761 600.554 718.616C683.598 773.7 793.252 706.873 895.211 696.519Z" stroke="#148E37" stroke-width="2"/>
<path opacity="0.10084" fill-rule="evenodd" clip-rule="evenodd" d="M909.791 688.908C1036.83 673.829 1193.66 736.001 1275.65 637.645C1358.02 538.83 1302.48 391.422 1252.06 278.304C1211.58 187.484 1108.61 156.162 1032.29 91.6694C929.888 5.13498 874.212 -158.063 736.313 -157.531C590.393 -156.969 440.56 -42.5297 393.359 94.134C349.794 220.273 484.213 322.611 528.062 445.434C561.173 538.178 531.659 662.617 615.38 716.016C699.45 769.637 807.965 700.994 909.791 688.908Z" stroke="#148F37" stroke-width="2"/>
<path opacity="0.109244" fill-rule="evenodd" clip-rule="evenodd" d="M924.256 681.343C1051.09 664.108 1209.11 723.553 1289.38 623.877C1370.03 523.737 1311.83 377.396 1259.36 265.231C1217.24 175.175 1113.65 145.636 1036.14 82.4981C932.144 -2.21839 873.523 -164.334 735.564 -161.449C589.58 -158.396 441.716 -41.4928 396.934 95.8657C355.6 222.646 491.917 322.607 537.983 444.581C572.768 536.685 545.463 661.527 630.18 713.454C715.251 765.597 822.594 695.157 924.256 681.343Z" stroke="#149038" stroke-width="2"/>
<path opacity="0.117647" fill-rule="evenodd" clip-rule="evenodd" d="M938.602 673.825C1065.19 654.44 1224.36 711.14 1302.89 610.175C1381.78 508.739 1320.94 363.51 1266.44 252.331C1222.68 163.067 1118.52 135.32 1039.84 73.5568C934.278 -9.31597 872.73 -170.3 734.753 -165.062C588.749 -159.52 442.9 -40.1881 400.55 97.8233C361.461 225.206 499.633 322.76 547.903 443.849C584.351 535.284 559.263 660.491 644.951 710.929C730.998 761.578 837.136 689.364 938.602 673.825Z" stroke="#159038" stroke-width="2"/>
<path opacity="0.12605" fill-rule="evenodd" clip-rule="evenodd" d="M952.832 666.358C1079.14 644.827 1239.4 698.765 1316.16 596.541C1393.29 493.842 1329.82 349.769 1273.3 239.611C1227.93 151.166 1123.22 125.219 1043.4 64.8483C936.297 -16.1555 871.841 -175.958 733.888 -168.37C587.909 -160.341 444.119 -38.616 404.214 100.006C367.382 227.953 507.367 323.069 557.825 443.236C595.926 533.976 573.063 659.509 659.696 708.444C746.691 757.583 851.593 683.615 952.832 666.358Z" stroke="#159138" stroke-width="2"/>
<path opacity="0.134454" fill-rule="evenodd" clip-rule="evenodd" d="M966.95 658.943C1092.94 635.275 1254.24 686.433 1329.22 582.982C1404.55 479.05 1338.47 336.177 1279.96 227.072C1232.98 139.474 1127.75 115.335 1046.81 56.3759C938.209 -22.7343 870.865 -181.307 732.977 -171.371C587.068 -160.856 445.38 -36.7763 407.932 102.415C373.368 230.886 515.124 323.536 567.755 442.745C607.497 532.76 586.866 658.581 674.417 705.998C762.335 753.613 865.967 677.915 966.95 658.943Z" stroke="#159239" stroke-width="2"/>
<path opacity="0.142857" fill-rule="evenodd" clip-rule="evenodd" d="M980.951 651.584C1106.58 625.784 1268.88 674.148 1342.05 569.501C1415.55 464.367 1346.89 322.739 1286.4 214.721C1237.83 127.995 1132.12 105.672 1050.08 48.142C940.013 -29.0505 869.8 -186.346 732.02 -174.064C586.226 -161.068 446.683 -34.6698 411.704 105.047C379.418 234.005 522.902 324.16 577.69 442.374C619.061 531.638 600.668 657.709 689.111 703.593C777.924 749.669 880.256 672.263 980.951 651.584Z" stroke="#159339" stroke-width="2"/>
<path opacity="0.151261" fill-rule="evenodd" clip-rule="evenodd" d="M994.839 644.28C1120.07 616.357 1283.32 661.912 1354.65 556.101C1426.32 449.798 1355.09 309.456 1292.63 202.558C1242.49 116.732 1136.33 96.2313 1053.22 40.1479C941.717 -35.1034 868.658 -191.073 731.027 -176.449C585.391 -160.975 448.037 -32.2982 415.537 107.903C385.539 237.307 530.707 324.94 587.635 442.122C630.623 530.608 614.473 656.891 703.781 701.229C793.462 745.751 894.463 666.662 994.839 644.28Z" stroke="#159339" stroke-width="2"/>
<path opacity="0.159664" fill-rule="evenodd" clip-rule="evenodd" d="M1008.62 637.036C1133.41 606.998 1297.55 649.729 1367.03 542.787C1436.84 435.347 1363.06 296.334 1298.67 190.589C1246.97 105.688 1140.38 87.0161 1056.23 32.3965C943.325 -40.8907 867.441 -195.486 730.003 -178.526C584.569 -160.579 449.445 -29.6618 419.434 110.98C391.734 240.791 538.541 325.876 597.593 441.991C642.183 529.672 628.282 656.128 718.428 698.905C808.95 741.861 908.589 661.112 1008.62 637.036Z" stroke="#159439" stroke-width="2"/>
<path opacity="0.168067" fill-rule="evenodd" clip-rule="evenodd" d="M1022.28 629.849C1146.6 597.705 1311.59 637.601 1379.2 529.559C1447.11 421.015 1370.82 283.374 1304.5 178.814C1251.26 94.8641 1144.28 78.0266 1059.12 24.8875C944.842 -46.4131 866.157 -199.588 728.952 -180.296C583.766 -159.881 450.913 -26.764 423.4 114.276C398.006 244.454 546.408 326.964 607.565 441.978C653.745 528.826 642.097 655.417 733.053 696.621C824.388 737.997 922.634 655.613 1022.28 629.849Z" stroke="#15953A" stroke-width="2"/>
<path opacity="0.176471" fill-rule="evenodd" clip-rule="evenodd" d="M1035.84 622.725C1159.65 588.485 1325.43 625.533 1391.14 516.425C1457.15 406.809 1378.36 270.583 1310.14 167.239C1255.37 84.2658 1148.04 69.2678 1061.88 17.6253C946.273 -51.6671 864.81 -203.375 727.88 -181.756C582.985 -158.88 452.444 -23.6039 427.438 117.791C404.358 248.298 554.31 328.208 617.553 442.085C665.308 528.074 655.917 654.761 747.655 694.379C839.776 734.163 936.6 650.169 1035.84 622.725Z" stroke="#15963A" stroke-width="2"/>
<path opacity="0.184874" fill-rule="evenodd" clip-rule="evenodd" d="M1049.28 615.665C1172.54 579.341 1339.07 613.529 1402.86 503.388C1466.95 392.734 1385.68 257.963 1315.58 155.867C1259.3 73.8964 1151.65 60.7424 1064.52 10.6123C947.62 -56.6508 863.405 -206.845 726.792 -182.907C582.233 -157.577 454.043 -20.1819 431.552 121.526C410.792 252.32 562.247 329.606 627.558 442.311C676.874 527.415 669.742 654.16 762.235 692.181C855.114 730.36 950.485 644.781 1049.28 615.665Z" stroke="#15963A" stroke-width="2"/>
<path opacity="0.193277" fill-rule="evenodd" clip-rule="evenodd" d="M1062.62 608.671C1185.29 570.272 1352.52 601.59 1414.37 490.449C1476.52 378.792 1392.8 245.517 1320.84 144.7C1263.06 63.7564 1155.12 52.4504 1067.05 3.84801C948.89 -61.3653 861.949 -210.001 725.694 -183.75C581.514 -155.973 455.715 -16.5019 435.745 125.475C417.312 256.517 570.225 331.155 637.583 442.654C688.445 526.848 683.575 653.612 776.794 690.023C870.402 726.586 964.292 639.449 1062.62 608.671Z" stroke="#16973B" stroke-width="2"/>
<path opacity="0.201681" fill-rule="evenodd" clip-rule="evenodd" d="M1075.85 601.745C1197.9 561.283 1365.77 589.722 1425.67 477.616C1485.85 364.988 1399.7 233.25 1325.91 133.744C1266.66 53.8516 1158.46 44.3971 1069.48 -2.66283C950.089 -65.8065 860.447 -212.838 724.593 -184.283C580.836 -154.067 457.466 -12.5622 440.022 129.64C423.922 260.891 578.247 332.859 647.631 443.118C700.024 526.375 697.416 653.119 791.333 687.91C885.643 722.845 978.023 634.176 1075.85 601.745Z" stroke="#16983B" stroke-width="2"/>
<path opacity="0.210084" fill-rule="evenodd" clip-rule="evenodd" d="M1088.98 594.887C1210.36 552.375 1378.83 577.925 1436.75 464.888C1494.95 351.325 1406.41 221.164 1330.8 122.997C1270.09 44.1812 1161.66 36.581 1071.8 -8.92208C951.221 -69.9768 858.906 -215.359 723.493 -184.509C580.204 -151.864 459.3 -8.3678 444.389 134.017C430.626 265.436 586.315 334.712 657.705 443.697C711.612 525.993 711.268 652.679 805.855 685.838C900.836 719.135 991.679 628.962 1088.98 594.887Z" stroke="#16993B" stroke-width="2"/>
<path opacity="0.218487" fill-rule="evenodd" clip-rule="evenodd" d="M1102 588.098C1222.69 543.549 1391.69 566.203 1447.63 452.269C1503.82 337.804 1412.91 209.26 1335.51 112.464C1273.36 34.7481 1164.74 29.0045 1074.02 -14.9278C952.289 -73.8751 857.33 -217.564 722.4 -184.427C579.621 -149.363 461.221 -3.92022 448.847 138.603C437.426 270.151 594.432 336.713 667.806 444.392C723.211 525.7 725.131 652.29 820.358 683.807C915.982 715.457 1005.26 623.806 1102 588.098Z" stroke="#16993B" stroke-width="2"/>
<path opacity="0.226891" fill-rule="evenodd" clip-rule="evenodd" d="M1114.91 581.383C1234.87 534.81 1404.36 554.561 1458.29 439.764C1512.47 324.434 1419.21 197.545 1340.04 102.149C1276.47 25.5565 1167.7 21.6713 1076.15 -20.677C953.299 -77.4988 855.723 -219.45 721.317 -184.038C579.093 -146.565 463.232 0.780661 453.399 143.4C444.323 275.036 602.598 338.864 677.933 445.203C734.82 525.5 739.003 651.954 834.841 681.821C931.08 711.813 1018.76 618.712 1114.91 581.383Z" stroke="#169A3C" stroke-width="2"/>
<path opacity="0.235294" fill-rule="evenodd" clip-rule="evenodd" d="M1127.73 574.742C1246.91 526.16 1416.85 543.002 1468.75 427.378C1520.89 311.216 1425.32 186.022 1344.4 92.0547C1279.43 16.6093 1170.54 14.5838 1078.18 -26.1676C954.257 -80.8466 854.095 -221.017 720.254 -183.34C578.627 -143.47 465.341 5.73366 458.051 148.405C451.324 280.089 610.82 341.164 688.093 446.131C746.444 525.392 752.889 651.672 849.309 679.879C946.133 708.204 1032.2 613.683 1127.73 574.742Z" stroke="#169B3C" stroke-width="2"/>
<path opacity="0.243697" fill-rule="evenodd" clip-rule="evenodd" d="M1140.44 568.178C1258.82 517.601 1429.14 531.529 1479 415.113C1529.1 298.155 1431.24 174.694 1348.6 82.1839C1282.25 7.90864 1173.26 7.74328 1080.13 -31.3987C955.166 -83.9183 852.449 -222.266 719.213 -182.334C578.227 -140.08 467.55 10.9363 462.807 153.616C458.429 285.308 619.097 343.612 698.286 447.175C758.082 525.376 766.787 651.443 863.761 677.982C961.139 704.631 1045.56 608.717 1140.44 568.178Z" stroke="#169C3C" stroke-width="2"/>
<path opacity="0.252101" fill-rule="evenodd" clip-rule="evenodd" d="M1153.05 561.691C1270.58 509.134 1441.24 520.144 1489.05 402.972C1537.08 285.254 1436.97 163.563 1352.63 72.5379C1284.92 -0.544726 1175.88 1.15017 1082 -36.3705C956.031 -86.7147 850.789 -223.197 718.199 -181.024C577.898 -136.398 469.863 16.3854 467.667 159.031C465.64 290.69 627.432 346.205 708.512 448.332C769.736 525.449 780.699 651.266 878.195 676.127C976.1 701.093 1058.85 603.816 1153.05 561.691Z" stroke="#169C3D" stroke-width="2"/>
<path opacity="0.260504" fill-rule="evenodd" clip-rule="evenodd" d="M1165.57 555.283C1282.22 500.763 1453.16 508.852 1498.9 390.958C1544.85 272.516 1442.51 152.633 1356.51 63.1209C1287.46 -8.74677 1178.39 -5.19213 1083.79 -41.0801C956.859 -89.2336 849.125 -223.809 717.222 -179.407C577.646 -132.423 472.287 22.0806 472.64 164.648C472.965 296.235 635.831 348.943 718.777 449.604C781.41 525.613 794.627 651.141 892.617 674.319C991.017 697.593 1072.07 598.983 1165.57 555.283Z" stroke="#169D3D" stroke-width="2"/>
<path opacity="0.268908" fill-rule="evenodd" clip-rule="evenodd" d="M1177.99 548.956C1293.72 492.489 1464.9 497.653 1508.55 379.075C1552.41 259.945 1447.88 141.905 1360.23 53.9339C1289.86 -16.697 1180.79 -11.2837 1085.51 -45.528C957.654 -91.4761 847.46 -224.103 716.283 -177.486C577.477 -128.158 474.826 28.0183 477.726 170.464C480.403 301.939 644.293 351.824 729.08 450.988C793.104 525.867 808.571 651.067 907.025 672.553C1005.89 694.129 1085.22 594.216 1177.99 548.956Z" stroke="#169E3D" stroke-width="2"/>
<path opacity="0.277311" fill-rule="evenodd" clip-rule="evenodd" d="M1190.31 542.71C1305.1 484.314 1476.45 486.553 1518.01 367.325C1559.76 247.543 1453.06 131.383 1363.8 44.9794C1292.13 -24.3931 1183.11 -17.1228 1087.16 -49.713C958.421 -93.4416 845.801 -224.081 715.391 -175.263C577.396 -123.605 477.484 34.1966 482.931 176.477C487.96 307.8 652.824 354.848 739.426 452.483C804.82 526.209 822.532 651.043 921.42 670.832C1020.72 690.703 1098.31 589.517 1190.31 542.71Z" stroke="#179F3D" stroke-width="2"/>
<path opacity="0.285714" fill-rule="evenodd" clip-rule="evenodd" d="M1202.54 536.55C1316.34 476.242 1487.82 475.555 1527.26 355.715C1566.9 235.317 1458.07 121.072 1367.22 36.262C1294.27 -31.8311 1185.33 -22.706 1088.75 -53.6322C959.162 -95.1281 844.15 -223.739 714.547 -172.735C577.405 -118.764 480.263 40.615 488.256 182.687C495.633 313.818 661.422 358.014 749.813 454.092C816.558 526.642 836.51 651.073 935.802 669.157C1035.51 687.318 1111.32 584.889 1202.54 536.55Z" stroke="#179F3E" stroke-width="2"/>
<path opacity="0.294118" fill-rule="evenodd" clip-rule="evenodd" d="M1214.68 530.475C1327.46 468.274 1499.01 464.66 1536.33 344.244C1573.83 223.267 1462.91 110.973 1370.5 27.7821C1296.3 -39.0107 1187.46 -28.0336 1090.28 -57.2864C959.887 -96.5369 842.518 -223.081 713.761 -169.906C577.514 -113.638 483.171 47.2697 493.707 189.09C503.432 319.989 670.094 361.319 760.247 455.811C828.322 527.162 850.508 651.152 950.173 667.527C1050.25 683.971 1124.28 580.332 1214.68 530.475Z" stroke="#17A03E" stroke-width="2"/>
<path opacity="0.302521" fill-rule="evenodd" clip-rule="evenodd" d="M1226.72 524.486C1338.45 460.41 1510.02 453.871 1545.21 332.916C1580.57 211.398 1467.59 101.087 1373.64 19.5411C1298.21 -45.9312 1189.51 -33.1053 1091.76 -60.6757C960.597 -97.6689 840.907 -222.107 713.035 -166.777C577.725 -108.23 486.21 54.1575 499.286 195.683C511.355 326.309 678.84 364.762 770.727 457.638C840.112 527.77 864.525 651.281 964.534 665.942C1064.96 680.664 1137.17 575.845 1226.72 524.486Z" stroke="#17A13E" stroke-width="2"/>
<path opacity="0.310924" fill-rule="evenodd" clip-rule="evenodd" d="M1238.68 518.586C1349.31 452.655 1520.86 443.193 1553.91 321.735C1587.11 199.712 1472.1 91.4193 1376.64 11.5427C1300 -52.5891 1191.48 -37.9185 1093.19 -63.7982C961.298 -98.5228 839.324 -220.817 712.376 -163.35C578.044 -102.54 489.384 61.277 504.996 202.465C519.405 332.779 687.663 368.342 781.256 459.575C851.93 528.466 878.562 651.459 978.884 664.401C1079.62 677.398 1150 571.432 1238.68 518.586Z" stroke="#17A23F" stroke-width="2"/>
<path opacity="0.319328" fill-rule="evenodd" clip-rule="evenodd" d="M1250.54 512.777C1360.06 445.011 1531.52 432.629 1562.42 310.706C1593.46 188.214 1476.45 81.9729 1379.52 3.79018C1301.7 -58.9816 1193.38 -42.4707 1094.57 -66.6518C961.998 -99.0972 837.777 -219.21 711.792 -159.623C578.478 -96.5703 492.701 68.6274 510.844 209.434C527.59 339.397 696.568 372.059 791.84 461.621C863.78 529.249 892.624 651.688 993.227 662.908C1094.25 674.175 1162.76 567.093 1250.54 512.777Z" stroke="#17A23F" stroke-width="2"/>
<path opacity="0.327731" fill-rule="evenodd" clip-rule="evenodd" d="M1262.32 507.058C1370.68 437.479 1542.01 422.18 1570.74 299.828C1599.61 176.906 1480.64 72.7481 1382.27 -3.71684C1303.28 -65.1094 1195.21 -46.7633 1095.92 -69.2383C962.697 -99.3947 836.267 -217.29 711.282 -155.601C579.028 -90.3241 496.16 76.2036 516.829 216.586C535.906 346.158 705.553 375.91 802.473 463.772C875.659 530.119 906.706 651.966 1007.56 661.46C1108.84 670.993 1175.47 562.829 1262.32 507.058Z" stroke="#17A33F" stroke-width="2"/>
<path opacity="0.336134" fill-rule="evenodd" clip-rule="evenodd" d="M1274.02 501.433C1381.19 430.06 1552.33 411.85 1578.89 289.107C1605.57 165.792 1484.69 63.7487 1384.89 -10.9752C1304.77 -70.9699 1196.97 -50.7941 1097.23 -71.5563C963.401 -99.4144 834.799 -215.057 710.854 -151.284C579.7 -83.8028 499.766 84.0042 522.954 223.92C544.356 353.061 714.621 379.893 813.161 466.031C887.569 531.074 920.809 652.293 1021.88 660.057C1123.38 667.854 1188.12 558.641 1274.02 501.433Z" stroke="#17A43F" stroke-width="2"/>
<path opacity="0.344538" fill-rule="evenodd" clip-rule="evenodd" d="M1285.63 495.902C1391.58 422.758 1562.48 401.641 1586.86 278.544C1611.36 154.874 1488.58 54.9767 1387.41 -17.9833C1306.17 -76.5619 1198.68 -54.5625 1098.51 -73.6056C964.119 -99.157 833.385 -212.51 710.518 -146.675C580.502 -77.0093 503.527 92.0259 529.227 231.433C552.948 360.104 723.779 384.008 823.908 468.394C899.516 532.114 934.939 652.667 1036.2 658.7C1137.89 664.759 1200.71 554.529 1285.63 495.902Z" stroke="#17A540" stroke-width="2"/>
<path opacity="0.352941" fill-rule="evenodd" clip-rule="evenodd" d="M1297.16 490.466C1401.86 415.573 1572.47 391.557 1594.66 268.144C1616.96 144.156 1492.34 46.4348 1389.8 -24.7392C1307.48 -81.8838 1200.33 -58.0676 1099.77 -75.3857C964.852 -98.6226 832.027 -209.653 710.273 -141.773C581.437 -69.9455 507.443 100.266 535.648 239.122C561.681 367.283 733.025 388.252 834.713 470.861C911.498 533.239 949.094 653.09 1050.52 657.39C1152.37 661.708 1213.24 550.495 1297.16 490.466Z" stroke="#18A540" stroke-width="2"/>
<path opacity="0.361345" fill-rule="evenodd" clip-rule="evenodd" d="M1308.61 485.127C1412.02 408.508 1582.29 381.599 1602.29 257.907C1622.38 133.639 1495.95 38.1244 1392.09 -31.2419C1308.71 -86.9351 1201.92 -61.3093 1101.01 -76.8972C965.607 -97.8125 830.73 -206.486 710.128 -136.583C582.51 -62.6146 511.521 108.722 542.221 246.983C570.558 374.597 742.364 392.625 845.579 473.43C923.518 534.448 963.275 653.56 1064.83 656.125C1166.8 658.701 1225.73 546.54 1308.61 485.127Z" stroke="#18A640" stroke-width="2"/>
<path opacity="0.369748" fill-rule="evenodd" clip-rule="evenodd" d="M1319.98 479.886C1422.08 401.564 1591.95 371.771 1609.75 247.838C1627.63 123.328 1499.43 30.0486 1394.28 -37.4889C1309.86 -91.7138 1203.48 -64.2862 1102.23 -78.1391C966.387 -96.7265 829.5 -203.009 710.086 -131.105C583.725 -55.0187 515.762 117.391 548.949 255.016C579.58 382.042 751.796 397.123 856.507 476.102C935.576 535.739 977.482 654.076 1079.13 654.906C1181.21 655.739 1238.15 542.663 1319.98 479.886Z" stroke="#18A741" stroke-width="2"/>
<path opacity="0.378151" fill-rule="evenodd" clip-rule="evenodd" d="M1331.28 474.745C1432.03 394.744 1601.45 362.076 1617.04 237.94C1632.71 113.226 1502.78 22.2099 1396.37 -43.4781C1310.93 -96.2181 1204.99 -66.9972 1103.44 -79.1108C967.198 -95.3645 828.342 -199.225 710.152 -125.341C585.088 -47.1594 520.172 126.27 555.835 263.217C588.752 389.618 761.324 401.747 867.5 478.875C947.675 537.114 991.716 654.64 1093.43 653.734C1195.57 652.825 1250.53 538.868 1331.28 474.745Z" stroke="#18A841" stroke-width="2"/>
<path opacity="0.386555" fill-rule="evenodd" clip-rule="evenodd" d="M1342.5 469.705C1441.87 388.049 1610.8 352.516 1624.18 228.214C1637.62 103.334 1506 14.6093 1398.36 -49.2093C1311.94 -100.448 1206.46 -69.4429 1104.65 -79.8137C968.046 -93.7288 827.263 -195.135 710.334 -119.294C586.604 -39.0412 524.754 135.356 562.883 271.583C598.075 397.319 770.952 406.493 878.56 481.746C959.816 538.57 1005.98 655.249 1107.73 652.608C1209.91 649.956 1262.85 535.154 1342.5 469.705Z" stroke="#18A841" stroke-width="2"/>
<path opacity="0.394958" fill-rule="evenodd" clip-rule="evenodd" d="M1353.65 464.766C1451.61 381.48 1619.99 343.093 1631.15 218.664C1642.37 93.6554 1509.09 7.24926 1400.26 -54.6805C1312.88 -104.403 1207.91 -71.6225 1105.86 -80.2471C968.934 -91.8195 826.268 -190.741 710.635 -112.965C588.276 -30.6659 529.512 144.645 570.094 280.111C607.552 405.145 780.679 411.361 889.687 484.716C972 540.107 1020.27 655.903 1122.03 651.528C1224.21 647.134 1275.13 531.522 1353.65 464.766Z" stroke="#18A941" stroke-width="2"/>
<path opacity="0.403361" fill-rule="evenodd" clip-rule="evenodd" d="M1364.72 459.929C1461.24 375.039 1629.02 333.808 1637.97 209.29C1646.96 84.1913 1512.07 0.129916 1402.08 -59.8921C1313.76 -108.083 1209.32 -73.5373 1107.07 -80.4133C969.869 -89.6393 825.362 -186.045 711.061 -106.359C590.111 -22.0384 534.45 154.134 577.474 288.797C617.185 413.09 790.511 416.346 900.885 487.781C984.229 541.723 1034.6 656.601 1136.33 650.492C1238.48 644.358 1287.36 527.97 1364.72 459.929Z" stroke="#18AA42" stroke-width="2"/>
<path opacity="0.411765" fill-rule="evenodd" clip-rule="evenodd" d="M1375.73 455.198C1470.78 368.729 1637.91 324.669 1644.64 200.098C1651.39 74.9479 1514.94 -6.74305 1403.81 -64.8391C1314.59 -111.484 1210.72 -75.1833 1108.29 -80.3085C970.854 -87.1854 824.551 -181.047 711.616 -99.4748C592.112 -13.1578 539.571 163.821 585.024 297.641C626.976 421.156 800.448 421.451 912.155 490.944C996.505 543.419 1048.95 657.345 1150.62 649.505C1252.72 641.632 1299.54 524.505 1375.73 455.198Z" stroke="#18AB42" stroke-width="2"/>
<path opacity="0.420168" fill-rule="evenodd" clip-rule="evenodd" d="M1386.67 450.571C1480.22 362.551 1646.65 315.674 1651.15 191.089C1655.68 65.925 1517.69 -13.3707 1405.47 -69.5231C1315.37 -114.607 1212.09 -76.5632 1109.52 -79.9361C971.894 -84.4618 823.84 -175.75 712.305 -92.3167C594.283 -4.03006 544.879 173.702 592.746 306.638C636.927 429.336 810.492 426.67 923.497 494.201C1008.83 545.194 1063.34 658.132 1164.92 648.563C1266.93 638.954 1311.68 521.122 1386.67 450.571Z" stroke="#18AB42" stroke-width="2"/>
<path opacity="0.428571" fill-rule="evenodd" clip-rule="evenodd" d="M1397.54 446.05C1489.57 356.504 1655.24 306.825 1657.52 182.265C1659.81 57.1246 1520.34 -19.7518 1407.06 -73.9433C1316.11 -117.453 1213.45 -77.6772 1110.77 -79.2968C972.994 -81.4698 823.233 -170.157 713.133 -84.8878C596.629 5.34161 550.376 183.773 600.643 315.784C647.039 437.629 820.645 432.003 934.914 497.55C1021.2 547.045 1077.75 658.961 1179.22 647.666C1281.1 636.324 1323.78 517.824 1397.54 446.05Z" stroke="#19AC43" stroke-width="2"/>
<path opacity="0.436975" fill-rule="evenodd" clip-rule="evenodd" d="M1408.35 441.638C1498.82 350.594 1663.69 298.127 1663.75 173.629C1663.8 48.5518 1522.88 -25.8818 1408.58 -78.0959C1316.81 -120.018 1214.81 -78.5225 1112.05 -78.3882C974.16 -78.2079 822.738 -164.267 714.107 -77.1879C599.156 14.9568 556.068 194.033 608.72 325.079C657.317 446.033 830.91 437.448 946.408 500.992C1033.62 548.974 1092.2 659.835 1193.52 646.817C1295.25 633.745 1335.83 514.613 1408.35 441.638Z" stroke="#19AD43" stroke-width="2"/>
<path opacity="0.445378" fill-rule="evenodd" clip-rule="evenodd" d="M1419.1 437.333C1507.99 344.819 1672 289.58 1669.83 165.182C1667.65 40.2052 1525.33 -31.7628 1410.04 -81.9838C1317.47 -122.305 1216.16 -79.1028 1113.35 -77.2147C975.397 -74.6812 822.361 -158.086 715.231 -69.2236C601.869 24.8083 561.959 204.475 616.98 334.516C667.763 454.542 841.291 443.002 957.983 504.523C1046.1 550.978 1106.69 660.748 1207.82 646.012C1309.38 631.214 1347.85 511.486 1419.1 437.333Z" stroke="#19AE43" stroke-width="2"/>
<path opacity="0.453782" fill-rule="evenodd" clip-rule="evenodd" d="M1429.78 433.137C1517.07 339.181 1680.18 281.188 1675.78 156.928C1671.37 32.0895 1527.69 -37.3911 1411.44 -85.6035C1318.1 -124.313 1217.52 -79.416 1114.69 -75.7746C976.708 -70.8886 822.104 -151.614 716.508 -60.9951C604.769 34.8953 568.05 215.097 625.422 344.094C678.376 463.156 851.785 448.663 969.636 508.143C1058.63 553.056 1121.21 661.703 1222.13 645.253C1323.47 628.734 1359.82 508.446 1429.78 433.137Z" stroke="#19AE43" stroke-width="2"/>
<path opacity="0.462185" fill-rule="evenodd" clip-rule="evenodd" d="M1440.41 429.052C1526.06 333.682 1688.22 272.953 1681.6 148.868C1674.95 24.2063 1529.96 -42.7658 1412.79 -88.955C1318.71 -126.04 1218.88 -79.4628 1116.06 -74.0693C978.099 -66.8323 821.974 -144.854 717.943 -52.5059C607.861 45.2139 574.344 225.896 634.051 353.809C689.16 471.871 862.398 454.43 981.371 511.85C1071.21 555.208 1135.77 662.699 1236.45 644.54C1337.54 626.305 1371.76 505.494 1440.41 429.052Z" stroke="#19AF44" stroke-width="2"/>
<path opacity="0.470588" fill-rule="evenodd" clip-rule="evenodd" d="M1450.98 425.079C1534.97 328.324 1696.12 264.876 1687.28 141.005C1678.41 16.558 1532.14 -47.885 1414.09 -92.037C1319.3 -127.486 1220.25 -79.2429 1117.47 -72.0988C979.574 -62.5131 821.976 -137.807 719.543 -43.7581C611.152 55.7613 580.847 236.869 642.87 363.659C700.116 480.685 873.13 460.302 993.19 515.644C1083.85 557.434 1150.36 663.735 1250.76 643.873C1351.59 623.927 1383.66 502.63 1450.98 425.079Z" stroke="#19B044" stroke-width="2"/>
<path opacity="0.478992" fill-rule="evenodd" clip-rule="evenodd" d="M1461.5 421.217C1543.8 323.107 1703.9 256.96 1692.84 133.341C1681.74 9.14596 1534.25 -52.7485 1415.34 -94.8497C1319.88 -128.652 1221.64 -78.7577 1118.94 -69.8653C981.138 -57.9338 822.115 -130.477 721.311 -34.7558C614.643 66.5328 587.56 248.011 651.88 373.64C711.247 489.593 883.984 466.274 1005.09 519.522C1096.54 559.731 1164.99 664.811 1265.09 643.251C1365.61 621.6 1395.53 499.855 1461.5 421.217Z" stroke="#19B144" stroke-width="2"/>
<path opacity="0.487395" fill-rule="evenodd" clip-rule="evenodd" d="M1471.96 417.469C1552.56 318.034 1711.55 249.208 1698.28 125.878C1684.95 1.97287 1536.28 -57.3541 1416.56 -97.3918C1320.44 -129.537 1223.05 -78.0067 1120.45 -67.3688C982.798 -53.095 822.397 -122.865 723.253 -25.5012C618.341 77.5258 594.487 259.319 661.085 383.748C722.555 498.594 894.963 472.346 1017.09 523.484C1109.3 562.099 1179.66 665.926 1279.42 642.675C1379.61 619.326 1407.37 497.168 1471.96 417.469Z" stroke="#19B145" stroke-width="2"/>
<path opacity="0.495798" fill-rule="evenodd" clip-rule="evenodd" d="M1482.38 413.832C1561.23 313.103 1719.08 241.619 1703.6 118.615C1688.05 -4.96188 1538.24 -61.7033 1417.75 -99.6652C1321 -130.144 1224.48 -76.993 1122.02 -64.6127C984.554 -48.0011 822.825 -114.977 725.37 -15.9999C622.247 88.7342 601.63 270.787 670.485 393.979C734.038 507.683 906.064 478.513 1029.16 527.525C1122.12 564.535 1194.37 667.077 1293.76 642.142C1393.58 617.102 1419.17 494.57 1482.38 413.832Z" stroke="#19B245" stroke-width="2"/>
<path opacity="0.504202" fill-rule="evenodd" clip-rule="evenodd" d="M1492.74 410.31C1569.84 308.317 1726.49 234.197 1708.8 111.557C1691.03 -11.6541 1540.14 -65.7927 1418.9 -101.667C1321.57 -130.471 1225.94 -75.7149 1123.66 -61.5959C986.414 -42.6515 823.406 -106.812 727.671 -6.25266C626.367 100.157 608.993 282.414 680.085 404.33C745.702 516.857 917.294 484.775 1041.33 531.646C1134.99 567.04 1209.11 668.265 1308.12 641.654C1407.53 614.931 1430.95 492.061 1492.74 410.31Z" stroke="#1AB345" stroke-width="2"/>
<path opacity="0.512605" fill-rule="evenodd" clip-rule="evenodd" d="M1503.06 406.905C1578.37 303.679 1733.78 226.945 1713.89 104.707C1693.91 -18.1012 1541.97 -69.6205 1420.04 -103.397C1322.13 -130.515 1227.44 -74.1721 1125.36 -58.3188C988.382 -37.0474 824.145 -98.3741 730.159 3.73807C630.705 111.79 616.58 294.196 689.886 414.8C757.548 526.116 928.653 491.131 1053.59 535.848C1147.93 569.614 1223.9 669.492 1322.48 641.212C1421.47 612.815 1442.7 489.645 1503.06 406.905Z" stroke="#1AB445" stroke-width="2"/>
<path opacity="0.521008" fill-rule="evenodd" clip-rule="evenodd" d="M1513.34 403.616C1586.84 299.188 1740.96 219.864 1718.87 98.0643C1696.69 -24.3027 1543.75 -73.1871 1421.15 -104.855C1322.71 -130.281 1228.98 -72.3667 1127.13 -54.7841C990.463 -31.1921 825.047 -89.6659 732.837 13.9675C635.265 123.629 624.392 306.128 699.891 425.383C769.576 535.454 940.143 497.577 1065.94 540.125C1160.93 572.254 1238.72 670.755 1336.85 640.816C1435.38 610.751 1454.42 487.319 1513.34 403.616Z" stroke="#1AB446" stroke-width="2"/>
<path opacity="0.529412" fill-rule="evenodd" clip-rule="evenodd" d="M1523.57 400.444C1595.24 294.846 1748.02 212.956 1723.75 91.632C1699.36 -30.2572 1545.48 -76.4916 1422.25 -106.041C1323.31 -129.766 1230.56 -70.2996 1128.97 -50.9928C992.659 -25.0874 826.114 -80.6906 735.71 24.4326C640.048 135.671 632.431 318.207 710.1 436.077C781.787 544.87 951.763 504.112 1078.39 544.478C1174 574.96 1253.59 672.053 1351.23 640.463C1449.27 608.742 1466.12 485.084 1523.57 400.444Z" stroke="#1AB546" stroke-width="2"/>
<path opacity="0.537815" fill-rule="evenodd" clip-rule="evenodd" d="M1533.76 397.386C1603.59 290.651 1754.97 206.22 1728.52 85.408C1701.95 -35.9662 1547.16 -79.5366 1423.34 -106.959C1323.92 -128.976 1232.19 -67.9747 1130.89 -46.9497C994.978 -18.7389 827.355 -71.4545 738.784 35.1265C645.061 147.907 640.703 330.426 720.517 446.874C794.185 554.355 963.519 510.729 1090.93 548.902C1187.14 577.726 1268.5 673.383 1365.62 640.152C1463.15 606.783 1477.8 482.938 1533.76 397.386Z" stroke="#1AB646" stroke-width="2"/>
<path opacity="0.546219" fill-rule="evenodd" clip-rule="evenodd" d="M1543.92 394.448C1611.87 286.607 1761.82 199.661 1733.2 79.3989C1704.44 -41.4233 1548.79 -82.3165 1424.42 -107.603C1324.56 -127.906 1233.88 -65.3883 1132.9 -42.6515C997.423 -12.1438 828.773 -61.9557 742.062 46.0504C650.307 160.339 649.208 342.784 731.144 457.776C806.77 563.912 975.411 517.432 1103.57 553.399C1200.34 580.558 1283.45 674.748 1380.03 639.887C1477.01 604.88 1489.45 480.886 1543.92 394.448Z" stroke="#1AB747" stroke-width="2"/>
<path opacity="0.554622" fill-rule="evenodd" clip-rule="evenodd" d="M1554.04 391.628C1620.09 282.715 1768.57 193.28 1737.78 73.6033C1706.85 -46.6301 1550.39 -84.8336 1425.51 -107.977C1325.24 -126.559 1235.62 -62.5443 1135 -38.1025C999.998 -5.30717 830.373 -52.2003 745.548 57.1983C655.789 172.96 657.95 355.276 741.983 468.776C819.544 573.536 987.439 524.215 1116.3 557.966C1213.61 583.451 1298.45 676.146 1394.45 639.665C1490.86 603.031 1501.09 478.925 1554.04 391.628Z" stroke="#1AB747" stroke-width="2"/>
<path opacity="0.563025" fill-rule="evenodd" clip-rule="evenodd" d="M1564.12 388.927C1628.26 278.975 1775.22 187.078 1742.27 68.0247C1709.18 -51.5833 1551.96 -87.0854 1426.59 -108.079C1325.94 -124.934 1237.42 -59.4418 1137.19 -33.3026C1002.71 1.77033 832.156 -42.1897 749.243 68.5679C661.508 185.768 666.928 367.899 753.032 479.873C832.504 583.224 999.603 531.077 1129.13 562.601C1226.95 586.405 1313.49 677.577 1408.89 639.487C1504.69 601.238 1512.7 477.058 1564.12 388.927Z" stroke="#1AB847" stroke-width="2"/>
<path opacity="0.571429" fill-rule="evenodd" clip-rule="evenodd" d="M1574.17 386.346C1636.38 275.388 1781.77 181.058 1746.68 62.6627C1711.43 -56.2834 1553.5 -89.0734 1427.7 -107.91C1326.69 -123.034 1239.3 -56.0839 1139.48 -28.2552C1005.56 9.08464 834.134 -31.9289 753.159 80.154C667.473 198.757 676.152 380.647 764.3 491.061C845.66 592.971 1011.91 538.015 1142.07 567.303C1240.36 589.418 1328.57 679.039 1423.34 639.351C1518.5 599.498 1524.3 475.282 1574.17 386.346Z" stroke="#1AB947" stroke-width="2"/>
<path opacity="0.579832" fill-rule="evenodd" clip-rule="evenodd" d="M1584.19 383.882C1644.45 271.953 1788.23 175.217 1751.01 57.5173C1713.61 -60.7307 1555.01 -90.7985 1428.81 -107.473C1327.48 -120.861 1241.24 -52.4731 1141.88 -22.9634C1008.55 16.632 836.306 -21.4225 757.293 91.9515C673.684 211.92 685.618 393.515 775.784 502.335C859.006 602.774 1024.36 545.025 1155.11 572.067C1253.84 592.487 1343.7 680.53 1437.81 639.257C1532.31 597.812 1535.89 473.598 1584.19 383.882Z" stroke="#1BBA48" stroke-width="2"/>
<path opacity="0.588235" fill-rule="evenodd" clip-rule="evenodd" d="M1594.19 381.541C1652.48 268.674 1794.6 169.563 1755.25 52.5937C1715.73 -64.9202 1556.51 -92.2567 1429.95 -106.764C1328.33 -118.411 1243.27 -48.607 1144.38 -17.4253C1011.69 24.4135 838.679 -10.6704 761.652 103.96C680.145 225.259 695.329 406.503 787.486 513.695C872.545 612.633 1036.95 552.108 1168.25 576.897C1267.4 595.615 1358.87 682.053 1452.29 639.207C1546.1 596.183 1547.46 472.008 1594.19 381.541Z" stroke="#1BBA48" stroke-width="2"/>
<path opacity="0.596639" fill-rule="evenodd" clip-rule="evenodd" d="M1604.16 379.321C1660.46 265.55 1800.88 164.094 1759.43 47.8909C1717.78 -68.8531 1557.99 -93.45 1431.11 -105.785C1329.23 -115.689 1245.37 -44.4895 1146.99 -11.6452C1014.98 32.4243 841.257 0.321694 766.239 116.174C686.859 238.765 705.29 419.603 799.409 525.136C886.279 622.541 1049.69 559.26 1181.5 581.788C1281.03 598.799 1374.1 683.605 1466.79 639.2C1559.88 594.609 1559.03 470.512 1604.16 379.321Z" stroke="#1BBB48" stroke-width="2"/>
<path opacity="0.605042" fill-rule="evenodd" clip-rule="evenodd" d="M1614.1 377.219C1668.4 262.58 1807.08 158.81 1763.53 43.4084C1719.77 -72.5301 1559.47 -94.3798 1432.29 -104.539C1330.19 -112.696 1247.56 -40.1233 1149.71 -5.62652C1018.43 40.6603 844.043 11.5488 771.058 128.587C693.828 252.434 715.5 432.811 811.553 536.652C900.208 632.495 1062.57 566.476 1194.85 586.736C1294.73 602.034 1389.36 685.183 1481.31 639.232C1573.65 593.089 1570.58 469.107 1614.1 377.219Z" stroke="#1BBC49" stroke-width="2"/>
<path opacity="0.613445" fill-rule="evenodd" clip-rule="evenodd" d="M1624.02 375.241C1676.3 259.767 1813.2 153.715 1767.56 39.1501C1721.71 -75.9476 1560.93 -95.0436 1433.51 -103.024C1331.21 -109.432 1249.84 -35.5076 1152.56 0.631222C1022.03 49.1213 847.04 23.0097 776.11 141.199C701.054 266.263 725.961 446.124 823.918 548.241C914.331 642.494 1075.59 573.758 1208.3 591.743C1308.51 605.324 1404.67 686.791 1495.85 639.307C1587.41 591.626 1582.12 467.796 1624.02 375.241Z" stroke="#1BBD49" stroke-width="2"/>
<path opacity="0.621849" fill-rule="evenodd" clip-rule="evenodd" d="M1633.93 373.382C1684.17 257.11 1819.24 148.806 1771.53 35.1137C1723.6 -79.1082 1562.4 -95.4446 1434.78 -101.244C1332.31 -105.9 1252.21 -30.6473 1155.53 7.12255C1025.81 57.8011 850.257 34.6973 781.403 154.002C708.544 280.246 736.678 459.535 836.51 559.898C928.653 652.531 1088.77 581.098 1221.86 596.804C1322.37 608.664 1420.04 688.423 1510.41 639.422C1601.16 590.216 1593.66 466.577 1633.93 373.382Z" stroke="#1BBD49" stroke-width="2"/>
<path opacity="0.630252" fill-rule="evenodd" clip-rule="evenodd" d="M1643.82 371.646C1692.01 254.611 1825.21 144.09 1775.45 31.3038C1725.45 -82.0075 1563.88 -95.5793 1436.08 -99.1957C1333.48 -102.099 1254.69 -25.5404 1158.63 13.8489C1029.75 66.7005 853.697 46.6116 786.94 166.994C716.301 294.379 747.653 473.043 849.329 571.621C943.174 662.606 1102.09 588.498 1235.54 601.92C1336.3 612.055 1435.45 690.082 1524.99 639.578C1614.91 588.864 1605.19 465.453 1643.82 371.646Z" stroke="#1BBE49" stroke-width="2"/>
<path opacity="0.638655" fill-rule="evenodd" clip-rule="evenodd" d="M1653.69 370.033C1699.81 252.27 1831.11 139.566 1779.3 27.7202C1727.26 -84.646 1565.36 -95.4491 1437.44 -96.8814C1334.73 -98.0314 1257.27 -20.1899 1161.87 20.8069C1033.86 75.8154 857.36 58.7475 792.721 180.172C724.323 308.659 758.884 486.644 862.373 583.405C957.892 672.715 1115.57 595.955 1249.32 607.089C1350.32 615.495 1450.91 691.767 1539.59 639.776C1628.65 587.568 1616.72 464.423 1653.69 370.033Z" stroke="#1BBF4A" stroke-width="2"/>
<path opacity="0.647059" fill-rule="evenodd" clip-rule="evenodd" d="M1663.55 368.54C1707.59 250.085 1836.94 135.232 1783.11 24.361C1729.03 -87.0257 1566.86 -95.0569 1438.84 -94.3047C1336.06 -93.7008 1259.95 -14.6003 1165.24 27.9915C1038.15 85.1401 861.256 71.0985 798.755 193.528C732.618 323.078 770.377 500.328 875.648 595.245C972.811 682.853 1129.19 603.464 1263.21 612.305C1364.41 618.981 1466.42 693.474 1554.22 640.012C1642.39 586.326 1628.25 463.485 1663.55 368.54Z" stroke="#1BC04A" stroke-width="2"/>
<path opacity="0.655462" fill-rule="evenodd" clip-rule="evenodd" d="M1673.4 367.17C1715.35 248.06 1842.71 131.092 1786.87 21.2297C1730.77 -89.1437 1568.37 -94.4004 1440.31 -91.4639C1337.49 -89.1063 1262.75 -8.77104 1168.75 35.4029C1042.62 94.6742 865.384 83.6631 805.038 207.06C741.183 337.634 782.129 514.096 889.15 607.139C987.928 693.017 1142.97 611.023 1277.22 617.57C1378.58 622.514 1481.97 695.206 1568.86 640.288C1656.12 585.141 1639.78 462.641 1673.4 367.17Z" stroke="#1CC04A" stroke-width="2"/>
<path opacity="0.663866" fill-rule="evenodd" clip-rule="evenodd" d="M1683.25 365.922C1723.08 246.193 1848.42 127.145 1790.59 18.3256C1732.49 -91.0009 1569.91 -93.4815 1441.84 -88.3617C1339 -84.2511 1265.67 -2.70547 1172.41 43.037C1047.27 104.413 869.75 96.4358 811.58 220.762C750.026 352.321 794.146 527.94 902.883 619.082C1003.25 703.204 1156.9 618.631 1291.33 622.881C1392.84 626.091 1497.58 696.959 1583.53 640.603C1669.85 584.011 1651.31 461.889 1683.25 365.922Z" stroke="#1CC14B" stroke-width="2"/>
<path opacity="0.672269" fill-rule="evenodd" clip-rule="evenodd" d="M1693.08 364.796C1730.8 244.484 1854.07 123.394 1794.26 15.6498C1734.18 -92.5965 1571.48 -92.3003 1443.43 -84.9987C1340.62 -79.1363 1268.7 3.59485 1176.21 50.892C1052.11 114.354 874.357 109.413 818.379 234.631C759.145 367.134 806.427 541.858 916.848 631.07C1018.77 713.411 1170.99 626.283 1305.56 628.236C1407.18 629.71 1513.24 698.734 1598.23 640.956C1683.57 582.937 1662.85 461.23 1693.08 364.796Z" stroke="#1CC24B" stroke-width="2"/>
<path opacity="0.680672" fill-rule="evenodd" clip-rule="evenodd" d="M1702.91 363.793C1738.5 242.935 1859.67 119.839 1797.91 13.2029C1735.86 -93.9302 1573.08 -90.8573 1445.1 -81.3761C1342.34 -73.7637 1271.87 10.1277 1180.17 58.9651C1057.14 124.494 879.211 122.591 825.442 248.663C768.546 382.069 818.974 555.844 931.045 643.099C1034.49 723.634 1185.23 633.979 1319.9 633.633C1421.6 633.372 1528.95 700.529 1612.95 641.348C1697.3 581.919 1674.39 460.665 1702.91 363.793Z" stroke="#1CC34B" stroke-width="2"/>
<path opacity="0.689076" fill-rule="evenodd" clip-rule="evenodd" d="M1712.75 362.913C1746.19 241.546 1865.22 116.482 1801.52 10.9861C1737.53 -95.0011 1574.72 -89.1525 1446.84 -77.4945C1344.17 -68.1346 1275.16 16.8917 1184.29 67.2544C1062.37 134.83 884.315 135.965 832.773 262.853C778.232 397.121 831.791 569.895 945.478 655.166C1050.41 733.871 1199.63 641.716 1334.37 639.072C1436.11 637.075 1544.71 702.345 1627.69 641.778C1711.03 580.958 1685.94 460.194 1712.75 362.913Z" stroke="#1CC34B" stroke-width="2"/>
<path opacity="0.697479" fill-rule="evenodd" clip-rule="evenodd" d="M1722.57 362.153C1753.87 240.312 1870.72 113.319 1805.11 8.99546C1739.19 -95.8136 1576.4 -87.191 1448.67 -73.3599C1346.11 -62.2551 1278.58 23.88 1188.57 75.7528C1067.79 145.354 889.67 149.528 840.369 277.192C788.2 412.283 844.874 584.003 960.143 667.264C1066.53 744.114 1214.18 649.487 1348.94 644.545C1450.7 640.814 1560.52 704.178 1642.46 642.243C1724.75 580.05 1697.49 459.812 1722.57 362.153Z" stroke="#1CC44C" stroke-width="2"/>
<path opacity="0.705882" fill-rule="evenodd" clip-rule="evenodd" d="M1732.41 361.516C1761.54 239.24 1876.18 110.355 1808.67 7.23639C1740.85 -96.3626 1578.13 -84.9686 1450.58 -68.9686C1348.17 -56.1224 1282.15 31.0953 1193.02 84.4623C1073.42 156.069 895.282 163.279 848.237 291.681C798.456 427.553 858.228 598.166 975.043 679.393C1082.86 754.364 1228.89 657.294 1363.63 650.056C1465.37 644.591 1576.38 706.029 1657.26 642.746C1738.48 579.199 1709.06 459.523 1732.41 361.516Z" stroke="#1CC54C" stroke-width="2"/>
<path opacity="0.714286" fill-rule="evenodd" clip-rule="evenodd" d="M1742.25 361.002C1769.21 238.328 1881.6 107.591 1812.22 5.7078C1742.51 -96.6496 1579.91 -82.4877 1452.58 -64.3236C1350.35 -49.74 1285.85 38.5339 1197.63 93.3788C1079.25 166.968 901.152 177.213 856.379 306.314C809.001 442.925 871.852 612.38 990.178 691.547C1099.39 764.617 1243.76 665.134 1378.44 655.602C1480.13 648.405 1592.3 707.899 1672.09 643.287C1752.21 578.405 1720.64 459.328 1742.25 361.002Z" stroke="#1CC64C" stroke-width="2"/>
<path opacity="0.722689" fill-rule="evenodd" clip-rule="evenodd" d="M1752.09 360.609C1776.88 237.574 1886.99 105.025 1815.75 4.40881C1744.17 -96.6759 1581.75 -79.7504 1454.68 -59.4277C1352.65 -43.111 1289.7 46.192 1202.42 102.498C1085.3 178.048 907.289 191.324 864.8 321.085C819.839 458.394 885.75 626.639 1005.55 703.722C1116.13 774.869 1258.79 673.002 1393.36 661.18C1494.98 652.252 1608.27 709.784 1686.94 643.862C1765.95 577.666 1732.23 459.225 1752.09 360.609Z" stroke="#1CC64D" stroke-width="2"/>
<path opacity="0.731092" fill-rule="evenodd" clip-rule="evenodd" d="M1761.95 360.337C1784.54 236.979 1892.35 102.658 1819.27 3.33943C1745.85 -96.4416 1583.65 -76.7577 1456.88 -54.2828C1355.09 -36.2379 1293.7 54.067 1207.38 111.817C1091.55 189.305 913.69 205.609 873.498 335.989C830.968 473.954 899.92 640.937 1021.16 715.913C1133.06 785.115 1273.98 680.896 1408.41 666.787C1509.92 656.132 1624.29 711.683 1701.83 644.473C1779.69 576.981 1743.83 459.212 1761.95 360.337Z" stroke="#1DC74D" stroke-width="2"/>
<path opacity="0.739496" fill-rule="evenodd" clip-rule="evenodd" d="M1771.81 360.187C1792.22 236.544 1897.67 100.491 1822.78 2.50039C1747.55 -95.9467 1585.61 -73.5104 1459.18 -48.8899C1357.66 -29.1225 1297.86 62.1569 1212.52 121.334C1098.02 200.736 920.361 220.062 882.479 351.023C842.394 489.601 914.364 655.272 1037 728.118C1150.2 795.354 1289.32 688.815 1423.57 672.422C1524.95 660.044 1640.37 713.598 1716.74 645.118C1793.44 576.353 1755.46 459.291 1771.81 360.187Z" stroke="#1DC84D" stroke-width="2"/>
<path opacity="0.747899" fill-rule="evenodd" clip-rule="evenodd" d="M1781.69 360.157C1799.9 236.266 1902.98 98.5237 1826.3 1.89046C1749.26 -95.1927 1587.65 -70.0108 1461.59 -43.2523C1360.38 -21.7683 1302.17 70.4578 1217.85 131.043C1104.71 212.335 927.306 234.677 891.745 366.179C854.116 505.329 929.084 669.637 1053.09 740.331C1167.54 805.581 1304.83 696.753 1438.86 678.082C1540.06 663.984 1656.49 715.524 1731.69 645.797C1807.19 575.778 1767.1 459.459 1781.69 360.157Z" stroke="#1DC94D" stroke-width="2"/>
<path opacity="0.756303" fill-rule="evenodd" clip-rule="evenodd" d="M1791.59 360.248C1807.59 236.147 1908.26 96.7574 1829.81 1.51119C1751 -94.1784 1589.76 -66.2586 1464.11 -37.3703C1363.23 -14.1763 1306.65 78.9684 1223.37 140.944C1111.62 224.101 934.525 249.453 901.296 381.454C866.135 521.134 944.077 684.03 1069.41 752.55C1185.09 815.793 1320.5 704.71 1454.26 683.767C1555.26 667.953 1672.68 717.465 1746.66 646.51C1820.95 575.26 1778.76 459.719 1791.59 360.248Z" stroke="#1DC94E" stroke-width="2"/>
<path opacity="0.764706" fill-rule="evenodd" clip-rule="evenodd" d="M1801.5 360.46C1815.29 236.187 1913.52 95.192 1833.33 1.36188C1752.78 -92.9051 1591.95 -62.2558 1466.75 -31.2464C1366.24 -6.34948 1311.29 87.6854 1229.07 151.032C1118.76 236.029 942.025 264.383 911.138 396.845C878.455 537.011 959.348 698.444 1085.97 764.77C1202.83 825.987 1336.33 712.683 1469.78 689.475C1570.55 671.949 1688.91 719.417 1761.67 647.257C1834.72 574.796 1790.45 460.07 1801.5 360.46Z" stroke="#1DCA4E" stroke-width="2"/>
<path opacity="0.773109" fill-rule="evenodd" clip-rule="evenodd" d="M1811.43 360.792C1823.01 236.384 1918.77 93.8269 1836.87 1.44146C1754.58 -91.3741 1594.22 -58.0047 1469.52 -24.8838C1369.39 1.70858 1316.1 96.605 1234.97 161.303C1126.12 248.114 949.805 279.462 921.271 412.343C891.076 552.954 974.895 712.876 1102.76 776.986C1220.78 836.159 1352.32 720.669 1485.43 695.201C1585.94 675.97 1705.21 721.379 1776.7 648.036C1848.5 574.387 1802.16 460.509 1811.43 360.792Z" stroke="#1DCB4E" stroke-width="2"/>
<path opacity="0.781513" fill-rule="evenodd" clip-rule="evenodd" d="M1821.39 361.242C1830.75 236.737 1924.01 92.661 1840.41 1.74836C1756.43 -89.5875 1596.58 -53.5082 1472.41 -18.2858C1372.71 9.99384 1321.08 105.723 1241.07 171.754C1133.72 260.352 957.871 294.683 931.697 427.944C904 568.956 990.72 727.317 1119.8 789.193C1238.94 846.304 1368.48 728.662 1501.2 700.944C1601.41 680.013 1721.55 723.349 1791.78 648.846C1862.29 574.031 1813.89 461.036 1821.39 361.242Z" stroke="#1DCC4F" stroke-width="2"/>
<path opacity="0.789916" fill-rule="evenodd" clip-rule="evenodd" d="M1831.37 361.811C1838.51 237.247 1929.24 91.6965 1843.98 2.28437C1758.32 -87.544 1599.03 -48.7658 1475.43 -11.4526C1376.18 18.5057 1326.24 115.038 1247.37 182.381C1141.54 272.739 966.225 310.044 942.419 443.644C917.228 585.014 1006.82 741.767 1137.07 801.39C1257.29 856.421 1384.8 736.664 1517.08 706.702C1616.98 684.078 1737.95 725.329 1806.88 649.687C1876.1 573.729 1825.65 461.653 1831.37 361.811Z" stroke="#1DCC4F" stroke-width="2"/>
<path opacity="0.798319" fill-rule="evenodd" clip-rule="evenodd" d="M1841.37 362.5C1846.29 237.915 1934.47 90.9341 1847.56 3.04974C1760.26 -85.2438 1601.58 -43.7785 1478.58 -4.38581C1379.82 27.242 1331.58 124.549 1253.87 193.183C1149.61 285.274 974.867 325.541 953.436 459.438C930.759 601.124 1023.2 756.221 1154.58 813.572C1275.84 866.507 1401.27 744.671 1533.09 712.475C1632.63 688.165 1754.41 727.317 1822.02 650.56C1889.91 573.483 1837.44 462.358 1841.37 362.5Z" stroke="#1DCD4F" stroke-width="2"/>
<path opacity="0.806723" fill-rule="evenodd" clip-rule="evenodd" d="M1851.41 363.306C1854.1 238.739 1939.7 90.3719 1851.18 4.04207C1762.25 -82.6897 1604.24 -38.5499 1481.88 2.91017C1383.63 36.1979 1337.11 134.249 1260.59 204.154C1157.91 297.95 983.803 341.167 964.754 475.321C944.598 617.279 1039.86 770.672 1172.33 825.735C1294.6 876.557 1417.92 752.678 1549.23 718.26C1648.38 692.27 1770.92 729.312 1837.19 651.464C1903.74 573.29 1849.25 463.151 1851.41 363.306Z" stroke="#1DCE4F" stroke-width="2"/>
<path opacity="0.815126" fill-rule="evenodd" clip-rule="evenodd" d="M1861.48 364.231C1861.94 239.719 1944.93 90.0112 1854.82 5.26215C1764.3 -79.8815 1607 -33.0806 1485.31 10.4343C1387.62 45.3717 1342.82 144.137 1267.51 215.291C1166.46 310.764 993.033 356.917 976.373 491.288C958.743 633.475 1056.79 785.118 1190.31 837.875C1313.56 886.569 1434.72 760.686 1565.48 724.054C1664.22 696.393 1787.48 731.314 1852.4 652.397C1917.59 573.151 1861.1 464.031 1861.48 364.231Z" stroke="#1ECF50" stroke-width="2"/>
<path opacity="0.823529" fill-rule="evenodd" clip-rule="evenodd" d="M1871.57 365.27C1869.82 240.851 1950.17 89.8485 1858.5 6.70606C1766.41 -76.8235 1609.87 -27.3758 1488.9 18.1806C1391.78 54.7571 1348.72 154.207 1274.64 226.589C1175.25 323.709 1002.56 372.785 988.293 507.331C973.196 649.703 1074 799.55 1208.54 849.985C1332.71 896.536 1451.69 768.688 1581.86 729.853C1680.16 700.53 1804.1 733.318 1867.64 653.358C1931.45 573.063 1872.98 464.996 1871.57 365.27Z" stroke="#1ECF50" stroke-width="2"/>
<path opacity="0.831933" fill-rule="evenodd" clip-rule="evenodd" d="M1881.71 366.426C1877.72 242.138 1955.42 89.8866 1862.22 8.37611C1768.59 -73.5139 1612.85 -21.4345 1492.64 26.1496C1396.12 64.3541 1354.82 164.458 1282 238.046C1184.29 336.783 1012.39 388.767 1000.52 523.447C987.957 665.962 1091.49 813.966 1227 862.065C1352.07 906.459 1468.82 776.683 1598.37 735.658C1696.19 704.681 1820.78 735.327 1882.92 654.347C1945.33 573.029 1884.9 466.047 1881.71 366.426Z" stroke="#1ED050" stroke-width="2"/>
<path opacity="0.840336" fill-rule="evenodd" clip-rule="evenodd" d="M1891.88 367.698C1885.67 243.579 1960.69 90.1245 1865.98 10.2708C1770.84 -69.9547 1615.95 -15.2594 1496.53 34.3378C1400.64 74.1587 1361.11 174.887 1289.57 249.657C1193.58 349.982 1022.52 404.857 1013.05 539.631C1003.03 682.245 1109.26 828.362 1245.69 874.109C1371.62 916.332 1486.11 784.669 1614.99 741.467C1712.31 708.845 1837.51 737.34 1898.24 655.365C1959.22 573.047 1896.85 467.184 1891.88 367.698Z" stroke="#1ED151" stroke-width="2"/>
<path opacity="0.84874" fill-rule="evenodd" clip-rule="evenodd" d="M1902.09 369.084C1893.66 245.171 1965.97 90.5613 1869.79 12.3887C1773.17 -66.1478 1619.18 -8.85341 1500.58 42.7418C1405.36 84.1669 1367.61 185.488 1297.36 261.419C1203.12 363.301 1032.95 421.051 1025.89 555.877C1018.41 698.546 1127.31 842.732 1264.63 886.113C1391.37 926.153 1503.57 792.642 1631.74 747.275C1728.52 713.019 1854.3 739.354 1913.59 656.409C1973.13 573.118 1908.84 468.404 1902.09 369.084Z" stroke="#1ED251" stroke-width="2"/>
<path opacity="0.857143" fill-rule="evenodd" clip-rule="evenodd" d="M1912.34 370.584C1901.69 246.915 1971.28 91.1961 1873.65 14.7283C1775.57 -62.0954 1622.53 -2.21921 1504.79 51.3584C1410.27 94.3751 1374.31 196.258 1305.39 273.327C1212.91 376.735 1043.69 437.342 1039.03 572.18C1034.1 714.861 1145.63 857.071 1283.8 898.073C1411.32 935.917 1521.19 800.6 1648.61 753.082C1744.83 717.201 1871.15 741.369 1928.99 657.479C1987.07 573.239 1920.87 469.708 1912.34 370.584Z" stroke="#1ED251" stroke-width="2"/>
<path opacity="0.865546" fill-rule="evenodd" clip-rule="evenodd" d="M1922.63 372.198C1909.77 248.811 1976.61 92.0311 1877.57 17.2916C1778.07 -57.7959 1626.02 4.64383 1509.18 60.1875C1415.37 104.783 1381.21 207.197 1313.63 285.379C1222.96 390.282 1054.74 453.728 1052.49 588.536C1050.1 731.185 1164.23 871.376 1303.2 909.987C1431.46 945.624 1538.97 808.541 1665.61 758.888C1761.24 721.394 1888.05 743.385 1944.42 658.576C2001.02 573.413 1932.94 471.096 1922.63 372.198Z" stroke="#1ED351" stroke-width="2"/>
<path opacity="0.87395" fill-rule="evenodd" clip-rule="evenodd" d="M1932.97 373.923C1917.9 250.856 1981.97 93.0622 1881.54 20.0737C1780.65 -53.2546 1629.64 11.7295 1513.73 69.2223C1420.67 115.382 1388.33 218.297 1322.11 297.569C1233.27 403.934 1066.09 470.2 1066.25 604.937C1066.42 747.511 1183.11 885.64 1322.83 921.848C1451.8 955.267 1556.91 816.461 1682.73 764.686C1777.73 725.59 1905 745.4 1959.88 659.698C2015 573.637 1945.05 472.565 1932.97 373.923Z" stroke="#1ED452" stroke-width="2"/>
<path opacity="0.882353" fill-rule="evenodd" clip-rule="evenodd" d="M1943.36 375.761C1926.08 253.051 1987.36 94.2913 1885.58 23.076C1783.32 -48.4709 1633.4 19.0379 1518.46 78.4622C1426.18 126.173 1395.66 229.556 1330.82 309.894C1243.83 417.689 1077.76 486.755 1080.33 621.38C1083.04 763.835 1202.26 899.861 1342.7 933.655C1472.33 964.846 1575.02 824.358 1699.97 770.477C1794.33 729.792 1922.01 747.413 1975.39 660.844C2028.99 573.913 1957.21 474.116 1943.36 375.761Z" stroke="#1ED552" stroke-width="2"/>
<path opacity="0.890756" fill-rule="evenodd" clip-rule="evenodd" d="M1953.79 377.707C1934.31 255.392 1992.79 95.7151 1889.68 26.2946C1786.1 -43.449 1637.3 26.564 1523.37 87.9018C1431.89 137.149 1403.2 240.969 1339.77 322.348C1254.67 431.541 1089.74 503.385 1094.71 637.857C1099.98 780.151 1221.69 914.031 1362.81 945.4C1493.06 974.354 1593.28 832.227 1717.34 776.258C1811.01 733.995 1939.08 749.423 1990.94 662.013C2043.01 574.237 1969.41 475.747 1953.79 377.707Z" stroke="#1FD552" stroke-width="2"/>
<path opacity="0.89916" fill-rule="evenodd" clip-rule="evenodd" d="M1964.28 379.763C1942.6 257.879 1998.25 97.3344 1893.86 29.73C1788.97 -38.1891 1641.35 34.3067 1528.46 97.5393C1437.82 148.308 1410.97 252.533 1348.96 334.929C1265.76 445.486 1102.04 520.086 1109.42 654.364C1117.22 796.453 1241.39 928.148 1383.14 957.083C1513.97 983.789 1611.71 840.068 1734.83 782.026C1827.8 738.199 1956.2 751.429 2006.52 663.204C2057.06 574.611 1981.66 477.457 1964.28 379.763Z" stroke="#1FD653" stroke-width="2"/>
<path opacity="0.907563" fill-rule="evenodd" clip-rule="evenodd" d="M1974.82 381.929C1950.95 260.514 2003.76 99.1496 1898.1 33.3818C1791.95 -32.6922 1645.55 42.2644 1533.73 107.372C1443.95 159.647 1418.95 264.246 1358.39 347.633C1277.12 459.52 1114.65 536.855 1124.43 670.898C1134.78 812.738 1261.36 942.207 1403.7 968.699C1535.08 993.151 1630.3 847.878 1752.44 787.782C1844.67 742.404 1973.38 753.431 2022.15 664.419C2071.13 575.036 1993.95 479.247 1974.82 381.929Z" stroke="#1FD753" stroke-width="2"/>
<path opacity="0.915966" fill-rule="evenodd" clip-rule="evenodd" d="M1985.42 384.202C1959.37 263.293 2009.32 101.158 1902.43 37.2471C1795.05 -26.9616 1649.91 50.4328 1539.2 117.397C1450.31 171.161 1427.17 276.102 1368.06 360.455C1288.75 473.639 1127.58 553.683 1139.76 687.451C1152.65 829 1281.61 956.203 1424.5 980.244C1556.38 1002.43 1649.05 855.654 1770.18 793.522C1861.65 746.606 1990.61 755.428 2037.82 665.656C2085.22 575.509 2006.3 481.115 1985.42 384.202Z" stroke="#1FD853" stroke-width="2"/>
<path opacity="0.92437" fill-rule="evenodd" clip-rule="evenodd" d="M1996.07 386.582C1967.85 266.216 2014.93 103.36 1906.84 41.3247C1798.26 -20.9991 1654.43 58.8096 1544.86 127.609C1456.88 182.847 1435.6 288.097 1377.98 373.391C1300.65 487.836 1140.83 570.567 1155.41 704.018C1170.83 845.232 1302.13 970.131 1445.52 991.714C1577.86 1011.64 1667.95 863.392 1788.04 799.243C1878.71 750.804 2007.9 757.418 2053.53 666.913C2099.35 576.03 2018.69 483.06 1996.07 386.582Z" stroke="#1FD853" stroke-width="2"/>
<path opacity="0.932773" fill-rule="evenodd" clip-rule="evenodd" d="M2006.78 389.066C1976.39 269.279 2020.59 105.752 1911.34 45.6117C1801.58 -14.8082 1659.11 67.3905 1550.71 138.004C1463.68 194.699 1444.27 300.227 1388.14 386.436C1312.82 502.107 1154.39 587.499 1171.36 720.593C1189.32 861.429 1322.92 983.986 1466.76 1003.1C1599.53 1020.75 1687.02 871.09 1806.02 804.944C1895.87 754.996 2025.25 759.399 2069.28 668.189C2113.5 576.598 2031.14 485.08 2006.78 389.066Z" stroke="#1FD954" stroke-width="2"/>
<path opacity="0.941176" fill-rule="evenodd" clip-rule="evenodd" d="M2017.55 391.656C1985.01 272.485 2026.3 108.335 1915.93 50.1089C1805.03 -8.38877 1663.96 76.1749 1556.77 148.581C1470.71 206.715 1453.17 312.49 1398.55 399.586C1325.26 516.45 1168.28 604.475 1187.64 737.172C1208.12 877.588 1343.98 997.765 1488.24 1014.41C1621.39 1029.78 1706.25 878.746 1824.12 810.623C1913.13 759.182 2042.65 761.374 2085.07 669.486C2127.67 577.214 2043.64 487.176 2017.55 391.656Z" stroke="#1FDA54" stroke-width="2"/>
<path opacity="0.94958" fill-rule="evenodd" clip-rule="evenodd" d="M2028.39 394.349C1993.7 275.83 2032.08 111.109 1920.61 54.8133C1808.61 -1.74432 1668.98 85.1586 1563.03 159.336C1477.96 218.891 1462.31 324.879 1409.22 412.837C1337.98 530.857 1182.49 621.491 1204.23 753.749C1227.23 893.701 1365.3 1011.46 1509.94 1025.63C1643.43 1038.72 1725.63 886.357 1842.35 816.277C1930.48 763.359 2060.11 763.338 2100.91 670.801C2141.88 577.877 2056.2 489.346 2028.39 394.349Z" stroke="#1FDB54" stroke-width="2"/>
<path opacity="0.957983" fill-rule="evenodd" clip-rule="evenodd" d="M2039.29 397.144C2002.47 279.312 2037.92 114.07 1925.39 59.7228C1812.32 5.12257 1674.17 94.3382 1569.49 170.264C1485.45 231.223 1471.68 337.392 1420.13 426.185C1350.97 545.325 1197.02 638.539 1221.14 770.319C1246.65 909.765 1386.9 1025.07 1531.86 1036.77C1665.65 1047.56 1745.17 893.92 1860.7 821.905C1947.93 767.525 2077.62 765.292 2116.79 672.133C2156.12 578.586 2068.81 491.589 2039.29 397.144Z" stroke="#1FDB55" stroke-width="2"/>
<path opacity="0.966387" fill-rule="evenodd" clip-rule="evenodd" d="M2050.26 400.04C2011.31 282.933 2043.83 117.219 1930.27 64.8369C1816.17 12.2105 1679.54 103.712 1576.17 181.362C1493.17 243.706 1481.29 350.024 1431.31 439.625C1364.24 559.849 1211.88 655.614 1238.36 786.877C1266.38 925.774 1408.76 1038.6 1554 1047.8C1688.05 1056.3 1764.87 901.434 1879.16 827.505C1965.47 771.681 2095.18 767.236 2132.71 673.484C2170.39 579.341 2081.48 493.905 2050.26 400.04Z" stroke="#20DC55" stroke-width="2"/>
<path opacity="0.97479" fill-rule="evenodd" clip-rule="evenodd" d="M2061.3 403.035C2020.23 286.687 2049.81 120.553 1935.25 70.1515C1820.16 19.5152 1685.1 113.274 1583.06 192.626C1501.13 256.336 1491.15 362.77 1442.74 453.152C1377.78 574.423 1227.06 672.711 1255.9 803.415C1286.42 941.721 1430.88 1052.02 1576.36 1058.74C1710.63 1064.95 1784.72 908.893 1897.75 833.073C1983.1 775.821 2112.81 769.166 2148.67 674.85C2184.69 580.14 2094.21 496.291 2061.3 403.035Z" stroke="#20DD55" stroke-width="2"/>
<path opacity="0.983193" fill-rule="evenodd" clip-rule="evenodd" d="M2072.4 406.127C2029.24 290.575 2055.86 124.071 1940.34 75.6653C1824.29 27.0343 1690.83 123.022 1590.16 204.051C1509.33 269.108 1501.24 375.627 1454.42 466.761C1391.6 589.042 1242.56 689.823 1273.75 819.929C1306.76 957.602 1453.27 1065.35 1598.94 1069.58C1733.39 1073.49 1804.73 916.295 1916.46 838.608C2000.83 779.946 2130.48 771.083 2164.68 676.231C2199.02 580.983 2107 498.746 2072.4 406.127Z" stroke="#20DE55" stroke-width="2"/>
<path opacity="0.991597" fill-rule="evenodd" clip-rule="evenodd" d="M2083.58 409.32C2038.33 294.598 2061.99 127.775 1945.55 81.3799C1828.57 34.7692 1696.76 132.957 1597.48 215.639C1517.77 282.022 1511.59 388.592 1466.37 480.452C1405.71 603.706 1258.39 706.949 1291.92 836.417C1327.4 973.415 1475.91 1078.57 1621.73 1080.32C1756.33 1081.93 1824.89 923.643 1935.29 844.112C2018.66 784.057 2148.21 772.988 2180.73 677.63C2213.39 581.873 2119.85 501.273 2083.58 409.32Z" stroke="#20DE56" stroke-width="2"/>
<path fill-rule="evenodd" clip-rule="evenodd" d="M2094.83 412.607C2047.51 298.75 2068.2 131.658 1950.87 87.2884C1833 42.7121 1702.88 143.07 1605.03 227.379C1526.47 295.069 1522.18 401.658 1478.59 494.215C1420.09 618.405 1274.54 724.078 1310.41 852.869C1348.35 989.151 1498.82 1091.69 1644.75 1090.94C1779.43 1090.25 1845.2 930.928 1954.24 849.577C2036.57 788.148 2166 774.877 2196.83 679.04C2227.8 582.804 2132.77 503.866 2094.83 412.607Z" stroke="#20DF56" stroke-width="2"/>
</g>
</svg>
