<svg width="526" height="364" viewBox="0 0 526 364" fill="none" xmlns="http://www.w3.org/2000/svg">
<path opacity="0.01" fill-rule="evenodd" clip-rule="evenodd" d="M414.751 -100.52C392.945 -57.8469 370.699 -16.3209 362.996 30.9779C354.097 85.6197 345.249 143.176 366.754 194.19C389.47 248.077 430.635 297.852 484.795 319.907C537.933 341.545 597.82 323.833 653.755 311.06C702.14 300.011 744.912 276.913 787.155 250.862C829.618 224.675 869.712 196.742 901.488 158.282C938.594 113.373 1009.41 62.8952 986.831 9.19312C960 -54.6254 838.162 -18.7505 802.192 -77.9015C765.46 -138.305 859.225 -238.525 807.13 -286.316C761.94 -327.773 694.877 -243.813 634.81 -231.455C587.26 -221.672 533.721 -246.305 492.001 -221.482C450.175 -196.595 436.898 -143.861 414.751 -100.52Z" stroke="#874C13"/>
<path opacity="0.0168067" fill-rule="evenodd" clip-rule="evenodd" d="M415.332 -88.029C394.274 -44.9816 372.756 -3.07365 365.88 44.3524C357.936 99.1412 350.093 156.843 372.486 207.474C396.139 260.956 438.165 310.005 492.703 331.112C546.21 351.819 605.779 333.065 661.482 319.317C709.667 307.426 752.029 283.585 793.811 256.8C835.811 229.876 875.411 201.248 906.511 162.24C942.828 116.69 1012.75 64.9833 989.239 11.6835C961.299 -51.657 840.105 -13.6613 803.109 -72.1754C765.328 -131.929 857.329 -233.77 804.408 -280.645C758.501 -321.306 692.915 -236.189 633.072 -222.784C585.7 -212.173 531.739 -235.868 490.459 -210.321C449.073 -184.707 436.718 -131.749 415.332 -88.029Z" stroke="#874D13"/>
<path opacity="0.0252101" fill-rule="evenodd" clip-rule="evenodd" d="M415.959 -75.6328C395.655 -32.2243 374.872 10.0527 368.824 57.5915C361.838 112.511 355.004 170.341 378.276 220.573C402.859 273.634 445.735 321.943 500.633 342.094C554.493 361.864 613.726 342.073 669.181 327.356C717.15 314.625 759.09 290.048 800.398 262.539C841.922 234.886 881.016 205.57 911.431 166.025C946.947 119.849 1015.96 66.9299 991.519 14.0485C962.477 -48.7947 841.965 -8.68965 803.953 -66.5492C765.135 -125.634 855.345 -229.066 801.614 -275.009C755.004 -314.864 690.913 -228.614 631.314 -214.167C584.134 -202.731 529.768 -225.481 488.94 -199.217C448.007 -172.885 436.579 -119.72 415.959 -75.6328Z" stroke="#884D13"/>
<path opacity="0.0336134" fill-rule="evenodd" clip-rule="evenodd" d="M416.632 -63.3343C397.089 -19.5781 377.047 23.0552 371.83 70.6924C365.803 125.725 359.979 183.666 384.125 233.484C409.63 286.108 453.343 333.661 508.583 352.851C562.781 371.678 621.659 350.856 676.849 335.174C724.589 321.608 766.093 296.303 806.915 268.076C847.949 239.703 886.526 209.71 916.247 169.64C950.951 122.85 1019.03 68.7353 993.669 16.2885C963.536 -46.0384 843.742 -3.83618 804.726 -61.0235C764.883 -119.422 853.274 -224.412 798.749 -269.411C751.451 -308.446 688.875 -221.091 629.537 -205.606C582.564 -193.348 527.809 -215.146 487.446 -188.173C446.979 -161.131 436.48 -107.774 416.632 -63.3343Z" stroke="#894E13"/>
<path opacity="0.0420168" fill-rule="evenodd" clip-rule="evenodd" d="M417.349 -51.1319C398.573 -7.04135 379.278 35.9353 374.893 83.6562C369.827 138.786 365.016 196.819 390.027 246.209C416.447 298.38 460.983 345.162 516.55 363.385C571.068 381.264 629.574 359.417 684.481 342.774C731.977 328.377 773.034 302.351 813.357 273.417C853.89 244.332 891.937 213.67 920.954 173.087C954.836 125.699 1021.96 70.4043 995.688 18.408C964.471 -43.3834 845.433 0.903021 805.424 -55.5947C764.568 -113.289 851.113 -219.806 795.811 -263.846C747.839 -302.05 686.797 -213.616 627.738 -197.098C580.987 -184.022 525.86 -204.86 485.973 -177.188C445.984 -149.444 436.419 -95.9114 417.349 -51.1319Z" stroke="#8A4E14"/>
<path opacity="0.0504202" fill-rule="evenodd" clip-rule="evenodd" d="M418.108 -39.0278C400.105 5.3837 381.562 48.6905 378.011 96.4807C373.908 151.69 370.11 209.799 395.98 258.745C423.306 310.446 468.652 356.444 524.528 373.695C579.35 390.619 637.465 367.755 692.074 350.156C739.312 334.932 779.908 308.194 819.72 278.56C859.739 248.772 897.246 217.451 925.549 176.368C958.6 128.396 1024.74 71.938 997.573 20.4081C965.282 -40.8291 847.035 5.52808 806.046 -50.2628C764.19 -107.235 848.862 -215.246 792.8 -258.315C744.169 -295.675 684.68 -206.19 625.918 -188.643C579.402 -174.754 523.919 -194.627 484.522 -166.262C445.023 -137.824 436.393 -84.1333 418.108 -39.0278Z" stroke="#8A4F14"/>
<path opacity="0.0588235" fill-rule="evenodd" clip-rule="evenodd" d="M418.908 -27.0223C401.682 17.6966 383.898 61.3205 381.182 109.165C378.043 164.438 375.26 222.604 401.979 271.091C430.204 322.308 476.345 367.507 532.515 383.78C587.623 399.745 645.331 375.87 699.624 357.321C746.589 341.275 786.712 313.832 826.001 283.508C865.494 253.026 902.448 221.055 930.031 179.485C962.239 130.943 1027.39 73.3393 999.321 22.2915C965.967 -38.3729 848.547 10.041 806.591 -45.026C763.746 -101.259 846.521 -210.732 789.716 -252.815C740.44 -289.321 682.521 -198.811 624.075 -180.242C577.808 -165.542 521.987 -184.444 483.091 -155.396C444.094 -126.274 436.403 -72.4401 418.908 -27.0223Z" stroke="#8B4F14"/>
<path opacity="0.0672269" fill-rule="evenodd" clip-rule="evenodd" d="M419.746 -15.1161C403.303 29.8967 386.284 73.8243 384.402 121.709C382.229 177.028 380.461 235.234 408.023 283.247C437.137 333.964 484.06 378.351 540.505 393.641C595.884 408.642 653.166 383.764 707.127 364.269C753.805 347.406 793.443 319.268 832.196 288.263C871.152 257.096 907.542 224.485 934.395 182.439C965.751 133.343 1029.89 74.6109 1000.93 24.0606C966.524 -36.0124 849.966 14.4434 807.056 -39.883C763.236 -95.3602 844.088 -206.26 786.557 -247.346C736.651 -282.987 680.321 -191.479 622.208 -171.893C576.204 -156.388 520.062 -174.313 481.679 -144.591C443.197 -114.792 436.446 -60.8322 419.746 -15.1161Z" stroke="#8C4F14"/>
<path opacity="0.0756303" fill-rule="evenodd" clip-rule="evenodd" d="M420.622 -3.30877C404.967 41.9841 388.717 86.202 387.671 134.113C386.464 189.461 385.712 247.689 414.108 295.214C444.102 345.414 491.793 388.976 548.496 403.279C604.128 417.311 660.968 391.436 714.581 371.003C760.956 353.328 800.098 324.502 838.304 292.825C876.709 260.983 912.525 227.742 938.64 185.235C969.135 135.599 1032.23 75.7561 1002.4 25.7188C966.952 -33.7445 851.292 18.7378 807.44 -34.8314C762.659 -89.5354 841.563 -201.83 783.324 -241.905C732.804 -276.669 678.079 -184.193 620.316 -163.595C574.591 -147.29 518.144 -164.232 480.286 -133.844C442.329 -103.379 436.521 -49.3094 420.622 -3.30877Z" stroke="#8D5014"/>
<path opacity="0.0840336" fill-rule="evenodd" clip-rule="evenodd" d="M421.532 8.39653C406.67 53.9557 391.194 98.4505 390.985 146.372C390.743 201.733 391.008 259.965 420.229 306.987C451.095 356.657 499.538 399.38 556.482 412.69C612.351 425.749 668.73 398.887 721.978 377.521C768.039 359.039 806.671 329.535 844.318 297.196C882.162 264.689 917.393 230.827 942.762 187.871C972.385 137.71 1034.43 76.7752 1003.73 27.2662C967.247 -31.5693 852.521 22.9235 807.741 -29.8722C762.012 -83.7863 838.944 -197.44 780.014 -236.494C728.895 -270.371 675.793 -176.953 618.398 -155.351C572.964 -138.25 516.231 -154.204 478.908 -123.161C441.489 -92.0369 436.625 -37.8746 421.532 8.39653Z" stroke="#8D5014"/>
<path opacity="0.092437" fill-rule="evenodd" clip-rule="evenodd" d="M422.476 20.0017C408.412 65.8133 393.715 110.571 394.342 158.489C395.066 213.846 396.347 272.065 426.384 318.57C458.113 367.693 507.295 409.564 564.462 421.879C620.55 433.961 676.452 406.118 729.319 383.827C775.05 364.544 813.161 334.369 850.239 301.378C887.51 268.216 922.144 233.745 946.759 190.352C975.503 139.682 1036.48 77.6734 1004.92 28.7077C967.411 -29.4821 853.654 27.0046 807.959 -25.0015C761.296 -78.1093 836.233 -193.089 776.63 -231.108C724.928 -264.087 673.464 -169.757 616.455 -147.156C571.326 -129.265 514.323 -144.227 477.548 -112.537C440.678 -80.7648 436.76 -26.5258 422.476 20.0017Z" stroke="#8E5114"/>
<path opacity="0.10084" fill-rule="evenodd" clip-rule="evenodd" d="M423.452 31.5056C410.189 77.5557 396.275 122.564 397.739 170.463C399.43 225.799 401.726 283.986 432.57 329.96C465.151 378.522 515.056 419.528 572.43 430.843C628.721 441.945 684.128 413.131 736.598 389.92C781.985 369.842 819.564 339.007 856.06 305.374C892.746 271.566 926.774 236.496 950.628 192.68C978.483 141.516 1038.36 78.4528 1005.96 30.0453C967.44 -27.4811 854.686 30.9824 808.09 -20.2184C760.508 -72.5037 833.427 -188.774 773.17 -225.746C720.899 -257.819 671.09 -162.605 614.484 -139.012C569.675 -120.336 512.419 -134.301 476.202 -101.974C439.892 -69.5632 436.922 -15.2641 423.452 31.5056Z" stroke="#8F5114"/>
<path opacity="0.109244" fill-rule="evenodd" clip-rule="evenodd" d="M424.458 42.9067C412.001 89.1813 398.875 134.425 401.174 182.292C403.83 237.59 407.142 295.728 438.784 341.156C472.207 389.142 522.82 429.271 580.383 439.584C636.858 449.701 691.754 419.925 743.811 395.801C788.841 374.934 825.876 343.448 861.78 309.183C897.87 274.74 931.281 239.081 954.367 194.856C981.324 143.213 1040.1 79.1151 1006.85 31.2806C967.334 -25.5649 855.617 34.8575 808.135 -15.5222C759.647 -66.9691 830.526 -184.494 769.633 -220.409C716.811 -251.565 668.67 -155.496 612.485 -130.919C568.008 -111.464 510.517 -124.427 474.87 -91.4729C439.132 -58.4336 437.109 -4.09091 424.458 42.9067Z" stroke="#905214"/>
<path opacity="0.117647" fill-rule="evenodd" clip-rule="evenodd" d="M425.492 54.2042C413.845 100.689 401.51 146.155 404.644 193.974C408.265 249.218 412.591 307.289 445.021 352.158C479.277 399.554 530.583 438.793 588.316 448.099C644.96 457.23 699.328 426.5 750.956 401.472C795.615 379.822 832.095 347.694 867.395 312.808C902.879 277.74 935.662 241.504 957.972 196.882C984.024 144.777 1041.67 79.6626 1007.59 32.4158C967.091 -23.7315 856.445 38.6315 808.091 -10.912C758.713 -61.5048 827.529 -180.249 766.019 -215.096C712.661 -245.324 666.205 -148.431 610.457 -122.877C566.326 -102.648 508.618 -114.606 473.552 -81.0348C438.395 -47.3768 437.322 6.99289 425.492 54.2042Z" stroke="#905215"/>
<path opacity="0.12605" fill-rule="evenodd" clip-rule="evenodd" d="M426.552 65.3998C415.718 112.081 404.179 157.755 408.147 205.513C412.732 260.684 418.071 318.671 451.278 362.968C486.356 409.758 538.339 448.096 596.226 456.393C653.021 464.534 706.844 432.86 758.027 406.934C802.302 384.508 838.215 351.749 872.901 316.252C907.768 280.57 939.913 243.767 961.442 198.763C986.58 146.211 1043.08 80.1006 1008.18 33.4557C966.708 -21.9762 857.168 42.3083 807.957 -6.38366C757.703 -56.107 824.437 -176.034 762.328 -209.802C708.45 -239.095 663.692 -141.405 608.399 -114.882C564.628 -93.8867 506.72 -104.836 472.245 -70.6573C437.681 -36.3909 437.556 17.9893 426.552 65.3998Z" stroke="#915215"/>
<path opacity="0.134454" fill-rule="evenodd" clip-rule="evenodd" d="M427.638 76.4904C417.62 123.353 406.88 169.222 411.681 216.903C417.227 271.986 423.577 329.871 457.553 373.581C493.442 419.753 546.086 457.178 604.11 464.463C661.037 471.611 714.3 439.002 765.023 412.188C808.899 388.993 844.236 355.611 878.297 319.514C912.535 283.229 944.033 245.871 964.773 200.498C988.991 147.515 1044.33 80.429 1008.62 34.4003C966.187 -20.2994 857.785 45.887 807.731 -1.93864C756.617 -50.7774 821.248 -171.851 758.559 -204.53C704.179 -232.878 661.132 -134.422 606.31 -106.938C562.912 -85.1816 504.822 -95.1185 470.949 -60.3435C436.988 -25.4791 437.813 28.895 427.638 76.4904Z" stroke="#925315"/>
<path opacity="0.142857" fill-rule="evenodd" clip-rule="evenodd" d="M428.745 87.4778C419.546 134.509 409.608 180.558 415.241 228.148C421.748 283.126 429.107 340.891 463.841 384.001C500.53 429.539 553.819 466.04 611.961 472.312C669.005 478.465 721.69 444.932 771.937 417.236C815.402 393.278 850.151 359.286 883.576 322.6C917.176 285.723 948.018 247.82 967.963 202.092C991.252 148.695 1045.41 80.6531 1008.9 35.2546C965.522 -18.6962 858.293 49.372 807.412 2.42716C755.453 -45.5121 817.961 -167.695 754.711 -199.275C699.845 -226.67 658.523 -127.477 604.189 -99.0409C561.177 -76.5305 502.922 -85.4521 469.661 -50.0912C436.314 -14.6393 438.088 39.7121 428.745 87.4778Z" stroke="#935315"/>
<path opacity="0.151261" fill-rule="evenodd" clip-rule="evenodd" d="M429.874 98.3612C421.498 145.545 412.365 191.761 418.827 239.245C426.293 294.101 434.659 351.73 470.14 394.227C507.618 439.118 561.536 474.683 619.779 479.939C676.921 485.096 729.013 450.648 778.769 422.079C821.809 397.367 855.959 362.773 888.74 325.509C921.691 288.052 951.866 249.617 971.01 203.547C993.364 149.752 1046.33 80.7753 1009.03 36.0208C964.717 -17.1647 858.691 52.7646 806.999 6.71489C754.212 -40.3103 814.578 -163.565 750.786 -194.037C695.45 -220.47 655.866 -120.571 602.036 -91.191C559.424 -67.9333 501.022 -75.8369 468.383 -39.9009C435.66 -3.87245 438.382 50.4397 429.874 98.3612Z" stroke="#935415"/>
<path opacity="0.159664" fill-rule="evenodd" clip-rule="evenodd" d="M431.022 109.138C423.47 156.462 415.145 202.829 422.435 250.194C430.857 304.911 440.228 362.385 476.445 404.257C514.701 448.486 569.232 483.105 627.557 487.343C684.781 491.502 736.263 456.151 785.513 426.718C828.116 401.259 861.657 366.074 893.782 328.244C926.074 290.216 955.574 251.261 973.911 204.864C995.323 150.687 1047.07 80.7966 1009.01 36.6997C963.767 -15.7042 858.978 56.0648 806.49 10.9242C752.89 -35.1725 811.096 -159.462 746.782 -188.816C690.993 -214.279 653.158 -113.705 599.849 -83.3897C557.65 -59.3918 499.119 -66.2749 467.112 -29.7748C435.023 6.81926 438.692 61.0756 431.022 109.138Z" stroke="#945415"/>
<path opacity="0.168067" fill-rule="evenodd" clip-rule="evenodd" d="M432.187 119.812C425.462 167.26 417.948 213.766 426.063 260.995C435.439 315.558 445.811 372.859 482.754 414.092C521.776 457.647 576.902 491.309 635.293 494.529C692.58 497.689 743.438 461.444 792.167 431.157C834.318 404.957 867.24 369.192 898.7 330.807C930.324 292.222 959.14 252.758 976.664 206.048C997.127 151.506 1047.65 80.7227 1008.82 37.2969C962.672 -14.3095 859.152 59.2774 805.884 15.0598C751.487 -30.0944 807.515 -155.381 742.699 -183.608C686.474 -208.093 650.4 -106.874 597.629 -75.6334C555.854 -50.9027 497.212 -56.7632 465.847 -19.71C434.401 17.4385 439.017 71.6226 432.187 119.812Z" stroke="#955515"/>
<path opacity="0.176471" fill-rule="evenodd" clip-rule="evenodd" d="M433.367 130.378C427.472 177.936 420.77 224.566 429.709 271.647C440.035 326.038 451.406 383.149 489.062 423.732C528.839 466.599 584.544 499.293 642.982 501.494C700.316 503.653 750.533 466.527 798.726 435.393C840.414 408.462 872.707 372.128 903.492 333.2C934.438 294.069 962.56 254.108 979.267 207.099C998.775 152.208 1048.05 80.554 1008.47 37.8125C961.431 -12.9807 859.211 62.4017 805.179 19.1204C750.003 -25.0776 803.835 -151.323 738.537 -178.414C681.893 -201.915 647.591 -100.082 595.373 -67.9244C554.037 -42.4684 495.301 -47.3046 464.588 -9.70969C433.795 27.982 439.355 82.0773 433.367 130.378Z" stroke="#965515"/>
<path opacity="0.184874" fill-rule="evenodd" clip-rule="evenodd" d="M434.562 140.84C429.497 188.494 423.61 235.234 433.369 282.152C444.643 336.353 457.009 393.258 495.368 433.177C535.886 475.343 592.154 507.061 650.621 508.241C707.984 509.399 757.546 471.402 805.189 439.432C846.4 411.778 878.054 374.886 908.155 335.426C938.413 295.761 965.833 255.315 981.717 208.022C1000.26 152.799 1048.28 80.2956 1007.96 38.2515C960.043 -11.713 859.154 65.4418 804.375 23.1102C748.436 -20.1181 800.057 -147.284 734.296 -173.231C677.25 -195.74 644.731 -93.3234 593.082 -60.2597C552.196 -34.0862 493.385 -37.8966 463.332 0.228621C433.202 38.4519 439.706 92.4419 434.562 140.84Z" stroke="#965515"/>
<path opacity="0.193277" fill-rule="evenodd" clip-rule="evenodd" d="M435.767 151.196C431.535 198.93 426.465 245.766 437.041 292.506C449.259 346.503 462.616 403.183 501.666 442.426C542.914 483.88 599.727 514.61 658.206 514.77C715.58 514.927 764.472 476.07 811.549 443.274C852.271 414.904 883.276 377.466 912.684 337.487C942.245 297.3 968.956 256.381 984.011 208.818C1001.59 153.279 1048.34 79.9494 1007.29 38.6153C958.506 -10.5052 858.979 68.3986 803.47 27.0295C746.785 -15.216 796.178 -143.263 729.974 -168.059C672.544 -189.569 641.817 -86.6002 590.753 -52.6402C550.331 -25.7571 491.462 -28.5405 462.079 10.1034C432.621 48.8467 440.066 102.715 435.767 151.196Z" stroke="#975616"/>
<path opacity="0.201681" fill-rule="evenodd" clip-rule="evenodd" d="M436.984 161.445C433.585 209.247 429.333 256.164 440.723 302.712C453.882 356.488 468.226 412.926 507.955 451.482C549.92 492.209 607.261 521.943 665.733 521.082C723.102 520.238 771.308 480.534 817.805 446.921C858.026 417.845 888.373 379.871 917.079 339.385C945.934 298.688 971.927 257.309 986.15 209.491C1002.76 153.654 1048.22 79.5192 1006.45 38.9079C956.821 -9.35381 858.685 71.2751 802.463 30.8809C745.049 -10.3688 792.201 -139.259 725.574 -162.895C667.777 -183.399 638.852 -79.9102 588.389 -45.0642C548.441 -17.4797 489.533 -19.2353 460.829 19.9155C432.051 59.1671 440.435 112.897 436.984 161.445Z" stroke="#985616"/>
<path opacity="0.210084" fill-rule="evenodd" clip-rule="evenodd" d="M438.208 171.589C435.644 219.442 432.211 266.426 444.412 312.769C458.507 366.306 473.835 422.485 514.23 460.342C556.9 500.331 614.75 529.059 673.199 527.178C730.544 525.333 778.05 484.794 823.953 450.374C863.661 420.601 893.34 382.103 921.335 341.122C949.476 299.928 974.742 258.102 988.129 210.043C1003.76 153.924 1047.92 79.0073 1005.45 39.1311C954.985 -8.25709 858.272 74.0722 801.353 34.6654C743.228 -5.57602 788.123 -135.269 721.093 -157.739C662.948 -177.231 635.833 -73.2534 585.986 -37.532C546.526 -9.25456 487.596 -9.9818 459.58 29.664C431.491 69.4119 440.811 122.988 438.208 171.589Z" stroke="#995716"/>
<path opacity="0.218487" fill-rule="evenodd" clip-rule="evenodd" d="M439.437 181.626C437.709 229.517 435.097 276.554 448.105 322.677C463.132 375.96 479.437 431.863 520.487 469.009C563.849 508.247 622.192 535.962 680.599 533.061C737.903 530.215 784.693 488.853 829.99 453.637C869.171 423.176 898.175 384.165 925.45 342.702C952.867 301.023 977.4 258.763 989.946 210.477C1004.6 154.094 1047.44 78.4181 1004.28 39.2892C952.997 -7.21098 857.735 76.7936 800.137 38.3863C741.319 -0.834664 783.943 -131.291 716.532 -152.588C658.055 -171.063 632.76 -66.6274 583.543 -30.0415C544.582 -1.07971 485.649 -0.778374 458.329 39.3504C430.939 79.5823 441.192 132.987 439.437 181.626Z" stroke="#995716"/>
<path opacity="0.226891" fill-rule="evenodd" clip-rule="evenodd" d="M440.672 191.557C439.78 239.47 437.989 286.546 451.8 332.434C467.755 385.447 485.033 441.057 526.725 477.481C570.765 515.956 629.583 542.648 687.93 538.729C745.176 534.883 791.238 492.711 835.912 456.71C874.556 425.569 902.874 386.059 929.422 344.126C956.108 301.975 979.899 259.292 991.6 210.795C1005.26 154.165 1046.78 77.753 1002.95 39.3832C950.857 -6.21478 857.077 79.4396 798.817 42.0433C739.323 3.85485 779.665 -127.326 711.892 -147.443C653.102 -164.894 629.632 -60.0333 581.062 -22.594C542.613 7.04336 483.693 8.37318 457.078 48.9726C430.394 89.6765 441.578 142.894 440.672 191.557Z" stroke="#9A5816"/>
<path opacity="0.235294" fill-rule="evenodd" clip-rule="evenodd" d="M441.909 201.38C441.853 249.302 440.884 296.402 455.494 342.042C472.371 394.769 490.618 450.069 532.939 485.759C577.643 523.46 636.918 549.122 695.188 544.184C752.358 539.34 797.677 496.37 841.716 459.596C879.811 427.785 907.435 387.786 933.247 345.397C959.193 302.786 982.236 259.695 993.089 211.001C1005.76 154.141 1045.94 77.016 1001.44 39.417C948.565 -5.26487 856.293 82.0131 797.39 45.6393C737.239 8.49501 775.285 -123.37 707.171 -142.301C648.085 -158.724 626.449 -53.469 578.54 -15.1877C540.614 15.1161 481.727 17.474 455.824 58.5318C429.854 99.6951 441.965 152.71 441.909 201.38Z" stroke="#9B5816"/>
<path opacity="0.243697" fill-rule="evenodd" clip-rule="evenodd" d="M443.147 211.098C443.927 259.014 443.78 306.123 459.184 351.502C476.98 403.925 496.189 458.898 539.126 493.845C584.482 530.76 644.195 555.383 702.37 549.429C759.447 543.588 804.009 499.834 847.4 462.296C884.934 429.826 911.855 389.351 936.923 346.517C962.122 303.46 984.409 259.974 994.411 211.098C1006.09 154.026 1044.92 76.2108 999.77 39.3941C946.119 -4.35808 855.385 84.517 795.856 49.1767C735.065 13.0879 770.804 -119.421 702.37 -137.161C643.007 -152.549 623.212 -46.9332 575.977 -7.8216C538.586 23.1395 479.749 26.5248 454.566 68.0284C429.319 109.639 442.354 162.434 443.147 211.098Z" stroke="#9C5816"/>
<path opacity="0.252101" fill-rule="evenodd" clip-rule="evenodd" d="M444.382 220.709C445.999 268.604 446.674 315.708 462.868 360.811C481.576 412.917 501.741 467.546 545.282 501.738C591.275 537.855 651.409 561.433 709.471 554.465C766.437 547.629 810.229 503.103 852.958 464.814C889.919 431.693 916.131 390.755 940.447 347.49C964.891 304 986.415 260.131 995.562 211.088C1006.24 153.821 1043.71 75.3402 997.924 39.317C943.518 -3.4922 854.349 86.9529 794.212 52.6569C732.801 17.6345 766.221 -115.478 697.489 -132.021C637.866 -146.371 619.917 -40.4253 573.372 -0.495323C536.527 31.1137 477.758 35.5253 453.303 77.462C428.786 119.507 442.74 172.066 444.382 220.709Z" stroke="#9C5916"/>
<path opacity="0.260504" fill-rule="evenodd" clip-rule="evenodd" d="M445.616 230.213C448.068 278.072 449.566 325.158 466.544 369.972C486.158 421.742 507.274 476.012 551.405 509.439C598.021 544.748 658.557 567.272 716.489 559.292C773.327 551.462 816.335 506.179 858.389 467.15C894.767 433.39 920.26 392 943.818 348.318C967.499 304.407 988.254 260.17 996.544 210.974C1006.22 153.529 1042.31 74.4068 995.908 39.1882C940.763 -2.66503 853.185 89.3225 792.459 56.0813C730.446 22.136 761.539 -111.539 692.528 -126.88C632.663 -140.187 616.566 -33.9449 570.725 6.79134C534.437 39.0386 475.754 44.4751 452.036 86.8323C428.256 129.298 443.125 181.606 445.616 230.213Z" stroke="#9D5916"/>
<path opacity="0.268908" fill-rule="evenodd" clip-rule="evenodd" d="M446.844 239.612C450.131 287.421 452.45 334.473 470.208 378.983C490.723 430.404 512.782 484.296 557.49 516.948C604.715 551.438 665.636 572.903 723.419 563.913C780.112 555.092 822.323 509.066 863.69 469.309C899.473 434.918 924.24 393.09 947.031 349.003C969.942 304.686 989.923 260.093 997.352 210.761C1006.03 153.155 1040.73 73.415 993.718 39.0115C937.851 -1.87287 851.893 91.6291 790.595 59.4528C728 26.5949 756.754 -107.603 687.486 -121.737C627.399 -133.997 613.158 -27.49 568.035 14.0401C532.315 46.9157 473.736 53.3756 450.76 96.1403C427.726 139.015 443.505 191.055 446.844 239.612Z" stroke="#9E5A16"/>
<path opacity="0.277311" fill-rule="evenodd" clip-rule="evenodd" d="M448.065 248.902C452.186 296.647 455.326 343.651 473.858 387.845C495.267 438.9 518.264 492.399 563.535 524.266C611.354 557.926 672.64 578.324 730.258 568.327C786.788 558.519 828.19 511.763 868.856 471.29C904.034 436.28 928.067 394.026 950.086 349.548C972.219 304.838 991.419 259.903 997.986 210.448C1005.66 152.7 1038.96 72.3664 991.356 38.7887C934.783 -1.11445 850.47 93.8734 788.62 62.7718C725.461 31.0114 751.869 -103.668 682.364 -116.591C622.072 -127.801 609.692 -21.061 565.301 21.2503C530.161 54.7443 471.703 62.2255 449.477 105.385C427.194 148.655 443.88 200.412 448.065 248.902Z" stroke="#9F5A17"/>
<path opacity="0.285714" fill-rule="evenodd" clip-rule="evenodd" d="M449.278 258.088C454.232 305.753 458.192 352.696 477.492 396.56C499.789 447.233 523.716 500.323 569.536 531.394C617.936 564.215 679.568 583.541 737.003 572.539C793.354 561.746 833.932 514.274 873.887 473.098C908.448 437.479 931.74 394.812 952.979 349.957C974.329 304.867 992.741 259.604 998.445 210.042C1005.1 152.169 1037 71.2665 988.819 38.5246C931.559 -0.385112 848.916 96.0598 786.533 66.0423C722.829 35.389 746.882 -99.7304 677.163 -111.438C616.684 -121.594 606.169 -14.655 562.523 28.4246C527.973 62.5268 469.655 71.0271 448.185 114.568C426.661 158.22 444.247 209.678 449.278 258.088Z" stroke="#9F5B17"/>
<path opacity="0.294118" fill-rule="evenodd" clip-rule="evenodd" d="M450.481 267.168C456.265 314.74 461.044 361.606 481.107 405.126C504.284 455.403 529.134 508.067 575.49 538.334C624.455 570.305 686.415 588.552 743.65 576.55C799.803 564.775 839.547 516.602 878.777 474.734C912.711 438.518 935.254 395.451 955.708 350.232C976.267 304.777 993.887 259.199 998.725 209.545C1004.37 151.565 1034.85 70.1178 986.107 38.2219C928.177 0.317421 847.229 98.1899 784.332 69.2658C720.103 39.7289 741.794 -95.7897 671.881 -106.279C611.235 -115.378 602.588 -8.27143 559.7 35.5633C525.75 70.2633 467.589 79.7801 446.883 123.689C426.124 167.71 444.605 218.853 450.481 267.168Z" stroke="#A05B17"/>
<path opacity="0.302521" fill-rule="evenodd" clip-rule="evenodd" d="M451.671 276.141C458.285 323.604 463.88 370.38 484.7 413.543C508.751 463.408 534.516 515.63 581.393 545.084C630.909 576.196 693.178 593.358 750.194 580.359C806.134 567.606 845.031 518.747 883.524 476.201C916.821 439.398 938.609 395.944 958.27 350.375C978.034 304.568 994.855 258.689 998.825 208.959C1003.46 150.889 1032.52 68.9219 983.22 37.8816C924.637 0.993939 845.41 100.264 782.017 72.4422C717.282 44.0308 736.606 -91.8457 666.52 -101.113C605.724 -109.153 598.947 -1.91129 556.831 42.6652C523.492 77.9524 465.506 88.4829 445.569 132.746C425.581 177.123 444.953 227.936 451.671 276.141Z" stroke="#A15B17"/>
<path opacity="0.310924" fill-rule="evenodd" clip-rule="evenodd" d="M452.846 285.01C460.287 332.351 466.698 379.022 488.268 421.815C513.186 471.252 539.859 523.017 587.242 551.648C637.293 581.891 699.853 597.964 756.633 583.972C812.341 570.244 850.38 520.714 888.125 477.503C920.774 440.124 941.801 396.297 960.664 350.391C979.625 304.246 995.643 258.081 998.745 208.289C1002.37 150.147 1029.99 67.6855 980.156 37.5103C920.938 1.65062 843.455 102.289 779.587 75.5771C714.366 48.2998 731.315 -87.8933 661.078 -95.9363C600.151 -102.913 595.247 4.4299 553.916 49.7347C521.197 85.5983 463.404 97.1392 444.243 141.744C425.032 186.463 445.288 236.93 452.846 285.01Z" stroke="#A25C17"/>
<path opacity="0.319328" fill-rule="evenodd" clip-rule="evenodd" d="M454.006 293.772C462.272 340.976 469.497 387.528 491.81 429.938C517.587 478.933 545.159 530.224 593.035 558.024C643.607 587.388 706.437 602.368 762.965 587.387C818.425 572.689 855.593 522.502 892.578 478.639C924.57 440.696 944.829 396.508 962.887 350.28C981.04 303.812 996.25 257.374 998.483 207.535C1001.09 149.339 1027.27 66.408 976.916 37.1071C917.081 2.28634 841.367 104.261 777.042 78.6684C711.355 52.5336 725.924 -83.9345 655.558 -90.7506C594.518 -96.6632 591.489 10.7493 550.954 56.7685C518.867 93.1977 461.284 105.745 442.904 150.677C424.477 195.725 445.61 245.831 454.006 293.772Z" stroke="#A25C17"/>
<path opacity="0.327731" fill-rule="evenodd" clip-rule="evenodd" d="M455.147 302.43C464.236 349.482 472.272 395.901 495.322 437.915C521.95 486.453 550.413 537.255 598.767 564.215C649.843 592.693 712.926 606.573 769.183 590.608C824.378 574.944 860.665 524.116 896.879 479.614C928.204 441.119 947.688 396.584 964.937 350.048C982.276 303.27 996.673 256.574 998.036 206.704C999.627 148.471 1024.35 65.0957 973.498 36.6779C913.065 2.90676 839.142 106.187 774.38 81.7213C708.247 56.7368 720.432 -79.9648 649.958 -85.5518C588.824 -90.3982 587.669 17.0508 547.944 63.7704C516.497 100.754 459.142 114.305 441.549 159.551C423.911 204.913 445.916 254.643 455.147 302.43Z" stroke="#A35D17"/>
<path opacity="0.336134" fill-rule="evenodd" clip-rule="evenodd" d="M456.269 310.984C466.178 357.87 475.023 404.141 498.802 445.747C526.274 493.812 555.619 544.11 604.436 570.222C656.002 597.804 719.317 610.581 775.287 593.637C830.2 577.012 865.595 525.559 901.026 480.431C931.675 441.396 950.379 396.528 966.813 349.698C983.333 302.624 996.913 255.684 997.405 205.797C997.979 147.545 1021.25 63.7515 969.903 36.2255C908.89 3.51421 836.781 108.069 771.602 84.7371C705.042 60.9106 714.841 -75.9829 644.279 -80.339C583.07 -84.1177 583.791 23.335 544.887 70.7408C514.091 108.268 456.981 122.817 440.18 168.363C423.336 214.027 446.205 263.365 456.269 310.984Z" stroke="#A45D17"/>
<path opacity="0.344538" fill-rule="evenodd" clip-rule="evenodd" d="M457.369 319.432C468.095 366.138 477.746 412.248 502.248 453.433C530.554 501.011 560.773 550.789 610.038 576.045C662.077 602.723 725.606 614.393 781.272 596.474C835.886 578.894 870.378 526.831 905.016 481.092C934.978 441.527 952.897 396.34 968.511 349.23C984.207 301.875 996.966 254.705 996.587 204.818C996.145 146.564 1017.94 62.3772 966.13 35.7515C904.555 4.11 834.282 109.908 768.706 87.7165C701.74 65.0553 709.148 -71.9884 638.521 -75.1123C577.256 -77.8223 579.852 29.6015 541.781 77.6791C511.644 115.738 454.797 131.282 438.794 177.114C422.75 223.064 446.476 271.996 457.369 319.432Z" stroke="#A55E17"/>
<path opacity="0.352941" fill-rule="evenodd" clip-rule="evenodd" d="M458.447 327.776C469.986 374.288 480.44 420.223 505.658 460.973C534.79 508.05 565.872 557.293 615.571 581.686C668.068 607.451 731.79 618.011 787.135 599.123C841.434 580.593 875.012 527.935 908.846 481.599C938.114 441.517 955.241 396.024 970.031 348.649C984.898 301.027 996.832 253.642 995.582 203.769C994.123 145.532 1014.45 60.9773 962.179 35.2599C900.061 4.69786 831.645 111.706 765.692 90.6625C698.341 69.1735 703.356 -67.9786 632.686 -69.8695C571.382 -71.5098 575.852 35.8524 538.627 84.587C509.158 123.166 452.591 139.7 437.39 185.804C422.151 232.028 446.727 280.537 458.447 327.776Z" stroke="#A55E18"/>
<path opacity="0.361345" fill-rule="evenodd" clip-rule="evenodd" d="M459.498 336.017C471.847 382.321 483.102 428.066 509.026 468.37C538.976 514.932 570.913 563.625 621.03 587.146C673.968 611.992 737.865 621.438 792.872 601.587C846.84 582.111 879.493 528.876 912.514 481.956C941.077 441.37 957.408 395.585 971.369 347.959C985.402 300.084 996.507 252.498 994.387 202.655C991.912 144.452 1010.76 59.5556 958.049 34.7544C895.407 5.28109 828.869 113.467 762.558 93.5777C694.843 73.2674 697.463 -63.9513 626.771 -64.6086C565.448 -65.1787 571.791 42.0891 535.422 91.466C506.631 130.553 450.361 148.072 435.967 194.435C421.536 240.917 446.956 288.99 459.498 336.017Z" stroke="#A65E18"/>
<path opacity="0.369748" fill-rule="evenodd" clip-rule="evenodd" d="M460.524 344.155C473.679 390.236 485.73 435.778 512.354 475.624C543.111 521.655 575.894 569.784 626.413 592.426C679.777 616.344 743.829 624.674 798.481 603.866C852.101 583.451 883.82 529.654 916.017 482.166C943.868 441.087 959.397 395.023 972.524 347.161C985.72 299.049 995.993 251.276 993.004 201.477C989.513 143.327 1006.88 58.1145 953.74 34.237C890.594 5.86149 825.954 115.192 759.306 96.4632C691.247 77.3377 691.472 -59.9058 620.778 -59.3292C559.455 -58.829 567.67 48.3117 532.167 98.3159C504.063 137.9 448.108 156.398 434.525 203.005C420.908 249.732 447.163 297.354 460.524 344.155Z" stroke="#A75F18"/>
<path opacity="0.378151" fill-rule="evenodd" clip-rule="evenodd" d="M461.52 352.191C475.478 398.035 488.322 443.36 515.637 482.734C547.193 528.222 580.81 575.771 631.717 597.529C685.491 620.512 749.678 627.722 803.959 605.964C857.214 584.617 887.99 530.274 919.353 482.231C946.483 440.672 961.205 394.345 973.495 346.261C985.85 297.926 995.287 249.981 991.429 200.242C986.924 142.161 1002.8 56.6585 949.253 33.712C885.621 6.44284 822.899 116.885 755.934 99.3221C687.551 81.3873 685.381 -55.8392 614.709 -54.0289C553.403 -52.4586 563.487 54.5224 528.862 105.139C501.454 145.207 445.829 164.678 433.062 211.515C420.262 258.473 447.344 305.63 461.52 352.191Z" stroke="#A85F18"/>
<path opacity="0.386555" fill-rule="evenodd" clip-rule="evenodd" d="M462.485 360.124C477.241 405.718 490.874 450.811 518.872 489.704C551.217 534.634 585.659 581.589 636.938 602.455C691.104 624.496 755.408 630.585 809.301 607.882C862.175 585.609 891.998 530.738 922.518 482.154C948.918 440.128 962.83 393.551 974.279 345.26C985.788 296.717 994.387 248.615 989.661 198.95C984.144 140.957 998.523 55.1904 944.586 33.1819C880.487 7.02743 819.702 118.547 752.441 102.156C683.756 85.4173 679.191 -51.7505 608.561 -48.7071C547.292 -46.0671 559.241 60.7217 525.506 111.934C498.8 152.475 443.524 172.914 431.576 219.967C419.598 267.141 447.499 313.818 462.485 360.124Z" stroke="#A86018"/>
<path opacity="0.394958" fill-rule="evenodd" clip-rule="evenodd" d="M463.419 367.955C478.968 413.284 493.386 458.133 522.059 496.531C555.183 540.89 590.439 587.236 642.074 607.204C696.617 628.296 761.017 633.262 814.505 609.623C866.983 586.43 895.843 531.047 925.511 481.938C951.174 439.458 964.271 392.645 974.875 344.161C985.535 295.425 993.293 247.18 987.702 197.605C981.173 139.717 994.053 53.7127 939.74 32.6489C875.195 7.61707 816.365 120.181 748.829 104.966C679.862 89.4284 672.903 -47.6388 602.337 -43.3632C541.124 -39.6543 554.935 66.9097 522.098 118.703C496.104 159.704 441.193 181.105 430.069 228.359C418.915 275.734 447.627 321.918 463.419 367.955Z" stroke="#A96018"/>
<path opacity="0.403361" fill-rule="evenodd" clip-rule="evenodd" d="M464.318 375.687C480.656 420.738 495.854 465.328 525.193 503.219C559.086 546.993 595.146 592.718 647.122 611.781C702.024 631.918 766.501 635.76 819.569 611.19C871.634 587.085 899.523 531.207 928.329 481.587C953.246 438.666 965.524 391.631 975.281 342.97C985.089 294.055 992.004 245.682 985.548 196.213C978.01 138.447 989.387 52.2312 934.714 32.1185C869.742 8.21698 812.886 121.79 745.094 107.756C675.867 93.4249 666.518 -43.5 596.037 -37.9935C534.898 -33.2168 550.566 73.0899 518.638 125.449C493.364 166.896 438.835 189.253 428.537 236.694C418.212 284.257 447.725 329.932 464.318 375.687Z" stroke="#AA6118"/>
<path opacity="0.411765" fill-rule="evenodd" clip-rule="evenodd" d="M465.182 383.317C482.303 428.076 498.277 472.394 528.273 509.768C562.925 552.943 599.777 598.032 652.078 616.185C707.324 635.361 771.858 638.076 824.488 612.585C876.125 587.574 903.035 531.218 930.97 481.103C955.135 437.754 966.59 390.512 975.496 341.688C984.449 292.609 990.518 244.122 983.2 194.773C974.655 137.149 984.526 50.7469 929.51 31.5915C864.131 8.82752 809.266 123.376 741.239 110.527C671.772 97.406 660.035 -39.3348 589.661 -32.5991C528.614 -26.7561 546.135 79.2609 515.126 132.169C490.579 174.052 436.449 197.356 426.98 244.97C417.487 292.706 447.792 337.858 465.182 383.317Z" stroke="#AB6118"/>
<path opacity="0.420168" fill-rule="evenodd" clip-rule="evenodd" d="M466.007 390.848C483.907 435.301 500.652 479.334 531.295 516.178C566.696 558.743 604.329 603.181 656.939 620.419C712.511 638.628 777.083 640.216 829.26 613.81C880.452 587.902 906.374 531.085 933.431 480.49C956.835 436.725 967.464 389.291 975.517 340.319C983.612 291.091 988.834 242.506 980.656 193.292C971.106 135.826 979.468 49.2648 924.126 31.0724C858.36 9.45292 805.502 124.941 737.262 113.282C667.576 101.375 653.454 -35.1401 583.208 -27.1772C522.273 -20.2697 541.642 85.4254 511.561 138.867C487.748 181.171 434.033 205.417 425.396 253.188C416.738 301.083 447.827 345.7 466.007 390.848Z" stroke="#AB6118"/>
<path opacity="0.428571" fill-rule="evenodd" clip-rule="evenodd" d="M466.793 398.279C485.466 442.413 502.978 486.147 534.259 522.451C570.397 564.391 608.8 608.166 661.703 624.483C717.584 641.719 782.174 642.181 833.882 614.868C884.615 588.071 909.541 530.809 935.711 479.75C958.348 435.584 968.147 387.971 975.344 338.866C982.578 289.504 986.952 240.836 977.916 191.772C967.365 134.481 974.215 47.7872 918.564 30.5634C852.43 10.095 801.596 126.488 733.162 116.021C663.28 105.333 646.777 -30.9151 576.681 -21.7275C515.876 -13.7576 537.086 91.5834 507.943 145.541C484.872 188.255 431.588 213.435 423.787 261.349C415.965 309.388 447.828 353.456 466.793 398.279Z" stroke="#AC6219"/>
<path opacity="0.436975" fill-rule="evenodd" clip-rule="evenodd" d="M467.538 405.612C486.978 449.414 505.25 492.836 537.161 528.588C574.025 569.891 613.186 612.989 666.366 628.38C722.539 644.639 787.127 643.973 838.351 615.761C888.608 588.083 912.531 530.395 937.806 478.887C959.669 434.332 968.636 386.556 974.974 337.333C981.346 287.853 984.87 239.115 974.979 190.216C963.429 133.118 968.765 46.318 912.822 30.0681C846.341 10.757 797.546 128.02 728.941 118.749C658.882 109.281 640.004 -26.6578 570.079 -16.2482C509.422 -7.21831 532.468 97.7365 504.27 152.195C481.949 195.305 429.112 221.41 422.148 269.454C415.166 317.621 447.793 361.126 467.538 405.612Z" stroke="#AD6219"/>
<path opacity="0.445378" fill-rule="evenodd" clip-rule="evenodd" d="M468.241 412.849C488.443 456.305 507.47 499.401 539.999 534.591C577.579 575.244 617.486 617.652 670.926 632.113C727.375 647.388 791.941 645.595 842.665 616.494C892.431 587.943 915.344 529.846 939.716 477.905C960.798 432.976 968.93 385.05 974.408 335.724C979.915 286.14 982.588 237.348 971.845 188.63C959.301 131.741 963.121 44.8616 906.903 29.5905C840.095 11.4426 793.354 129.539 724.597 121.467C654.384 113.224 633.136 -22.3654 563.404 -10.737C502.914 -0.649873 527.788 103.887 500.545 158.829C478.979 202.322 426.606 229.345 420.482 277.503C414.342 325.785 447.723 368.714 468.241 412.849Z" stroke="#AE6319"/>
<path opacity="0.453782" fill-rule="evenodd" clip-rule="evenodd" d="M468.899 419.988C489.856 463.085 509.632 505.842 542.771 540.459C581.054 580.451 621.696 622.155 675.38 635.681C732.087 649.969 796.612 647.05 846.82 617.068C896.081 587.652 917.976 529.165 941.438 476.806C961.732 431.516 969.026 383.455 973.643 334.041C978.284 284.368 980.105 235.537 968.514 187.014C954.978 130.353 957.282 43.42 900.806 29.1324C833.691 12.1532 789.018 131.047 720.131 124.176C649.784 117.16 626.174 -18.0377 556.655 -5.19409C496.35 5.9472 523.044 110.034 496.765 165.443C475.961 209.306 424.068 237.239 418.785 285.497C413.488 333.879 447.614 376.218 468.899 419.988Z" stroke="#AE6319"/>
<path opacity="0.462185" fill-rule="evenodd" clip-rule="evenodd" d="M469.511 427.031C491.217 469.755 511.737 512.161 545.474 546.194C584.45 585.511 625.813 626.5 679.725 639.088C736.672 652.384 801.137 648.338 850.815 617.485C899.554 587.214 920.425 528.353 942.969 475.594C962.471 429.955 968.925 381.775 972.679 332.287C976.452 282.542 977.42 233.686 964.984 185.373C950.462 128.957 951.247 41.9966 894.531 28.6968C827.13 12.8915 784.539 132.547 715.542 126.88C645.084 121.092 619.118 -13.6731 549.833 0.381809C489.732 12.5739 518.239 116.179 492.93 172.038C472.896 216.257 421.497 245.092 417.057 293.435C412.606 341.901 447.465 383.639 469.511 427.031Z" stroke="#AF6419"/>
<path opacity="0.470588" fill-rule="evenodd" clip-rule="evenodd" d="M470.075 433.978C492.524 476.317 513.78 518.358 548.107 551.798C587.762 590.429 629.835 630.69 683.958 642.334C741.129 654.634 805.513 649.464 854.644 617.749C902.848 586.632 922.689 527.416 944.309 474.271C963.01 428.299 968.623 380.014 971.512 330.468C974.417 280.664 974.533 231.799 961.255 183.71C945.75 127.556 945.018 40.5953 888.078 28.2873C820.412 13.6608 779.915 134.042 710.83 129.579C640.282 125.022 611.967 -9.26949 542.939 5.99245C483.059 19.2316 513.37 122.323 489.04 178.616C469.781 223.178 418.893 252.905 415.298 301.318C411.693 349.855 447.275 390.978 470.075 433.978Z" stroke="#B06419"/>
<path opacity="0.478992" fill-rule="evenodd" clip-rule="evenodd" d="M470.59 440.832C493.774 482.772 515.761 524.436 550.665 557.272C590.989 595.205 633.758 634.725 688.076 645.423C745.453 656.724 809.737 650.431 858.308 617.863C905.961 585.909 924.765 526.356 945.454 472.842C963.351 426.551 968.12 378.175 970.144 328.586C972.179 278.739 971.442 229.879 957.327 182.029C940.845 126.155 938.595 39.2198 881.449 27.9075C813.538 14.4641 775.148 135.533 705.996 132.277C635.378 128.952 604.725 -4.82478 535.973 11.6396C476.334 25.9217 508.439 128.469 485.095 185.177C466.616 230.069 416.256 260.68 413.505 309.148C410.748 357.74 447.043 398.236 470.59 440.832Z" stroke="#B16419"/>
<path opacity="0.487395" fill-rule="evenodd" clip-rule="evenodd" d="M471.053 447.592C494.966 489.122 517.677 530.395 553.149 562.616C594.129 599.84 637.581 638.608 692.078 648.356C749.643 658.654 813.807 651.24 861.802 617.829C908.89 585.049 926.653 525.177 946.405 471.309C963.49 424.713 967.414 376.261 968.573 326.645C969.738 276.77 968.148 227.931 953.2 180.334C935.745 124.755 931.978 37.8733 874.644 27.56C806.508 15.3039 770.238 137.025 701.039 134.976C630.374 132.883 597.39 -0.337766 528.936 17.3239C469.555 32.6448 503.446 134.616 481.095 191.723C463.402 236.93 413.584 268.416 411.68 316.924C409.771 365.557 446.767 405.414 471.053 447.592Z" stroke="#B16519"/>
<path opacity="0.495798" fill-rule="evenodd" clip-rule="evenodd" d="M471.464 454.259C496.097 495.364 519.525 536.236 555.554 567.833C597.178 604.335 641.299 642.339 695.958 651.135C753.694 660.426 817.719 651.894 865.124 617.65C911.633 584.053 928.347 523.88 947.156 469.676C963.426 422.789 966.504 374.276 966.796 324.647C967.091 274.759 964.649 225.955 948.872 178.627C930.45 123.361 925.168 36.558 867.662 27.2469C799.323 16.1818 765.182 138.517 695.958 137.676C625.268 136.817 589.964 4.1921 521.829 23.0458C462.724 39.4006 498.389 140.765 477.038 198.253C460.137 243.762 410.875 276.112 409.819 324.647C408.759 373.306 446.445 412.51 471.464 454.259Z" stroke="#B26519"/>
<path opacity="0.504202" fill-rule="evenodd" clip-rule="evenodd" d="M471.82 460.835C497.168 501.505 521.305 541.961 557.881 572.924C600.134 608.695 644.913 645.923 699.717 653.763C757.606 662.046 821.473 652.397 868.272 617.332C914.188 582.928 929.85 522.472 947.71 467.948C963.159 420.784 965.389 372.225 964.816 322.598C964.239 272.713 960.946 223.959 944.346 176.913C924.962 121.978 918.166 35.2797 860.506 26.9737C791.984 17.1029 759.984 140.015 690.755 140.383C620.061 140.758 582.448 8.76888 514.652 28.8088C455.842 46.1927 493.27 146.919 472.926 204.771C456.822 250.568 408.132 283.773 407.923 332.319C407.713 380.989 446.077 419.53 471.82 460.835Z" stroke="#B3661A"/>
<path opacity="0.512605" fill-rule="evenodd" clip-rule="evenodd" d="M472.121 467.32C498.174 507.541 523.014 547.57 560.124 577.89C602.996 612.918 648.417 649.359 703.349 656.242C761.374 663.512 825.063 652.751 871.243 616.874C916.552 581.674 931.156 520.954 948.062 466.127C962.685 418.7 964.068 370.109 962.629 320.5C961.181 270.633 957.038 221.944 939.619 175.195C919.28 120.606 910.971 34.0399 853.175 26.7414C784.491 18.0681 754.641 141.52 685.43 143.096C614.753 144.705 574.842 13.3922 507.406 34.6123C448.908 53.0199 488.089 153.077 468.758 211.276C453.455 257.347 405.352 291.397 405.99 339.939C406.629 388.605 445.66 426.471 472.121 467.32Z" stroke="#B4661A"/>
<path opacity="0.521008" fill-rule="evenodd" clip-rule="evenodd" d="M472.364 473.716C499.115 513.476 524.65 553.065 562.284 582.733C605.76 617.007 651.81 652.65 706.854 658.573C764.998 664.83 828.489 652.958 874.036 616.281C918.723 580.296 932.265 519.33 948.212 464.216C962.005 416.542 962.54 367.934 960.235 318.358C957.917 268.523 952.924 219.914 934.693 173.476C913.404 119.25 903.586 32.8423 845.671 26.5537C776.846 19.0803 749.155 143.035 679.982 145.818C609.344 148.66 567.147 18.0641 500.092 40.4578C441.924 59.8835 482.845 159.242 464.533 217.769C450.036 264.1 402.535 298.984 404.02 347.508C405.509 396.156 445.195 433.334 472.364 473.716Z" stroke="#B4671A"/>
<path opacity="0.529412" fill-rule="evenodd" clip-rule="evenodd" d="M472.547 480.021C499.988 519.309 526.21 558.446 564.356 587.453C608.424 620.963 655.089 655.797 710.228 660.758C768.472 665.999 831.746 653.022 876.646 615.555C920.698 578.795 933.175 517.603 948.157 462.219C961.116 414.311 960.802 365.701 957.632 316.173C954.446 266.386 948.605 217.871 929.566 171.758C907.333 117.913 896.009 31.6894 837.994 26.4125C769.049 20.1414 743.525 144.56 674.411 148.55C603.833 152.625 559.364 22.7851 492.71 46.3457C434.89 66.7836 477.539 165.413 460.25 224.251C446.565 270.828 399.68 306.536 402.011 355.025C404.348 403.64 444.677 440.12 472.547 480.021Z" stroke="#B5671A"/>
<path opacity="0.537815" fill-rule="evenodd" clip-rule="evenodd" d="M472.671 486.241C500.794 525.043 527.694 563.717 566.34 592.053C610.987 624.789 658.253 658.803 713.47 662.802C771.796 667.026 834.834 652.946 879.074 614.701C922.477 577.178 933.884 515.777 947.897 460.14C960.019 412.013 958.856 363.417 954.822 313.951C950.767 264.227 944.081 215.822 924.24 170.049C901.071 116.599 888.244 30.5864 830.145 26.3228C761.101 21.2559 737.753 146.101 668.719 151.297C598.223 156.602 551.494 27.5587 485.262 52.279C427.807 73.7229 472.171 171.593 455.912 230.724C443.041 277.532 396.787 314.053 399.964 362.495C403.149 411.061 444.109 446.832 472.671 486.241Z" stroke="#B6671A"/>
<path opacity="0.546219" fill-rule="evenodd" clip-rule="evenodd" d="M472.731 492.373C501.527 530.679 529.098 568.877 568.233 596.535C613.444 628.487 661.297 661.671 716.575 664.705C774.966 667.91 837.749 652.732 881.314 613.721C924.057 575.447 934.39 513.856 947.43 457.983C958.71 409.652 956.699 361.083 951.803 311.695C946.881 262.05 939.351 213.768 918.713 168.348C894.615 115.311 880.289 29.5357 822.124 26.2866C753.003 22.4255 731.837 147.659 662.904 154.059C592.511 160.594 543.538 32.3855 477.747 58.258C420.675 80.7013 466.74 177.782 451.516 237.188C439.464 284.214 393.854 321.536 397.876 369.915C401.909 418.418 443.486 453.469 472.731 492.373Z" stroke="#B7681A"/>
<path opacity="0.554622" fill-rule="evenodd" clip-rule="evenodd" d="M472.729 498.42C502.189 536.218 530.423 573.929 570.035 600.9C615.796 632.058 664.221 664.401 719.544 666.47C777.982 668.656 840.49 652.384 883.368 612.619C925.436 573.604 934.692 511.843 946.755 455.75C957.19 407.23 954.332 358.703 948.574 309.409C942.787 259.857 934.415 211.714 912.988 166.661C887.968 114.053 872.147 28.5404 813.935 26.307C744.757 23.6528 725.779 149.237 656.969 156.838C586.701 164.601 535.497 37.2669 470.167 64.2837C413.497 87.7196 461.249 183.982 447.063 243.644C435.834 290.873 390.882 328.986 395.748 377.287C400.627 425.713 442.809 460.032 472.729 498.42Z" stroke="#B7681A"/>
<path opacity="0.563025" fill-rule="evenodd" clip-rule="evenodd" d="M472.662 504.383C502.777 541.66 531.665 578.873 571.741 605.149C618.039 635.503 667.021 666.996 722.372 668.1C780.839 669.265 843.054 651.905 885.231 611.398C926.612 571.655 934.789 509.741 945.871 453.447C955.457 404.751 951.753 356.282 945.136 307.095C938.484 257.652 929.274 209.663 907.064 164.991C881.13 112.827 863.818 27.6039 805.576 26.3868C736.362 24.9403 719.579 150.836 650.912 159.638C580.79 168.626 527.372 42.2045 462.524 70.3573C406.271 94.7787 455.695 190.193 442.554 250.093C432.15 297.511 387.871 336.403 393.579 384.612C399.301 432.945 442.077 466.523 472.662 504.383Z" stroke="#B8691A"/>
<path opacity="0.571429" fill-rule="evenodd" clip-rule="evenodd" d="M472.528 510.262C503.289 547.008 532.822 583.711 573.35 609.283C620.171 638.825 669.695 669.458 725.057 669.595C783.535 669.74 845.438 651.297 886.902 610.06C927.582 569.601 934.678 507.554 944.776 451.075C953.511 402.219 948.961 353.822 941.487 304.758C933.973 255.439 923.927 207.618 900.941 163.34C874.1 111.637 855.304 26.7285 797.049 26.528C727.82 26.2898 713.237 152.46 644.734 162.458C574.78 172.668 519.163 47.1986 454.816 76.4789C398.998 101.878 450.08 196.415 437.986 256.536C428.412 304.129 384.818 343.787 391.366 391.889C397.932 440.115 441.286 472.941 472.528 510.262Z" stroke="#B9691A"/>
<path opacity="0.579832" fill-rule="evenodd" clip-rule="evenodd" d="M472.326 516.059C503.723 552.263 533.892 588.445 574.861 613.306C622.19 642.026 672.241 671.79 727.597 670.961C786.069 670.086 847.64 650.565 888.378 608.61C928.346 567.448 934.358 505.286 943.469 448.639C951.35 399.639 945.956 351.329 937.627 302.403C929.253 253.222 918.374 205.583 894.618 161.713C866.879 110.487 846.604 25.9194 788.355 26.7356C719.133 27.7055 706.754 154.111 638.436 165.303C568.67 176.733 510.872 52.2528 447.046 82.6516C391.68 109.021 444.404 202.652 433.361 262.975C424.619 310.727 381.723 351.14 389.11 399.121C396.517 447.225 440.438 479.29 472.326 516.059Z" stroke="#BA6A1B"/>
<path opacity="0.588235" fill-rule="evenodd" clip-rule="evenodd" d="M472.054 521.776C504.079 557.426 534.874 593.076 576.271 617.218C624.094 645.108 674.657 673.995 729.99 672.2C788.438 670.303 849.659 649.711 889.658 607.052C928.902 565.198 933.828 502.941 941.949 446.144C948.973 397.013 942.738 348.804 933.555 300.031C924.325 251.004 912.615 203.563 888.098 160.114C859.47 109.379 837.722 25.1787 779.495 27.0114C710.3 29.1893 700.13 155.791 632.017 168.174C562.462 180.82 502.5 57.3674 439.214 88.8755C384.316 116.208 438.667 208.904 428.678 269.41C420.771 317.308 378.587 358.463 386.811 406.308C395.055 454.275 439.529 485.569 472.054 521.776Z" stroke="#BA6A1B"/>
<path opacity="0.596639" fill-rule="evenodd" clip-rule="evenodd" d="M471.712 527.413C504.354 562.499 535.767 597.606 577.579 621.022C625.882 648.073 676.941 676.073 732.234 673.312C790.64 670.396 851.492 648.739 890.741 605.388C929.248 562.855 933.087 500.522 940.215 443.591C946.381 394.346 939.305 346.253 929.273 297.648C919.188 248.789 906.653 201.56 881.381 158.545C851.871 108.318 828.657 24.5096 770.472 27.3582C701.325 30.7434 693.366 157.504 625.479 171.074C556.155 184.931 494.049 62.5439 431.322 95.1517C376.91 123.438 432.87 215.171 423.938 275.843C416.868 323.871 375.409 365.757 384.466 413.45C393.547 461.266 438.56 491.779 471.712 527.413Z" stroke="#BB6A1B"/>
<path opacity="0.605042" fill-rule="evenodd" clip-rule="evenodd" d="M471.297 532.971C504.546 567.482 536.567 602.035 578.781 624.718C627.549 650.921 679.089 678.026 734.325 674.301C792.671 670.366 853.136 647.65 891.623 603.621C929.382 560.422 932.132 498.031 938.266 440.986C943.571 391.64 935.657 343.678 924.778 295.255C913.842 246.58 900.484 199.576 874.466 157.01C844.084 107.305 819.41 23.9145 761.284 27.7781C692.207 32.3696 686.461 159.249 618.822 174.002C549.75 189.067 485.517 67.7827 423.369 101.48C369.459 130.712 427.011 221.455 419.14 282.273C412.909 330.417 372.187 373.02 382.075 420.548C391.989 468.198 437.528 497.921 471.297 532.971Z" stroke="#BC6B1B"/>
<path opacity="0.613445" fill-rule="evenodd" clip-rule="evenodd" d="M470.809 538.452C504.655 572.378 537.275 606.367 579.878 628.309C629.096 653.658 681.101 679.859 736.264 675.171C794.532 670.218 854.592 646.45 892.304 601.756C929.303 557.905 930.964 495.476 936.101 438.332C940.545 388.901 931.795 341.084 920.072 292.859C908.289 244.382 894.113 197.618 867.355 155.512C836.11 106.345 809.985 23.3983 751.935 28.2758C682.949 34.0721 679.418 161.033 612.047 176.964C543.248 193.232 476.908 73.087 415.358 107.864C361.966 138.032 421.093 227.757 414.285 288.703C408.895 336.949 368.923 380.255 379.639 427.604C390.383 475.074 436.434 503.997 470.809 538.452Z" stroke="#BD6B1B"/>
<path opacity="0.621849" fill-rule="evenodd" clip-rule="evenodd" d="M470.246 543.858C504.679 577.188 537.887 610.603 580.866 631.798C630.519 656.284 682.973 681.573 738.046 675.923C796.22 669.954 855.855 645.142 892.781 599.796C929.01 555.306 929.581 492.857 933.72 435.632C937.3 386.132 927.717 338.475 915.155 290.461C902.527 242.197 887.537 195.688 860.048 154.056C827.95 105.442 800.382 22.9632 742.425 28.8531C673.551 35.8525 672.236 162.855 605.153 179.96C536.649 197.426 468.222 78.4574 407.289 114.303C354.431 145.398 415.115 234.078 409.372 295.133C404.825 343.466 365.615 387.464 377.155 434.618C388.726 481.893 435.274 510.008 470.246 543.858Z" stroke="#BD6C1B"/>
<path opacity="0.630252" fill-rule="evenodd" clip-rule="evenodd" d="M469.606 549.19C504.616 581.913 538.401 614.744 581.745 635.186C631.817 658.801 684.705 683.171 739.67 676.561C797.731 669.578 856.924 643.728 893.053 597.745C928.5 552.63 927.981 490.18 931.121 432.891C933.837 383.336 923.423 335.854 910.025 288.067C896.557 240.03 880.757 193.79 852.546 152.644C819.605 104.597 790.601 22.6123 732.756 29.5128C664.014 37.7131 664.916 164.72 598.142 182.992C529.953 201.652 459.461 83.895 399.162 120.799C346.855 152.812 409.078 240.418 404.4 301.565C400.698 349.97 362.261 394.645 374.623 441.591C387.017 488.657 434.049 515.955 469.606 549.19Z" stroke="#BE6C1B"/>
<path opacity="0.638655" fill-rule="evenodd" clip-rule="evenodd" d="M468.889 554.448C504.465 586.556 538.818 618.791 582.512 638.474C632.988 661.212 686.293 684.655 741.135 677.086C799.065 669.091 857.798 642.212 893.119 595.605C927.773 549.879 926.165 487.448 928.304 430.113C930.155 380.517 918.914 333.224 904.684 285.678C890.379 237.884 873.775 191.927 844.85 151.279C811.075 103.815 780.645 22.3487 722.929 30.2576C654.341 39.6565 657.46 166.628 591.014 186.063C523.162 205.91 450.625 89.4013 390.979 127.352C339.239 160.273 402.981 246.78 399.372 307.999C396.514 356.461 358.864 401.8 372.043 448.523C385.256 495.366 432.758 521.839 468.889 554.448Z" stroke="#BF6D1B"/>
<path opacity="0.647059" fill-rule="evenodd" clip-rule="evenodd" d="M468.094 559.634C504.225 591.115 539.135 622.747 583.165 641.664C634.031 663.517 687.738 686.027 742.439 677.502C800.22 668.497 858.476 640.597 892.978 593.381C926.829 547.056 924.131 484.663 925.269 427.3C926.254 377.679 914.189 330.59 899.131 283.299C883.995 235.762 866.591 190.102 836.962 149.965C802.363 103.097 770.516 22.1745 712.947 31.0895C644.533 41.6839 649.867 168.582 583.771 189.173C516.276 210.201 441.716 94.9765 382.742 133.962C331.584 167.781 396.826 253.163 394.286 314.436C392.275 362.94 355.421 408.929 369.414 455.415C383.443 502.02 431.399 527.66 468.094 559.634Z" stroke="#C06D1B"/>
<path opacity="0.655462" fill-rule="evenodd" clip-rule="evenodd" d="M467.219 564.75C503.893 595.596 539.351 626.613 583.704 644.759C634.944 665.722 689.035 687.29 743.579 677.812C801.195 667.8 858.954 638.888 892.627 591.077C925.664 544.168 921.877 481.832 922.015 424.457C922.133 374.827 909.249 327.955 893.368 280.935C877.404 233.669 859.206 188.319 828.88 148.706C793.469 102.449 760.215 22.0945 702.81 32.0129C634.592 43.7996 642.14 170.585 576.413 192.327C509.295 214.53 432.736 100.624 374.451 140.633C323.891 175.339 390.613 259.569 389.143 320.877C387.978 369.409 351.933 416.035 366.735 462.269C381.575 508.622 429.971 533.422 467.219 564.75Z" stroke="#C06D1C"/>
<path opacity="0.663866" fill-rule="evenodd" clip-rule="evenodd" d="M466.261 569.797C503.469 599.999 539.462 630.392 584.126 647.761C635.723 667.826 690.182 688.448 744.553 678.019C801.985 667.003 859.231 637.087 892.064 588.695C924.278 541.218 919.404 478.957 918.539 421.588C917.792 371.964 904.091 325.324 887.392 278.588C870.606 231.608 851.619 186.583 820.607 147.504C784.394 101.873 749.742 22.1109 692.519 33.0296C624.517 46.0052 634.276 172.639 568.939 195.525C502.219 218.896 423.683 106.344 366.106 147.364C316.159 182.947 384.342 266 383.941 327.324C383.624 375.869 348.398 423.117 364.004 469.086C379.651 515.173 428.473 539.124 466.261 569.797Z" stroke="#C16E1C"/>
<path opacity="0.672269" fill-rule="evenodd" clip-rule="evenodd" d="M465.223 574.776C502.951 604.323 539.469 634.084 584.429 650.671C636.369 669.833 691.18 689.5 745.36 678.124C802.591 666.108 859.306 635.197 891.29 586.24C922.67 538.207 916.71 476.041 914.845 418.696C913.232 369.093 898.719 322.699 881.207 276.261C863.603 229.582 843.834 184.894 812.144 146.363C775.14 101.37 739.101 22.2256 682.078 34.1413C614.313 48.3017 626.281 174.746 561.353 198.769C495.05 223.3 414.563 112.136 357.709 154.155C308.392 190.604 378.013 272.455 378.683 333.777C379.213 382.32 344.817 430.175 361.223 475.864C377.672 521.671 426.904 544.766 465.223 574.776Z" stroke="#C26E1C"/>
<path opacity="0.680672" fill-rule="evenodd" clip-rule="evenodd" d="M464.1 579.689C502.338 608.574 539.37 637.693 584.613 653.493C636.879 671.745 692.025 690.453 745.998 678.133C803.011 665.119 859.178 633.224 890.303 583.716C920.839 535.143 913.796 473.09 910.93 415.787C908.451 366.219 893.131 320.085 874.811 273.96C856.395 227.595 835.849 183.26 803.492 145.287C765.708 100.947 728.294 22.4435 671.487 35.3526C603.979 50.6935 618.152 176.91 553.653 202.062C487.789 227.747 405.373 118.004 349.262 161.009C300.588 198.314 371.627 278.936 373.367 340.237C374.745 388.764 341.189 437.212 358.39 482.608C375.636 528.121 425.264 550.353 464.1 579.689Z" stroke="#C36F1C"/>
<path opacity="0.689076" fill-rule="evenodd" clip-rule="evenodd" d="M462.892 584.539C501.629 612.752 539.164 641.221 584.675 656.228C637.252 673.565 692.716 691.308 746.466 678.048C803.243 664.041 858.844 631.171 889.1 581.127C918.785 532.028 910.659 470.108 906.794 412.863C903.45 363.346 887.327 317.487 868.205 271.689C848.983 225.652 827.666 181.682 794.651 144.28C756.099 100.606 717.32 22.7675 660.748 36.6661C593.518 53.1828 609.891 179.133 545.841 205.407C480.435 232.237 396.117 123.949 340.765 167.927C292.749 206.075 365.185 285.446 367.994 346.707C370.218 395.202 337.513 444.229 355.504 489.318C373.541 534.523 423.55 555.886 462.892 584.539Z" stroke="#C36F1C"/>
<path opacity="0.697479" fill-rule="evenodd" clip-rule="evenodd" d="M461.599 589.324C500.822 616.857 538.848 644.666 584.614 658.877C637.486 675.294 693.25 692.066 746.761 677.87C803.285 662.874 858.304 629.038 887.682 578.474C916.505 528.865 907.3 467.095 902.436 409.927C898.229 360.476 881.308 314.905 861.39 269.448C841.367 223.753 819.286 180.162 785.623 143.342C746.315 100.348 706.184 23.1976 649.862 38.0813C582.931 55.7689 601.5 181.414 537.919 208.802C472.99 236.77 386.795 129.97 332.219 174.906C284.877 213.887 358.686 291.982 362.565 353.184C365.635 401.633 333.79 451.223 352.565 495.991C371.389 540.875 421.762 561.361 461.599 589.324Z" stroke="#C4701C"/>
<path opacity="0.705882" fill-rule="evenodd" clip-rule="evenodd" d="M460.219 594.049C499.916 620.893 538.422 648.034 584.429 661.444C637.579 676.936 693.628 692.732 746.883 677.605C803.136 661.625 857.557 626.834 886.048 575.765C914.001 525.66 903.719 464.061 897.858 406.986C892.789 357.616 875.075 312.347 854.366 267.244C833.549 221.906 810.711 178.707 776.411 142.48C736.358 100.178 694.886 23.7404 638.833 39.6048C572.221 58.4578 592.98 183.76 529.886 212.253C465.456 241.35 377.41 136.07 323.626 181.953C276.971 221.754 352.133 298.548 357.079 359.674C360.994 408.062 330.019 458.2 349.573 502.633C369.177 547.182 419.9 566.786 460.219 594.049Z" stroke="#C5701C"/>
<path opacity="0.714286" fill-rule="evenodd" clip-rule="evenodd" d="M458.75 598.713C498.91 624.86 537.883 651.324 584.118 663.929C637.53 678.491 693.846 693.307 746.829 677.252C802.795 660.293 856.6 624.557 884.195 572.999C911.27 522.414 899.914 461.003 893.058 404.04C887.127 354.765 868.627 309.813 847.134 265.079C825.529 220.111 801.94 177.317 767.013 141.694C726.228 100.097 683.429 24.3949 627.661 41.2351C561.387 61.2478 584.33 186.168 521.743 215.758C457.831 245.975 367.961 142.248 314.986 189.063C269.033 229.672 345.523 305.143 351.535 366.173C356.294 414.485 326.199 465.156 346.525 509.242C366.904 553.441 417.962 572.157 458.75 598.713Z" stroke="#C6701C"/>
<path opacity="0.722689" fill-rule="evenodd" clip-rule="evenodd" d="M457.193 603.318C497.803 628.76 537.232 654.541 583.68 666.337C637.338 679.964 693.904 693.795 746.599 676.818C802.26 658.885 855.434 622.216 882.125 570.183C908.312 519.134 895.887 457.93 888.037 401.095C881.248 351.932 861.966 307.309 839.695 262.957C817.309 218.373 792.976 175.997 757.433 140.989C715.928 100.111 671.814 25.1667 616.349 42.9777C550.435 64.1439 575.554 188.645 513.493 219.323C450.118 250.65 358.451 148.508 306.302 196.24C261.064 237.645 338.86 311.769 345.936 372.685C351.537 420.907 322.332 472.095 343.424 515.819C364.571 559.656 415.948 577.479 457.193 603.318Z" stroke="#C6711C"/>
<path opacity="0.731092" fill-rule="evenodd" clip-rule="evenodd" d="M455.545 607.867C496.593 632.596 536.467 657.685 583.113 668.668C637.001 681.357 693.8 694.199 746.19 676.305C801.53 657.403 854.055 619.811 879.834 567.321C905.126 515.822 891.635 454.845 882.795 398.155C875.148 349.118 855.09 304.839 832.049 260.882C808.888 216.695 783.82 174.75 747.671 140.368C705.459 100.221 660.044 26.0577 604.898 44.834C539.363 67.1473 566.651 191.191 505.135 222.947C442.316 255.376 348.881 154.849 297.573 203.483C253.065 245.672 332.142 318.427 340.28 379.21C346.722 427.327 318.414 479.017 340.267 522.367C362.175 565.828 413.855 582.751 455.545 607.867Z" stroke="#C7711D"/>
<path opacity="0.739496" fill-rule="evenodd" clip-rule="evenodd" d="M453.807 612.359C495.28 636.368 535.585 660.757 582.416 670.925C636.517 682.672 693.532 694.52 745.601 675.714C800.603 655.849 852.464 617.346 877.323 564.414C901.713 512.482 887.159 451.75 877.331 395.223C868.83 346.327 848.002 302.404 824.197 258.856C800.269 215.08 774.472 173.579 737.729 139.833C694.823 100.428 648.12 27.0695 593.31 46.8053C528.175 70.2591 557.624 193.808 496.672 226.633C434.428 260.153 339.253 161.272 288.801 210.794C245.036 253.753 325.371 325.117 334.569 385.749C341.85 433.746 314.448 485.922 337.054 528.884C359.717 571.956 411.685 587.974 453.807 612.359Z" stroke="#C8721D"/>
<path opacity="0.747899" fill-rule="evenodd" clip-rule="evenodd" d="M451.977 616.798C493.863 640.08 534.587 663.762 581.589 673.111C635.887 683.911 693.099 694.763 744.833 675.051C799.479 654.229 850.661 614.828 874.592 561.47C898.072 509.119 882.46 448.65 871.647 392.304C862.294 343.563 840.703 300.011 816.142 256.885C791.452 213.533 764.936 172.489 727.609 139.39C684.022 100.739 636.046 28.2068 581.589 48.8962C516.873 73.4831 548.474 196.499 488.103 230.383C426.454 264.984 329.568 167.779 279.988 218.175C236.979 261.89 318.548 331.842 328.802 392.304C336.919 440.166 310.433 492.813 333.785 535.374C357.197 578.044 409.436 593.153 451.977 616.798Z" stroke="#C9721D"/>
<path opacity="0.756303" fill-rule="evenodd" clip-rule="evenodd" d="M450.053 621.185C492.34 643.733 533.471 666.7 580.628 675.227C635.107 685.079 692.5 694.93 743.881 674.318C798.156 652.546 848.642 612.257 871.639 558.49C894.201 505.737 877.537 445.55 865.742 389.401C855.54 340.831 833.192 297.662 807.882 254.971C782.44 212.057 755.21 171.482 717.311 139.039C673.057 101.155 623.822 29.4711 569.734 51.1078C505.457 76.8204 539.2 199.266 479.431 234.198C418.395 269.87 319.826 174.371 271.134 225.624C228.895 270.084 311.671 338.601 322.979 398.875C331.931 446.588 306.367 499.689 330.458 541.836C354.611 584.091 407.106 598.286 450.053 621.185Z" stroke="#C9731D"/>
<path opacity="0.764706" fill-rule="evenodd" clip-rule="evenodd" d="M448.037 625.522C490.71 647.328 532.236 669.574 579.535 677.277C634.177 686.176 691.733 695.024 742.747 673.519C796.634 650.803 846.409 609.639 868.464 555.478C890.102 502.34 872.39 442.453 859.617 386.518C848.568 338.134 825.47 295.361 799.419 253.118C773.232 210.655 745.299 170.561 706.84 138.785C661.931 101.679 611.452 30.8651 557.75 53.4424C493.932 80.2729 529.807 202.111 470.656 238.081C410.252 274.813 310.032 181.048 262.241 233.143C220.784 278.334 304.744 345.396 317.102 405.463C326.885 453.013 302.252 506.552 327.075 548.272C351.962 590.099 404.697 603.375 448.037 625.522Z" stroke="#CA731D"/>
<path opacity="0.773109" fill-rule="evenodd" clip-rule="evenodd" d="M445.925 629.809C488.972 650.866 530.88 672.384 578.306 679.261C633.095 687.205 690.797 695.047 741.428 672.655C794.91 649.002 843.959 606.975 865.065 552.438C885.773 498.93 867.018 439.361 853.271 383.658C841.38 335.474 817.539 293.111 790.754 251.329C763.83 209.33 735.201 169.729 696.193 138.629C650.643 102.313 598.937 32.3904 545.637 55.9015C482.297 83.8417 520.292 205.035 461.778 242.032C402.025 279.812 300.183 187.811 253.309 240.732C212.647 286.639 297.765 352.226 311.17 412.068C321.781 459.44 298.086 513.401 323.633 554.681C349.246 596.067 402.204 608.422 445.925 629.809Z" stroke="#CB731D"/>
<path opacity="0.781513" fill-rule="evenodd" clip-rule="evenodd" d="M443.718 634.049C487.126 654.352 529.403 675.136 576.942 681.183C631.861 688.17 689.691 695.004 739.924 671.731C792.985 647.148 841.293 604.272 861.444 549.375C881.215 495.514 861.424 436.282 846.706 380.827C833.976 332.857 809.399 290.917 781.889 249.609C754.236 208.086 724.921 168.991 685.376 138.576C639.199 103.061 586.28 34.0513 533.399 58.4891C470.556 87.5304 510.661 208.042 452.801 246.055C393.716 284.872 290.285 194.663 244.341 248.394C204.487 295.003 290.736 359.094 305.183 418.694C316.62 465.873 293.87 520.24 320.134 561.067C346.465 602 399.631 613.429 443.718 634.049Z" stroke="#CC741D"/>
<path opacity="0.789916" fill-rule="evenodd" clip-rule="evenodd" d="M441.414 638.244C485.17 657.786 527.804 677.829 575.441 683.046C630.474 689.073 688.414 694.896 738.233 670.751C790.857 645.246 838.409 601.533 857.599 546.292C876.427 492.095 855.605 433.217 839.922 378.027C826.356 330.287 801.051 288.782 772.825 247.961C744.451 206.926 714.458 168.349 674.388 138.629C627.599 103.925 573.484 35.8494 521.037 61.2063C458.71 91.3401 500.912 211.134 443.725 250.15C385.326 289.993 280.336 201.602 235.337 256.127C196.302 303.425 283.657 366.001 299.142 425.339C311.4 472.312 289.603 527.067 316.575 567.43C343.617 607.897 396.974 618.396 441.414 638.244Z" stroke="#CC741D"/>
<path opacity="0.798319" fill-rule="evenodd" clip-rule="evenodd" d="M439.014 642.395C483.104 661.171 526.081 680.466 573.802 684.851C628.931 689.916 686.965 694.728 736.354 669.717C788.525 643.297 835.308 598.761 853.531 543.194C871.409 488.676 849.563 430.17 832.919 375.263C818.522 327.767 792.497 286.71 763.562 246.387C734.477 205.854 703.815 167.806 663.233 138.79C615.845 104.908 560.55 37.7871 508.554 64.0555C446.762 95.2724 491.049 214.311 434.551 254.32C376.856 295.176 270.34 208.631 226.299 263.932C188.096 311.905 276.529 372.946 293.048 432.005C306.124 478.757 285.285 533.884 312.958 573.771C340.702 613.759 394.234 623.325 439.014 642.395Z" stroke="#CD751D"/>
<path opacity="0.806723" fill-rule="evenodd" clip-rule="evenodd" d="M436.515 646.503C480.927 664.507 524.234 683.049 572.024 686.601C627.233 690.703 685.342 694.501 734.287 668.632C785.989 641.306 831.987 595.96 849.238 540.083C866.162 485.262 843.298 427.146 825.699 372.537C810.475 325.3 783.737 284.704 754.103 244.892C724.315 204.873 692.994 167.366 651.911 139.062C603.939 106.012 547.481 39.8668 495.951 67.0386C434.714 99.3292 481.071 217.577 425.28 258.565C368.308 300.422 260.297 215.749 217.228 271.811C179.868 320.443 269.353 379.932 286.9 438.694C300.789 485.21 280.916 540.692 309.281 580.09C337.719 619.588 391.41 628.218 436.515 646.503Z" stroke="#CE751D"/>
<path opacity="0.815126" fill-rule="evenodd" clip-rule="evenodd" d="M433.919 650.572C478.638 667.797 522.261 685.581 570.106 688.298C625.379 691.436 683.545 694.22 732.032 667.5C783.249 639.275 828.448 593.134 844.721 536.965C860.686 481.856 836.811 424.148 818.262 369.855C802.216 322.891 774.773 282.767 744.449 243.479C713.967 203.985 681.996 167.031 640.426 139.449C591.884 107.241 534.28 42.0907 483.232 70.1578C422.568 103.512 470.982 220.933 415.915 262.889C359.681 305.733 250.209 222.958 208.126 279.763C171.62 329.04 262.13 386.958 280.699 445.405C295.399 491.671 276.497 547.492 305.545 586.388C334.667 625.385 388.501 633.077 433.919 650.572Z" stroke="#CF761E"/>
<path opacity="0.823529" fill-rule="evenodd" clip-rule="evenodd" d="M431.223 654.6C476.236 671.043 520.163 688.062 568.048 689.944C623.367 692.117 681.573 693.885 729.586 666.323C780.303 637.209 824.69 590.286 839.98 533.841C854.981 478.462 830.102 421.18 810.608 367.219C793.745 320.541 765.607 280.903 734.601 242.15C703.435 203.194 670.823 166.804 628.778 139.951C579.682 108.595 520.95 44.4603 470.399 73.414C410.326 107.822 460.782 224.38 406.456 267.29C350.979 311.11 240.079 230.258 198.993 287.789C163.352 337.695 254.859 394.025 274.446 452.138C289.951 498.142 272.026 554.284 301.748 592.667C331.547 631.149 385.507 637.9 431.223 654.6Z" stroke="#CF761E"/>
<path opacity="0.831933" fill-rule="evenodd" clip-rule="evenodd" d="M428.426 658.592C473.719 674.247 517.937 690.497 565.847 691.543C621.196 692.75 679.424 693.502 726.948 665.106C777.149 635.112 820.711 587.421 835.013 530.718C849.046 475.086 823.171 418.246 802.738 364.634C785.063 318.258 756.237 279.116 724.56 240.91C692.718 202.505 659.477 166.689 616.969 140.574C567.333 110.079 507.491 46.9797 457.454 76.8112C397.99 112.262 450.473 227.922 396.903 271.774C342.199 316.555 229.905 237.651 189.83 295.89C155.066 346.41 247.542 401.135 268.14 458.898C284.445 504.623 267.503 561.07 297.89 598.929C328.356 636.885 382.425 642.693 428.426 658.592Z" stroke="#D0761E"/>
<path opacity="0.840336" fill-rule="evenodd" clip-rule="evenodd" d="M425.53 662.55C471.089 677.411 515.584 692.887 563.505 693.096C618.867 693.338 677.098 693.073 724.12 663.853C773.79 632.986 816.513 584.543 829.823 527.599C842.883 471.73 816.02 415.351 794.654 362.103C776.173 316.042 746.668 277.41 714.329 239.763C681.822 201.919 647.961 166.688 605.004 141.319C554.843 111.696 493.909 49.6501 444.4 80.3503C385.564 116.834 440.057 231.56 387.261 276.34C333.347 322.069 219.693 245.137 180.64 304.067C146.763 355.186 240.18 408.288 261.783 465.683C278.884 511.117 262.929 567.85 293.973 605.173C325.096 642.592 379.259 647.456 425.53 662.55Z" stroke="#D1771E"/>
<path opacity="0.84874" fill-rule="evenodd" clip-rule="evenodd" d="M422.531 666.473C468.343 680.538 513.101 695.235 561.019 694.607C616.376 693.883 674.594 692.602 721.099 662.565C770.222 630.836 812.093 581.654 824.408 524.487C836.49 468.399 808.648 412.497 786.356 359.63C767.073 313.899 736.899 275.788 703.908 238.71C670.745 201.44 636.274 166.805 592.881 142.19C542.211 113.447 480.203 52.4736 431.237 84.0332C373.047 121.538 429.534 235.295 377.528 280.99C324.42 327.653 209.441 252.716 171.422 312.319C138.442 364.021 232.772 415.485 255.373 472.494C273.264 517.623 258.302 574.626 289.993 611.401C321.765 648.271 376.004 652.189 422.531 666.473Z" stroke="#D2771E"/>
<path opacity="0.857143" fill-rule="evenodd" clip-rule="evenodd" d="M419.432 670.365C465.482 683.628 510.49 697.541 558.39 696.078C613.726 694.387 671.913 692.091 717.886 661.246C766.448 628.666 807.455 578.76 818.77 521.387C829.871 465.096 801.058 409.689 777.846 357.219C757.768 311.832 726.934 274.253 693.301 237.757C659.492 201.07 624.422 167.043 580.606 143.189C529.442 115.334 466.379 55.4525 417.972 87.8619C360.445 126.377 418.909 239.131 367.708 285.726C315.423 333.309 199.153 260.39 162.18 320.647C130.108 372.917 225.322 422.727 248.914 479.333C267.59 524.142 253.625 581.398 285.953 617.615C318.363 653.924 372.662 656.895 419.432 670.365Z" stroke="#D2781E"/>
<path opacity="0.865546" fill-rule="evenodd" clip-rule="evenodd" d="M416.23 674.226C462.505 686.683 507.749 699.809 555.615 697.51C610.913 694.854 669.052 691.542 714.48 659.9C762.466 626.477 802.595 575.863 812.907 518.301C823.025 461.825 793.248 406.929 769.125 354.872C748.258 309.842 716.772 272.807 682.507 236.904C648.064 200.813 612.405 167.403 568.179 144.317C516.537 117.359 452.439 58.5877 404.604 91.837C347.759 131.35 408.181 243.066 357.801 290.549C306.354 339.037 188.83 268.158 152.914 329.051C121.759 381.873 217.827 430.013 242.404 486.199C261.86 530.676 248.896 588.166 281.851 623.813C314.89 659.552 369.233 661.574 416.23 674.226Z" stroke="#D3781E"/>
<path opacity="0.87395" fill-rule="evenodd" clip-rule="evenodd" d="M412.926 678.06C459.411 689.707 504.877 702.042 552.696 698.907C607.94 695.287 666.011 690.961 710.88 658.531C758.276 624.275 797.515 572.969 806.821 515.235C815.952 458.592 785.222 404.224 760.194 352.596C738.544 307.937 706.416 271.457 671.53 236.157C636.462 200.673 600.226 167.89 555.604 145.58C503.499 119.527 438.385 61.8833 391.138 95.9623C334.99 136.461 397.353 247.106 347.81 295.461C297.217 344.839 178.473 276.022 143.626 337.533C113.397 390.89 210.291 437.347 235.845 493.095C256.074 537.225 244.115 594.933 277.687 630C311.345 665.156 365.715 666.23 412.926 678.06Z" stroke="#D4791E"/>
<path opacity="0.882353" fill-rule="evenodd" clip-rule="evenodd" d="M409.518 681.867C456.199 692.701 501.873 704.241 549.631 700.272C604.802 695.688 662.789 690.349 707.086 657.141C753.876 622.063 792.214 570.08 800.511 512.193C808.652 455.399 776.977 401.575 751.052 350.392C728.626 306.118 695.867 270.204 660.37 235.518C624.688 200.652 587.885 168.506 542.881 146.978C490.329 121.839 424.219 65.3402 377.574 100.239C322.142 141.711 386.426 251.251 337.734 300.463C288.011 350.716 168.084 283.983 134.316 346.092C105.023 399.969 202.713 444.727 229.236 500.021C250.231 543.792 239.282 601.7 273.461 636.175C307.727 670.738 362.107 670.863 409.518 681.867Z" stroke="#D5791E"/>
<path opacity="0.890756" fill-rule="evenodd" clip-rule="evenodd" d="M406.007 685.649C452.87 695.667 498.739 706.407 546.419 701.606C601.503 696.059 659.388 689.709 703.098 655.733C749.269 619.844 786.694 567.2 793.979 509.177C801.127 452.249 768.519 398.987 741.704 348.264C718.509 304.388 685.128 269.051 649.031 234.99C612.746 200.752 575.387 169.253 530.014 148.514C477.032 124.296 409.945 68.9593 363.917 104.666C309.217 147.1 375.403 255.501 327.578 305.555C278.739 356.669 157.666 292.039 124.986 354.728C96.6385 409.108 195.095 452.154 222.578 506.977C244.335 550.374 234.398 608.465 269.173 642.338C304.037 676.298 358.411 675.474 406.007 685.649Z" stroke="#D5791F"/>
<path opacity="0.89916" fill-rule="evenodd" clip-rule="evenodd" d="M402.391 689.409C449.422 698.607 495.471 708.546 543.061 702.913C598.039 696.406 655.804 689.046 698.915 654.313C744.453 617.624 780.953 564.334 787.225 506.193C793.378 449.149 759.845 396.464 732.149 346.216C708.192 302.752 674.199 268.003 637.513 234.577C600.636 200.977 562.734 170.136 517.005 150.191C463.608 126.902 395.566 72.7444 350.168 109.249C296.217 152.631 364.285 259.861 317.34 310.742C269.401 362.7 147.219 300.193 115.638 363.443C88.2436 418.309 187.436 459.631 215.872 513.965C238.383 556.976 229.461 615.231 264.822 648.493C300.274 681.839 354.625 680.066 402.391 689.409Z" stroke="#D67A1F"/>
<path opacity="0.907563" fill-rule="evenodd" clip-rule="evenodd" d="M398.671 693.149C445.855 701.525 492.071 710.658 539.555 704.196C594.411 696.73 652.039 688.364 694.537 652.883C739.428 615.405 774.993 561.487 780.249 503.244C785.405 446.102 750.958 394.01 722.389 344.254C697.677 301.214 663.083 267.064 625.819 234.283C588.361 201.332 549.927 171.157 503.857 152.013C450.062 129.659 381.085 76.6975 336.331 113.989C283.145 158.306 353.074 264.332 307.025 316.024C260 368.811 136.745 308.445 106.273 372.237C79.8401 427.573 179.739 467.157 209.119 520.987C232.376 563.599 224.473 622.001 260.409 654.64C296.437 687.363 350.75 684.641 398.671 693.149Z" stroke="#D77A1F"/>
<path opacity="0.915966" fill-rule="evenodd" clip-rule="evenodd" d="M394.847 696.868C442.17 704.419 488.538 712.744 535.902 705.454C590.619 697.033 648.093 687.662 689.965 651.445C734.194 613.189 768.813 558.658 773.052 500.333C777.21 443.109 741.859 391.626 712.426 342.376C686.967 299.774 651.782 266.233 613.952 234.108C575.925 201.815 536.969 172.315 490.573 153.979C436.395 132.567 366.505 80.8172 322.408 118.884C270.004 164.123 341.773 268.912 296.632 321.4C250.536 375 126.246 316.794 96.8924 381.108C71.4292 436.897 172.003 474.732 202.319 528.04C226.316 570.24 219.433 628.771 255.933 660.778C292.528 692.867 346.784 689.198 394.847 696.868Z" stroke="#D87B1F"/>
<path opacity="0.92437" fill-rule="evenodd" clip-rule="evenodd" d="M390.916 700.57C438.364 707.295 484.87 714.81 532.1 706.694C586.662 697.319 643.964 686.946 685.197 650.004C728.752 610.982 762.414 555.855 765.634 497.465C768.793 440.177 732.549 389.319 702.261 340.59C676.062 298.439 640.297 265.517 601.912 234.057C563.327 202.433 523.863 173.618 477.153 156.093C422.61 135.63 351.827 85.1084 308.402 123.939C256.795 170.085 330.382 273.606 286.165 326.874C241.01 381.27 115.724 325.242 87.4969 390.058C63.0113 446.284 164.23 482.357 195.471 535.129C220.202 576.903 214.342 635.545 251.395 666.91C288.543 698.356 342.727 693.741 390.916 700.57Z" stroke="#D87B1F"/>
<path opacity="0.932773" fill-rule="evenodd" clip-rule="evenodd" d="M386.881 704.258C434.439 710.153 481.07 716.855 528.151 707.916C582.541 697.59 639.652 686.219 680.235 648.563C723.102 608.786 755.797 553.081 757.997 494.643C760.156 437.309 723.03 387.092 691.896 338.899C664.965 297.211 628.631 264.918 589.703 234.133C550.572 203.187 510.611 175.065 463.603 158.358C408.711 138.85 337.057 89.5715 294.316 129.154C243.522 176.194 318.905 278.414 275.624 332.446C231.426 387.622 105.18 333.79 78.0889 399.088C54.5883 455.732 156.422 490.034 188.579 542.252C214.035 583.588 209.199 642.324 246.793 673.037C284.485 703.83 338.58 698.27 386.881 704.258Z" stroke="#D97C1F"/>
<path opacity="0.941176" fill-rule="evenodd" clip-rule="evenodd" d="M382.74 707.931C430.393 712.996 477.133 718.883 524.051 709.124C578.253 697.85 635.157 685.484 675.076 647.125C717.243 606.607 748.96 550.339 750.141 491.872C751.299 434.509 713.302 384.947 681.332 337.305C653.677 296.093 616.785 264.44 577.326 234.338C537.661 204.08 497.215 176.66 449.922 160.776C394.698 142.229 322.195 94.2083 280.151 134.531C230.187 182.45 307.342 283.339 265.01 338.118C221.782 394.057 94.6159 342.436 68.6683 408.198C46.1599 465.243 148.576 497.762 181.64 549.411C207.813 590.297 204.003 649.108 242.128 679.161C280.352 709.291 334.342 702.787 382.74 707.931Z" stroke="#DA7C1F"/>
<path opacity="0.94958" fill-rule="evenodd" clip-rule="evenodd" d="M378.493 711.592C426.228 715.824 473.063 720.895 519.804 710.318C573.8 698.1 630.48 684.743 669.724 645.693C711.177 604.445 741.907 547.632 742.067 489.154C742.224 431.779 703.368 382.888 670.571 335.811C642.202 295.088 604.763 264.083 564.784 234.675C524.597 205.114 483.678 178.404 436.116 163.348C380.577 145.768 307.247 99.0193 265.913 140.07C216.792 188.853 295.696 288.381 254.327 343.89C212.081 400.575 84.0341 351.181 59.2383 417.385C37.7288 474.815 140.697 505.542 174.657 556.606C201.54 597.029 198.757 655.897 237.401 685.28C276.144 714.738 330.012 707.294 378.493 711.592Z" stroke="#DB7C1F"/>
<path opacity="0.957983" fill-rule="evenodd" clip-rule="evenodd" d="M374.139 715.244C421.941 718.643 468.858 722.895 515.406 711.504C569.182 698.346 625.62 684.001 664.176 644.273C704.903 602.307 734.637 544.967 733.776 486.494C732.932 429.126 693.228 380.92 659.615 334.422C630.539 294.201 592.565 263.854 552.079 235.149C511.382 206.293 470.003 180.301 422.185 166.078C366.348 149.469 292.213 104.008 251.602 145.774C203.34 195.407 283.969 293.542 243.575 349.765C202.325 407.178 73.4353 360.027 49.7986 426.654C29.2948 484.45 132.784 513.375 167.63 563.839C195.214 603.786 193.459 662.694 232.609 691.398C271.861 720.176 325.591 711.792 374.139 715.244Z" stroke="#DB7D1F"/>
<path opacity="0.966387" fill-rule="evenodd" clip-rule="evenodd" d="M369.68 718.888C417.534 721.452 464.518 724.884 510.861 712.683C564.398 698.588 620.577 683.261 658.434 642.866C698.422 600.196 727.151 542.345 725.27 483.896C723.425 426.551 682.885 379.046 648.466 333.142C618.693 293.435 580.195 263.755 539.214 235.76C498.02 207.62 456.194 182.353 408.135 168.967C352.016 153.335 277.099 109.175 237.223 151.643C189.835 202.111 272.164 298.824 232.757 355.743C192.516 413.868 62.8228 368.973 40.3525 436.002C20.8604 494.148 124.838 521.262 160.56 571.11C188.837 610.57 188.11 669.5 227.756 697.516C267.504 725.604 321.079 716.284 369.68 718.888Z" stroke="#DC7D20"/>
<path opacity="0.97479" fill-rule="evenodd" clip-rule="evenodd" d="M365.115 722.525C413.005 724.253 460.042 726.865 506.165 713.857C559.448 698.83 615.351 682.524 652.497 641.474C691.735 598.113 719.45 539.77 716.549 481.363C713.703 424.059 672.341 377.268 637.126 331.972C606.664 292.79 567.654 263.787 526.191 236.512C484.511 209.094 442.251 184.562 393.965 172.016C337.583 157.366 261.906 114.52 222.777 157.678C176.277 208.965 260.282 304.226 221.875 361.825C182.654 420.643 52.1968 378.018 30.8998 445.43C12.4255 503.906 116.861 529.202 153.447 578.419C182.409 617.379 182.71 676.313 222.839 703.633C263.071 731.023 316.475 720.769 365.115 722.525Z" stroke="#DD7E20"/>
<path opacity="0.983193" fill-rule="evenodd" clip-rule="evenodd" d="M360.443 726.158C408.356 727.05 455.432 728.841 501.32 715.03C554.333 699.075 609.943 681.796 646.367 640.105C684.842 596.065 711.535 537.247 707.615 478.9C703.769 421.654 661.597 375.592 625.596 330.918C594.455 292.274 554.945 263.956 513.012 237.408C470.861 210.722 428.179 186.931 379.682 175.23C323.052 161.566 246.639 120.047 208.269 163.881C162.671 215.972 248.326 309.753 210.93 368.013C172.741 427.507 41.5603 387.165 21.443 454.938C3.99204 513.728 108.853 537.198 146.292 585.768C175.93 624.217 177.259 683.136 217.859 709.752C258.563 736.436 311.78 725.252 360.443 726.158Z" stroke="#DE7E20"/>
<path opacity="0.991597" fill-rule="evenodd" clip-rule="evenodd" d="M355.664 729.789C403.585 729.845 450.685 730.814 496.326 716.204C549.052 699.326 604.352 681.08 640.043 638.758C677.743 594.054 703.405 534.779 698.468 476.509C693.623 419.34 650.653 374.021 613.879 329.981C582.068 291.886 542.07 264.262 499.68 238.451C457.069 212.504 413.978 189.462 365.284 178.609C308.425 165.936 231.299 125.757 193.7 170.253C149.018 223.133 236.296 315.404 199.923 374.308C162.778 434.459 30.9133 396.413 11.9819 464.527C-4.44035 523.612 100.814 545.248 139.095 593.158C169.399 631.084 171.757 689.971 212.815 715.874C253.978 741.843 306.993 729.732 355.664 729.789Z" stroke="#DE7F20"/>
<path fill-rule="evenodd" clip-rule="evenodd" d="M350.779 733.419C398.694 732.639 445.803 732.785 491.182 717.381C543.606 699.586 598.579 680.377 633.526 637.439C670.44 592.084 695.064 532.37 689.11 474.195C683.269 417.119 639.515 372.557 601.977 329.166C569.506 291.632 529.032 264.71 486.198 239.642C443.141 214.444 399.655 192.157 350.779 182.155C293.706 170.476 215.891 131.649 179.075 176.796C135.323 230.446 224.198 321.181 188.857 380.71C152.769 441.5 20.2597 405.762 2.51993 474.195C-12.8686 533.559 92.7474 553.354 131.859 600.589C162.82 637.98 166.205 696.817 207.709 721.999C249.319 747.247 302.114 734.212 350.779 733.419Z" stroke="#DF7F20"/>
</svg>
