<svg width="207" height="40" viewBox="0 0 207 40" fill="none" xmlns="http://www.w3.org/2000/svg">
<rect width="11.8204" height="11.8204" fill="#32AA54"/>
<rect y="14.0898" width="11.8204" height="11.8204" fill="#181818"/>
<rect y="28.1797" width="11.8204" height="11.8204" fill="#32AA54"/>
<rect x="14.0898" width="11.8204" height="11.8204" fill="#181818"/>
<rect x="14.0898" y="14.0898" width="11.8204" height="11.8204" fill="#32AA54"/>
<rect x="14.0898" y="28.1797" width="11.8204" height="11.8204" fill="#181818"/>
<rect x="28.1797" width="11.8204" height="11.8204" fill="#181818"/>
<rect x="28.1797" y="14.0898" width="11.8204" height="11.8204" fill="#181818"/>
<rect x="28.1797" y="28.1797" width="11.8204" height="11.8204" fill="#32AA54"/>
<path d="M55.04 16V4.8H58V10.32L57.76 11.76H57.92L62 4.8H65.44V16H62.48V10.48L62.72 9.04H62.56L58.48 16H55.04ZM67.2844 16V7.68H70.0044V10.64H72.8844V7.68H75.6044V16H72.8844V12.96H70.0044V16H67.2844ZM76.4863 10V7.68H84.6463V10H81.9263V16H79.2063V10H76.4863ZM86.4468 14.944C85.5614 14.08 85.1188 13.0453 85.1188 11.84C85.1188 10.6347 85.5614 9.6 86.4468 8.736C87.3321 7.872 88.4094 7.44 89.6788 7.44C90.9694 7.44 92.0521 7.872 92.9268 8.736C93.8014 9.6 94.2388 10.6347 94.2388 11.84V12.32H87.9188C88.0041 12.8853 88.1961 13.3227 88.4948 13.632C88.8041 13.9307 89.1988 14.08 89.6788 14.08C90.2441 14.08 90.6708 13.936 90.9588 13.648C91.0868 13.5307 91.1934 13.3813 91.2788 13.2H94.1588C93.9668 13.7867 93.6788 14.2933 93.2948 14.72C92.4521 15.7333 91.2468 16.24 89.6788 16.24C88.4094 16.24 87.3321 15.808 86.4468 14.944ZM87.9988 10.96H91.3588C91.2628 10.576 91.0654 10.256 90.7668 10C90.4681 9.73333 90.1054 9.6 89.6788 9.6C89.2521 9.6 88.8894 9.73333 88.5908 10C88.2921 10.256 88.0948 10.576 87.9988 10.96ZM94.7188 16L96.7988 7.68H101.759L103.839 16H101.119L99.5988 10H98.9588L97.4388 16H94.7188ZM105.572 14.944C104.686 14.08 104.244 13.0453 104.244 11.84C104.244 10.6347 104.686 9.6 105.572 8.736C106.457 7.872 107.534 7.44 108.804 7.44C110.094 7.44 111.177 7.872 112.052 8.736C112.926 9.6 113.364 10.6347 113.364 11.84V12.32H107.044C107.129 12.8853 107.321 13.3227 107.62 13.632C107.929 13.9307 108.324 14.08 108.804 14.08C109.369 14.08 109.796 13.936 110.084 13.648C110.212 13.5307 110.318 13.3813 110.404 13.2H113.284C113.092 13.7867 112.804 14.2933 112.42 14.72C111.577 15.7333 110.372 16.24 108.804 16.24C107.534 16.24 106.457 15.808 105.572 14.944ZM107.124 10.96H110.484C110.388 10.576 110.19 10.256 109.892 10C109.593 9.73333 109.23 9.6 108.804 9.6C108.377 9.6 108.014 9.73333 107.716 10C107.417 10.256 107.22 10.576 107.124 10.96ZM114.644 16V7.68H117.364V10.64H118.244L120.084 7.68H122.964L120.564 11.6L123.204 16H120.244L118.404 12.96H117.364V16H114.644ZM123.283 10V7.68H131.443V10H128.723V16H126.003V10H123.283ZM131.676 7.68H134.476L135.916 13.68H136.396L137.996 7.68H140.796L137.596 19.04H134.796L135.676 16H133.836L131.676 7.68ZM142.271 15.04C141.556 14.2293 141.199 13.1627 141.199 11.84C141.199 10.5173 141.556 9.456 142.271 8.656C142.985 7.84533 143.855 7.44 144.879 7.44C145.54 7.44 146.164 7.66933 146.751 8.128C146.996 8.33067 147.199 8.55467 147.359 8.8H147.519V7.68H150.239V16H147.519V14.88H147.359C147.209 15.136 147.007 15.3653 146.751 15.568C146.175 16.016 145.551 16.24 144.879 16.24C143.855 16.24 142.985 15.84 142.271 15.04ZM144.479 10.304C144.159 10.6667 143.999 11.1787 143.999 11.84C143.999 12.5013 144.159 13.0133 144.479 13.376C144.799 13.7387 145.225 13.92 145.759 13.92C146.292 13.92 146.719 13.7387 147.039 13.376C147.359 13.0133 147.519 12.5013 147.519 11.84C147.519 11.1787 147.359 10.6667 147.039 10.304C146.719 9.94133 146.292 9.76 145.759 9.76C145.225 9.76 144.799 9.94133 144.479 10.304ZM151.031 16L153.111 7.68H158.071L160.151 16H157.431L155.911 10H155.271L153.751 16H151.031ZM160.956 16V7.68H163.676V10.24H165.436C166.46 10.24 167.276 10.5173 167.884 11.072C168.492 11.616 168.796 12.2987 168.796 13.12C168.796 13.9413 168.492 14.6293 167.884 15.184C167.276 15.728 166.46 16 165.436 16H160.956ZM163.676 13.92H165.116C165.756 13.92 166.076 13.6533 166.076 13.12C166.076 12.5867 165.756 12.32 165.116 12.32H163.676V13.92ZM169.909 16V7.68H172.629V10.64H175.509V7.68H178.229V16H175.509V12.96H172.629V16H169.909ZM188.071 16V7.68H190.791V16H188.071ZM179.831 16V7.68H182.551V10.24H183.991C185.015 10.24 185.831 10.5173 186.439 11.072C187.047 11.616 187.351 12.2987 187.351 13.12C187.351 13.9413 187.047 14.6293 186.439 15.184C185.831 15.728 185.015 16 183.991 16H179.831ZM182.551 13.92H183.671C184.311 13.92 184.631 13.6533 184.631 13.12C184.631 12.5867 184.311 12.32 183.671 12.32H182.551V13.92ZM192.394 16V7.68H195.114V11.04L194.954 12.32H195.114L198.074 7.68H200.874V16H198.154V12.64L198.314 11.36H198.154L195.194 16H192.394ZM194.074 4.48H195.674C195.674 4.69333 195.754 4.86933 195.914 5.008C196.084 5.136 196.324 5.2 196.634 5.2C196.943 5.2 197.178 5.136 197.338 5.008C197.508 4.86933 197.594 4.69333 197.594 4.48H199.194C199.194 5.17333 198.97 5.72267 198.522 6.128C198.084 6.52267 197.455 6.72 196.634 6.72C195.812 6.72 195.178 6.52267 194.73 6.128C194.292 5.72267 194.074 5.17333 194.074 4.48ZM54.8 36.04V24.68H57.52V25.8H57.68C57.8293 25.5547 58.032 25.3307 58.288 25.128C58.8747 24.6693 59.4987 24.44 60.16 24.44C61.184 24.44 62.0533 24.8453 62.768 25.656C63.4827 26.456 63.84 27.5173 63.84 28.84C63.84 30.1627 63.4827 31.2293 62.768 32.04C62.0533 32.84 61.184 33.24 60.16 33.24C59.488 33.24 58.864 33.016 58.288 32.568C58.032 32.3653 57.8293 32.136 57.68 31.88H57.52V36.04H54.8ZM58 27.304C57.68 27.6667 57.52 28.1787 57.52 28.84C57.52 29.5013 57.68 30.0133 58 30.376C58.32 30.7387 58.7467 30.92 59.28 30.92C59.8133 30.92 60.24 30.7387 60.56 30.376C60.88 30.0133 61.04 29.5013 61.04 28.84C61.04 28.1787 60.88 27.6667 60.56 27.304C60.24 26.9413 59.8133 26.76 59.28 26.76C58.7467 26.76 58.32 26.9413 58 27.304ZM66.0405 31.944C65.1552 31.08 64.7125 30.0453 64.7125 28.84C64.7125 27.6347 65.1552 26.6 66.0405 25.736C66.9258 24.872 68.0032 24.44 69.2725 24.44C70.5632 24.44 71.6458 24.872 72.5205 25.736C73.3952 26.6 73.8325 27.6347 73.8325 28.84V29.32H67.5125C67.5978 29.8853 67.7898 30.3227 68.0885 30.632C68.3978 30.9307 68.7925 31.08 69.2725 31.08C69.8378 31.08 70.2645 30.936 70.5525 30.648C70.6805 30.5307 70.7872 30.3813 70.8725 30.2H73.7525C73.5605 30.7867 73.2725 31.2933 72.8885 31.72C72.0458 32.7333 70.8405 33.24 69.2725 33.24C68.0032 33.24 66.9258 32.808 66.0405 31.944ZM67.5925 27.96H70.9525C70.8565 27.576 70.6592 27.256 70.3605 27C70.0618 26.7333 69.6992 26.6 69.2725 26.6C68.8458 26.6 68.4832 26.7333 68.1845 27C67.8858 27.256 67.6885 27.576 67.5925 27.96ZM76.0245 31.944C75.1498 31.0693 74.7125 30.0347 74.7125 28.84C74.7125 27.6453 75.1498 26.616 76.0245 25.752C76.8992 24.8773 77.9552 24.44 79.1925 24.44C80.7392 24.44 81.9498 25.016 82.8245 26.168C83.1872 26.68 83.4432 27.2507 83.5925 27.88H80.7925C80.7285 27.72 80.6112 27.5333 80.4405 27.32C80.0885 26.9467 79.6725 26.76 79.1925 26.76C78.7232 26.76 78.3232 26.952 77.9925 27.336C77.6725 27.72 77.5125 28.2213 77.5125 28.84C77.5125 29.4587 77.6725 29.96 77.9925 30.344C78.3232 30.728 78.7232 30.92 79.1925 30.92C79.7472 30.92 80.1738 30.7333 80.4725 30.36C80.5898 30.2213 80.6965 30.0347 80.7925 29.8H83.5925C83.4432 30.44 83.1872 31.016 82.8245 31.528C81.9818 32.6693 80.7712 33.24 79.1925 33.24C77.9552 33.24 76.8992 32.808 76.0245 31.944ZM83.9256 24.68H86.7256L88.1656 30.68H88.6456L90.2456 24.68H93.0456L89.8456 36.04H87.0456L87.9256 33H86.0856L83.9256 24.68ZM93.7688 36.04V24.68H96.4888V25.8H96.6488C96.7981 25.5547 97.0008 25.3307 97.2568 25.128C97.8434 24.6693 98.4674 24.44 99.1288 24.44C100.153 24.44 101.022 24.8453 101.737 25.656C102.451 26.456 102.809 27.5173 102.809 28.84C102.809 30.1627 102.451 31.2293 101.737 32.04C101.022 32.84 100.153 33.24 99.1288 33.24C98.4568 33.24 97.8328 33.016 97.2568 32.568C97.0008 32.3653 96.7981 32.136 96.6488 31.88H96.4888V36.04H93.7688ZM96.9688 27.304C96.6488 27.6667 96.4888 28.1787 96.4888 28.84C96.4888 29.5013 96.6488 30.0133 96.9688 30.376C97.2888 30.7387 97.7154 30.92 98.2488 30.92C98.7821 30.92 99.2088 30.7387 99.5288 30.376C99.8488 30.0133 100.009 29.5013 100.009 28.84C100.009 28.1787 99.8488 27.6667 99.5288 27.304C99.2088 26.9413 98.7821 26.76 98.2488 26.76C97.7154 26.76 97.2888 26.9413 96.9688 27.304ZM104.993 31.944C104.119 31.0693 103.681 30.0347 103.681 28.84C103.681 27.6453 104.119 26.616 104.993 25.752C105.868 24.8773 106.924 24.44 108.161 24.44C109.708 24.44 110.919 25.016 111.793 26.168C112.156 26.68 112.412 27.2507 112.561 27.88H109.761C109.697 27.72 109.58 27.5333 109.409 27.32C109.057 26.9467 108.641 26.76 108.161 26.76C107.692 26.76 107.292 26.952 106.961 27.336C106.641 27.72 106.481 28.2213 106.481 28.84C106.481 29.4587 106.641 29.96 106.961 30.344C107.292 30.728 107.692 30.92 108.161 30.92C108.716 30.92 109.143 30.7333 109.441 30.36C109.559 30.2213 109.665 30.0347 109.761 29.8H112.561C112.412 30.44 112.156 31.016 111.793 31.528C110.951 32.6693 109.74 33.24 108.161 33.24C106.924 33.24 105.868 32.808 104.993 31.944Z" fill="white"/>
</svg>
